<?plantuml 1.2026.1?><svg xmlns="http://www.w3.org/2000/svg" xmlns:xlink="http://www.w3.org/1999/xlink" contentStyleType="text/css" data-diagram-type="STATE" height="744px" preserveAspectRatio="none" style="width:1439px;height:744px;background:#FFFFFF;" version="1.1" viewBox="0 0 1439 744" width="1439px" zoomAndPan="magnify"><defs/><g><g><rect fill="#F1F1F1" height="78.2031" rx="12.5" ry="12.5" style="stroke:#181818;stroke-width:0.5;" width="378.0254" x="222" y="148"/><line style="stroke:#181818;stroke-width:0.5;" x1="222" x2="600.0254" y1="174.2969" y2="174.2969"/><text fill="#000000" font-family="sans-serif" font-size="14" lengthAdjust="spacing" textLength="71.8047" x="375.1104" y="165.9951">IDLE_LEFT</text><text fill="#000000" font-family="sans-serif" font-size="12" lengthAdjust="spacing" textLength="229.4297" x="227" y="190.4355">PreviousPointState = PointState::LEFT</text><text fill="#000000" font-family="sans-serif" font-size="12" lengthAdjust="spacing" textLength="176.2559" x="227" y="204.4043">Top = ActiveInactive::ACTIVE</text><text fill="#000000" font-family="sans-serif" font-size="12" lengthAdjust="spacing" textLength="358.0254" x="227" y="218.373">State = EulynxCommandedEndPosition::NOT_COMMANDED</text></g><g><rect fill="#F1F1F1" height="78.2031" rx="12.5" ry="12.5" style="stroke:#181818;stroke-width:0.5;" width="378.0254" x="801" y="256"/><line style="stroke:#181818;stroke-width:0.5;" x1="801" x2="1179.0254" y1="282.2969" y2="282.2969"/><text fill="#000000" font-family="sans-serif" font-size="14" lengthAdjust="spacing" textLength="82.3389" x="948.8433" y="273.9951">IDLE_RIGHT</text><text fill="#000000" font-family="sans-serif" font-size="12" lengthAdjust="spacing" textLength="238.459" x="806" y="298.4355">PreviousPointState = PointState::RIGHT</text><text fill="#000000" font-family="sans-serif" font-size="12" lengthAdjust="spacing" textLength="176.2559" x="806" y="312.4043">Top = ActiveInactive::ACTIVE</text><text fill="#000000" font-family="sans-serif" font-size="12" lengthAdjust="spacing" textLength="358.0254" x="806" y="326.373">State = EulynxCommandedEndPosition::NOT_COMMANDED</text></g><g><rect fill="#F1F1F1" height="78.2031" rx="12.5" ry="12.5" style="stroke:#181818;stroke-width:0.5;" width="378.0254" x="550" y="364"/><line style="stroke:#181818;stroke-width:0.5;" x1="550" x2="928.0254" y1="390.2969" y2="390.2969"/><text fill="#000000" font-family="sans-serif" font-size="14" lengthAdjust="spacing" textLength="152.332" x="662.8467" y="381.9951">IDLE_UNDETERMINED</text><text fill="#000000" font-family="sans-serif" font-size="12" lengthAdjust="spacing" textLength="298.4531" x="555" y="406.4355">PreviousPointState = PointState::UNDETERMINED</text><text fill="#000000" font-family="sans-serif" font-size="12" lengthAdjust="spacing" textLength="176.2559" x="555" y="420.4043">Top = ActiveInactive::ACTIVE</text><text fill="#000000" font-family="sans-serif" font-size="12" lengthAdjust="spacing" textLength="358.0254" x="555" y="434.373">State = EulynxCommandedEndPosition::NOT_COMMANDED</text></g><g><rect fill="#F1F1F1" height="64.2344" rx="12.5" ry="12.5" style="stroke:#181818;stroke-width:0.5;" width="258.459" x="224" y="519"/><line style="stroke:#181818;stroke-width:0.5;" x1="224" x2="482.459" y1="545.2969" y2="545.2969"/><text fill="#000000" font-family="sans-serif" font-size="14" lengthAdjust="spacing" textLength="195.1182" x="255.6704" y="536.9951">WAITING_COMMAND_RIGHT</text><text fill="#000000" font-family="sans-serif" font-size="12" lengthAdjust="spacing" textLength="238.459" x="229" y="561.4355">PreviousPointState = PointState::RIGHT</text><text fill="#000000" font-family="sans-serif" font-size="12" lengthAdjust="spacing" textLength="176.2559" x="229" y="575.4043">Top = ActiveInactive::ACTIVE</text></g><g><rect fill="#F1F1F1" height="64.2344" rx="12.5" ry="12.5" style="stroke:#181818;stroke-width:0.5;" width="249.4297" x="968.5" y="519"/><line style="stroke:#181818;stroke-width:0.5;" x1="968.5" x2="1217.9297" y1="545.2969" y2="545.2969"/><text fill="#000000" font-family="sans-serif" font-size="14" lengthAdjust="spacing" textLength="184.584" x="1000.9229" y="536.9951">WAITING_COMMAND_LEFT</text><text fill="#000000" font-family="sans-serif" font-size="12" lengthAdjust="spacing" textLength="229.4297" x="973.5" y="561.4355">PreviousPointState = PointState::LEFT</text><text fill="#000000" font-family="sans-serif" font-size="12" lengthAdjust="spacing" textLength="176.2559" x="973.5" y="575.4043">Top = ActiveInactive::ACTIVE</text></g><g><rect fill="#F1F1F1" height="78.2031" rx="12.5" ry="12.5" style="stroke:#181818;stroke-width:0.5;" width="292.9941" x="1139.5" y="660"/><line style="stroke:#181818;stroke-width:0.5;" x1="1139.5" x2="1432.4941" y1="686.2969" y2="686.2969"/><text fill="#000000" font-family="sans-serif" font-size="14" lengthAdjust="spacing" textLength="151.0469" x="1210.4736" y="677.9951">TOP_COMMAND_LEFT</text><text fill="#000000" font-family="sans-serif" font-size="12" lengthAdjust="spacing" textLength="188.7715" x="1144.5" y="702.4355">Top = ActiveInactive::INACTIVE</text><text fill="#000000" font-family="sans-serif" font-size="12" lengthAdjust="spacing" textLength="94.0488" x="1144.5" y="716.4043">TopStart = now</text><text fill="#000000" font-family="sans-serif" font-size="12" lengthAdjust="spacing" textLength="272.9941" x="1144.5" y="730.373">State = EulynxCommandedEndPosition::LEFT</text></g><g><rect fill="#F1F1F1" height="78.2031" rx="12.5" ry="12.5" style="stroke:#181818;stroke-width:0.5;" width="302.0234" x="7" y="660"/><line style="stroke:#181818;stroke-width:0.5;" x1="7" x2="309.0234" y1="686.2969" y2="686.2969"/><text fill="#000000" font-family="sans-serif" font-size="14" lengthAdjust="spacing" textLength="161.5811" x="77.2212" y="677.9951">TOP_COMMAND_RIGHT</text><text fill="#000000" font-family="sans-serif" font-size="12" lengthAdjust="spacing" textLength="188.7715" x="12" y="702.4355">Top = ActiveInactive::INACTIVE</text><text fill="#000000" font-family="sans-serif" font-size="12" lengthAdjust="spacing" textLength="94.0488" x="12" y="716.4043">TopStart = now</text><text fill="#000000" font-family="sans-serif" font-size="12" lengthAdjust="spacing" textLength="282.0234" x="12" y="730.373">State = EulynxCommandedEndPosition::RIGHT</text></g><g><rect fill="#F1F1F1" height="64.2344" rx="12.5" ry="12.5" style="stroke:#181818;stroke-width:0.5;" width="378.0254" x="520" y="7"/><line style="stroke:#181818;stroke-width:0.5;" x1="520" x2="898.0254" y1="33.2969" y2="33.2969"/><text fill="#000000" font-family="sans-serif" font-size="14" lengthAdjust="spacing" textLength="80.5684" x="668.7285" y="24.9951">DELAY_TOP</text><text fill="#000000" font-family="sans-serif" font-size="12" lengthAdjust="spacing" textLength="188.7715" x="525" y="49.4355">Top = ActiveInactive::INACTIVE</text><text fill="#000000" font-family="sans-serif" font-size="12" lengthAdjust="spacing" textLength="358.0254" x="525" y="63.4043">State = EulynxCommandedEndPosition::NOT_COMMANDED</text></g><ellipse cx="856" cy="187" fill="#222222" rx="10" ry="10" style="stroke:#222222;stroke-width:1;"/><!--reverse link IDLE_LEFT to *start*--><g class="link" data-entity-1="ent0002" data-entity-2="ent0002" data-link-type="dependency" data-source-line="2" id="lnk4"><path d="M498.6807,145.5776 C532.2507,131.6276 566.42,119.96 604,113 C699.2,95.38 735.69,98.68 819,148 C832.17,155.8 843.65,169.61 850.2,178.53" fill="none" id="IDLE_LEFT-backto-*start*" style="stroke:#181818;stroke-width:1;"/><polygon fill="#181818" points="493.14,147.88,502.9859,148.1201,497.7572,145.9613,499.916,140.7326,493.14,147.88" style="stroke:#181818;stroke-width:1;"/><text fill="#000000" font-family="sans-serif" font-size="13" lengthAdjust="spacing" textLength="80.2026" x="605" y="114.0669">[1] PointLeft</text></g><!--link *start* to IDLE_RIGHT--><g class="link" data-entity-1="ent0002" data-entity-2="ent0003" data-link-type="dependency" data-source-line="3" id="lnk5"><path d="M863.59,194 C878.48,205.78 907.9143,229.0676 936.9643,252.0476" fill="none" id="*start*-to-IDLE_RIGHT" style="stroke:#181818;stroke-width:1;"/><polygon fill="#181818" points="941.67,255.77,937.0931,247.0492,937.7486,252.668,932.1298,253.3235,941.67,255.77" style="stroke:#181818;stroke-width:1;"/></g><!--link *start* to IDLE_UNDETERMINED--><g class="link" data-entity-1="ent0002" data-entity-2="ent0004" data-link-type="dependency" data-source-line="4" id="lnk6"><path d="M850.01,195.36 C843.12,203.53 831.18,216.76 819,226 C796.82,242.83 780.19,233.35 764,256 C741.57,287.38 736.8533,326.11 736.7833,357.78" fill="none" id="*start*-to-IDLE_UNDETERMINED" style="stroke:#181818;stroke-width:1;"/><polygon fill="#181818" points="736.77,363.78,740.7899,354.7889,736.7811,358.78,732.7899,354.7712,736.77,363.78" style="stroke:#181818;stroke-width:1;"/><text fill="#000000" font-family="sans-serif" font-size="13" lengthAdjust="spacing" textLength="18.4146" x="765" y="299.5669">[3]</text></g><!--link IDLE_LEFT to WAITING_COMMAND_RIGHT--><g class="link" data-entity-1="ent0002" data-entity-2="ent0005" data-link-type="dependency" data-source-line="6" id="lnk7"><path d="M404.9,226.06 C393.39,297.94 369.5897,446.4856 358.9597,512.7956" fill="none" id="IDLE_LEFT-to-WAITING_COMMAND_RIGHT" style="stroke:#181818;stroke-width:1;"/><polygon fill="#181818" points="358.01,518.72,363.3842,510.4666,358.8014,513.783,355.485,509.2003,358.01,518.72" style="stroke:#181818;stroke-width:1;"/><text fill="#000000" font-family="sans-serif" font-size="13" lengthAdjust="spacing" textLength="118.2822" x="383" y="407.5669">[1] PointTriggered</text></g><!--link WAITING_COMMAND_RIGHT to IDLE_LEFT--><g class="link" data-entity-1="ent0005" data-entity-2="ent0002" data-link-type="dependency" data-source-line="12" id="lnk12"><path d="M306.39,518.88 C282.27,499.86 255.18,473.21 242,442 C228.51,410.06 229.06,396.16 242,364 C265.01,306.82 311.7505,261.4976 351.8705,229.8276" fill="none" id="WAITING_COMMAND_RIGHT-to-IDLE_LEFT" style="stroke:#181818;stroke-width:1;"/><polygon fill="#181818" points="356.58,226.11,347.0373,228.5467,352.6554,229.208,351.9941,234.8261,356.58,226.11" style="stroke:#181818;stroke-width:1;"/><text fill="#000000" font-family="sans-serif" font-size="13" lengthAdjust="spacing" textLength="118.2822" x="243" y="407.5669">[2] PointTriggered</text></g><!--link IDLE_RIGHT to WAITING_COMMAND_LEFT--><g class="link" data-entity-1="ent0003" data-entity-2="ent0006" data-link-type="dependency" data-source-line="7" id="lnk8"><path d="M1097.05,334.01 C1108.51,342.21 1118.64,352.1 1126,364 C1155.74,412.12 1133.1214,474.4925 1113.4314,513.5425" fill="none" id="IDLE_RIGHT-to-WAITING_COMMAND_LEFT" style="stroke:#181818;stroke-width:1;"/><polygon fill="#181818" points="1110.73,518.9,1118.3537,512.6647,1112.9811,514.4354,1111.2104,509.0629,1110.73,518.9" style="stroke:#181818;stroke-width:1;"/><text fill="#000000" font-family="sans-serif" font-size="13" lengthAdjust="spacing" textLength="118.2822" x="1140" y="407.5669">[1] PointTriggered</text></g><!--link WAITING_COMMAND_LEFT to IDLE_RIGHT--><g class="link" data-entity-1="ent0006" data-entity-2="ent0003" data-link-type="dependency" data-source-line="14" id="lnk14"><path d="M1055.06,518.65 C1034.22,499.01 1010.19,471.82 998,442 C983.88,407.46 982.9261,370.4357 985.0261,340.0657" fill="none" id="WAITING_COMMAND_LEFT-to-IDLE_RIGHT" style="stroke:#181818;stroke-width:1;"/><polygon fill="#181818" points="985.44,334.08,980.8287,342.7826,985.0951,339.0681,988.8096,343.3345,985.44,334.08" style="stroke:#181818;stroke-width:1;"/><text fill="#000000" font-family="sans-serif" font-size="13" lengthAdjust="spacing" textLength="118.2822" x="999" y="407.5669">[2] PointTriggered</text></g><!--link IDLE_UNDETERMINED to WAITING_COMMAND_RIGHT--><g class="link" data-entity-1="ent0004" data-entity-2="ent0005" data-link-type="dependency" data-source-line="8" id="lnk9"><path d="M614.16,442.06 C585.96,451.31 556.29,461.57 529,472 C492.01,486.14 457.0062,501.414 424.2162,516.414" fill="none" id="IDLE_UNDETERMINED-to-WAITING_COMMAND_RIGHT" style="stroke:#181818;stroke-width:1;"/><polygon fill="#181818" points="418.76,518.91,428.6083,518.8035,423.3068,516.83,425.2803,511.5286,418.76,518.91" style="stroke:#181818;stroke-width:1;"/><text fill="#000000" font-family="sans-serif" font-size="13" lengthAdjust="spacing" textLength="213.7954" x="530" y="485.0669">[1] PointTriggered &amp;&amp; PointRight</text></g><!--link IDLE_UNDETERMINED to WAITING_COMMAND_LEFT--><g class="link" data-entity-1="ent0004" data-entity-2="ent0006" data-link-type="dependency" data-source-line="9" id="lnk10"><path d="M742.41,442.22 C745.85,458.86 752.66,477.21 766,489 C795.91,515.44 882.9169,530.4452 962.1169,539.2752" fill="none" id="IDLE_UNDETERMINED-to-WAITING_COMMAND_LEFT" style="stroke:#181818;stroke-width:1;"/><polygon fill="#181818" points="968.08,539.94,959.5786,534.9674,963.1108,539.386,958.6922,542.9181,968.08,539.94" style="stroke:#181818;stroke-width:1;"/><text fill="#000000" font-family="sans-serif" font-size="13" lengthAdjust="spacing" textLength="204.4771" x="767" y="485.0669">[2] PointTriggered &amp;&amp; PointLeft</text></g><!--link WAITING_COMMAND_RIGHT to TOP_COMMAND_RIGHT--><g class="link" data-entity-1="ent0005" data-entity-2="ent0008" data-link-type="dependency" data-source-line="11" id="lnk11"><path d="M311.17,583.32 C281.18,605.78 245.4227,632.5436 213.5727,656.3936" fill="none" id="WAITING_COMMAND_RIGHT-to-TOP_COMMAND_RIGHT" style="stroke:#181818;stroke-width:1;"/><polygon fill="#181818" points="208.77,659.99,218.3717,657.7972,212.7723,656.993,213.5765,651.3936,208.77,659.99" style="stroke:#181818;stroke-width:1;"/><text fill="#000000" font-family="sans-serif" font-size="13" lengthAdjust="spacing" textLength="57.3003" x="268" y="626.0669">[1] IsTop</text></g><!--link WAITING_COMMAND_LEFT to TOP_COMMAND_LEFT--><g class="link" data-entity-1="ent0006" data-entity-2="ent0007" data-link-type="dependency" data-source-line="13" id="lnk13"><path d="M1134.4,583.32 C1164.09,605.78 1199.4453,632.5196 1230.9653,656.3696" fill="none" id="WAITING_COMMAND_LEFT-to-TOP_COMMAND_LEFT" style="stroke:#181818;stroke-width:1;"/><polygon fill="#181818" points="1235.75,659.99,1230.9866,651.3697,1231.7628,656.973,1226.1594,657.7492,1235.75,659.99" style="stroke:#181818;stroke-width:1;"/><text fill="#000000" font-family="sans-serif" font-size="13" lengthAdjust="spacing" textLength="57.3003" x="1196" y="626.0669">[1] IsTop</text></g><!--link TOP_COMMAND_LEFT to DELAY_TOP--><g class="link" data-entity-1="ent0007" data-entity-2="ent0009" data-link-type="dependency" data-source-line="16" id="lnk15"><path d="M1326.62,659.89 C1351.27,632.54 1378,593.34 1378,552 C1378,186 1378,186 1378,186 C1378,87.18 1101.8518,55.4529 904.0218,45.1229" fill="none" id="TOP_COMMAND_LEFT-to-DELAY_TOP" style="stroke:#181818;stroke-width:1;"/><polygon fill="#181818" points="898.03,44.81,906.8092,49.2739,903.0232,45.0707,907.2263,41.2848,898.03,44.81" style="stroke:#181818;stroke-width:1;"/><text fill="#000000" font-family="sans-serif" font-size="13" lengthAdjust="spacing" textLength="18.4146" x="1379" y="407.5669">[1]</text></g><!--reverse link DELAY_TOP to TOP_COMMAND_RIGHT--><g class="link" data-entity-1="ent0009" data-entity-2="ent0008" data-link-type="dependency" data-source-line="17" id="lnk17"><path d="M513.8521,50.9743 C339.9621,65.9343 115,101.24 115,186 C115,186 115,186 115,552 C115,589.79 128.42,630.91 140.26,659.86" fill="none" id="DELAY_TOP-backto-TOP_COMMAND_RIGHT" style="stroke:#181818;stroke-width:1;"/><polygon fill="#181818" points="519.83,50.46,510.5203,47.2462,514.8484,50.8886,511.206,55.2167,519.83,50.46" style="stroke:#181818;stroke-width:1;"/><text fill="#000000" font-family="sans-serif" font-size="13" lengthAdjust="spacing" textLength="18.4146" x="116" y="407.5669">[1]</text></g><!--link DELAY_TOP to IDLE_LEFT--><g class="link" data-entity-1="ent0009" data-entity-2="ent0002" data-link-type="dependency" data-source-line="19" id="lnk18"><path d="M519.81,58.91 C469.14,68.08 423.95,81.5 408,101 C397.53,113.8 395.8843,125.7403 398.3643,141.8003" fill="none" id="DELAY_TOP-to-IDLE_LEFT" style="stroke:#181818;stroke-width:1;"/><polygon fill="#181818" points="399.28,147.73,401.8596,138.225,398.5169,142.7886,393.9533,139.4459,399.28,147.73" style="stroke:#181818;stroke-width:1;"/><text fill="#000000" font-family="sans-serif" font-size="13" lengthAdjust="spacing" textLength="186.3926" x="409" y="114.0669">[1] TopTimeout &amp;&amp; PointLeft</text></g><!--link DELAY_TOP to IDLE_RIGHT--><g class="link" data-entity-1="ent0009" data-entity-2="ent0003" data-link-type="dependency" data-source-line="20" id="lnk19"><path d="M772.2,71.14 C807.43,90.34 850.76,117.16 884,148 C918.33,179.85 945.5678,219.1786 964.9078,250.6386" fill="none" id="DELAY_TOP-to-IDLE_RIGHT" style="stroke:#181818;stroke-width:1;"/><polygon fill="#181818" points="968.05,255.75,966.7443,245.9881,965.4315,251.4905,959.9291,250.1777,968.05,255.75" style="stroke:#181818;stroke-width:1;"/><text fill="#000000" font-family="sans-serif" font-size="13" lengthAdjust="spacing" textLength="195.7109" x="847" y="114.0669">[2] TopTimeout &amp;&amp; PointRight</text></g><!--link DELAY_TOP to IDLE_UNDETERMINED--><g class="link" data-entity-1="ent0009" data-entity-2="ent0004" data-link-type="dependency" data-source-line="21" id="lnk20"><path d="M710.91,71.37 C714.28,125.16 721.81,238.47 731,334 C731.93,343.7 732.3925,348.2107 733.5325,357.9507" fill="none" id="DELAY_TOP-to-IDLE_UNDETERMINED" style="stroke:#181818;stroke-width:1;"/><polygon fill="#181818" points="734.23,363.91,737.1566,354.506,733.6488,358.9439,729.2109,355.436,734.23,363.91" style="stroke:#181818;stroke-width:1;"/><text fill="#000000" font-family="sans-serif" font-size="13" lengthAdjust="spacing" textLength="100.1978" x="722" y="191.5669">[3] TopTimeout</text></g><?plantuml-src dPHVIyCm5CNVyodov8Em1-TRGA6iSGQwhioeo1XZs3WBMoDTDlNRcsRzaxQtQ-jJAJdddj-zkMHvlSAZdVXGetlCN8-kFVh02LxUh70WerXv-WWjKr4IRJyBrO9D7rFPE9CjqiEpBfSy-oxbT35ZFdMrydQ5K15WLAyEuyoVhYVpsSpntQ9c7irrubOa8aHb96Yi8TTyDiUmN7nrPNVNhre6CsujPYQAG0XJaCy328qTkFowOBClhn6E8Cf6MZb7EAmmWIjGXg5wqN9vNEevRsjzRd9GezTY5sj2LFmtcjMu6fP7Uo6FgZfbm6HH0wxpHGEsnZ9RRckl2GuISOhayM3AFQcD4lWEbp-4f3BReEjeXVEkefDWySPy2N4cdBrGMvVNeiVTR_mpaVlz9Wv5IECma8T8HJ8cn9_pV9pKHNQ_dLX6Lx5qWsN2Vv9LHze9QCkX0jsuLVrmQjJoSFISROlx8ZVykFJRCTXxCGurNmDOp_pC0HeqHQAqAvRVWA3Fu4q3m4CuWAPqjE4CMD_p3IBhKUeWiPJ35-qF?></g></svg>