<?plantuml 1.2026.1?><svg xmlns="http://www.w3.org/2000/svg" xmlns:xlink="http://www.w3.org/1999/xlink" contentStyleType="text/css" data-diagram-type="STATE" height="218px" preserveAspectRatio="none" style="width:1519px;height:218px;background:#FFFFFF;" version="1.1" viewBox="0 0 1519 218" width="1519px" zoomAndPan="magnify"><defs/><g><g><rect fill="#F1F1F1" height="64.2344" rx="12.5" ry="12.5" style="stroke:#181818;stroke-width:0.5;" width="218.082" x="298.1" y="7"/><line style="stroke:#181818;stroke-width:0.5;" x1="298.1" x2="516.182" y1="33.2969" y2="33.2969"/><text fill="#000000" font-family="sans-serif" font-size="14" lengthAdjust="spacing" textLength="136.042" x="339.12" y="24.9951">CONTROLLED_LEFT</text><text fill="#000000" font-family="sans-serif" font-size="12" lengthAdjust="spacing" textLength="176.9648" x="303.1" y="49.4355">Left = ActiveInactive::ACTIVE</text><text fill="#000000" font-family="sans-serif" font-size="12" lengthAdjust="spacing" textLength="198.082" x="303.1" y="63.4043">Right = ActiveInactive::INACTIVE</text></g><g><rect fill="#F1F1F1" height="64.2344" rx="12.5" ry="12.5" style="stroke:#181818;stroke-width:0.5;" width="209.4805" x="994.6" y="7"/><line style="stroke:#181818;stroke-width:0.5;" x1="994.6" x2="1204.0805" y1="33.2969" y2="33.2969"/><text fill="#000000" font-family="sans-serif" font-size="14" lengthAdjust="spacing" textLength="146.5762" x="1026.0521" y="24.9951">CONTROLLED_RIGHT</text><text fill="#000000" font-family="sans-serif" font-size="12" lengthAdjust="spacing" textLength="185.5664" x="999.6" y="49.4355">Right = ActiveInactive::ACTIVE</text><text fill="#000000" font-family="sans-serif" font-size="12" lengthAdjust="spacing" textLength="189.4805" x="999.6" y="63.4043">Left = ActiveInactive::INACTIVE</text></g><g><rect fill="#F1F1F1" height="64.2344" rx="12.5" ry="12.5" style="stroke:#181818;stroke-width:0.5;" width="218.082" x="658.1" y="148"/><line style="stroke:#181818;stroke-width:0.5;" x1="658.1" x2="876.182" y1="174.2969" y2="174.2969"/><text fill="#000000" font-family="sans-serif" font-size="14" lengthAdjust="spacing" textLength="132.8359" x="700.723" y="165.9951">NOT_CONTROLLED</text><text fill="#000000" font-family="sans-serif" font-size="12" lengthAdjust="spacing" textLength="189.4805" x="663.1" y="190.4355">Left = ActiveInactive::INACTIVE</text><text fill="#000000" font-family="sans-serif" font-size="12" lengthAdjust="spacing" textLength="198.082" x="663.1" y="204.4043">Right = ActiveInactive::INACTIVE</text></g><ellipse cx="756.1" cy="39" fill="#222222" rx="10" ry="10" style="stroke:#222222;stroke-width:1;"/><!--reverse link CONTROLLED_LEFT to *start*--><g class="link" data-entity-1="ent0002" data-entity-2="ent0002" data-link-type="dependency" data-source-line="2" id="lnk4"><path d="M522.57,39 C608.13,39 712.02,39 745.78,39" fill="none" id="CONTROLLED_LEFT-backto-*start*" style="stroke:#181818;stroke-width:1;"/><polygon fill="#181818" points="516.57,39,525.57,43,521.57,39,525.57,35,516.57,39" style="stroke:#181818;stroke-width:1;"/><text fill="#000000" font-family="sans-serif" font-size="13" lengthAdjust="spacing" textLength="182.8442" x="540.1" y="32.0669">[1] EndPositionLeftDetected</text></g><!--link *start* to CONTROLLED_RIGHT--><g class="link" data-entity-1="ent0002" data-entity-2="ent0003" data-link-type="dependency" data-source-line="3" id="lnk5"><path d="M766.37,39 C800.08,39 904.11,39 988.5,39" fill="none" id="*start*-to-CONTROLLED_RIGHT" style="stroke:#181818;stroke-width:1;"/><polygon fill="#181818" points="994.5,39,985.5,35,989.5,39,985.5,43,994.5,39" style="stroke:#181818;stroke-width:1;"/><text fill="#000000" font-family="sans-serif" font-size="13" lengthAdjust="spacing" textLength="192.1626" x="784.35" y="32.0669">[2] EndPositionRightDetected</text></g><!--link *start* to NOT_CONTROLLED--><g class="link" data-entity-1="ent0002" data-entity-2="ent0004" data-link-type="dependency" data-source-line="4" id="lnk6"><path d="M756.82,49.12 C758.38,68.81 761.6471,110.0987 764.1571,141.8487" fill="none" id="*start*-to-NOT_CONTROLLED" style="stroke:#181818;stroke-width:1;"/><polygon fill="#181818" points="764.63,147.83,767.9083,138.5428,764.236,142.8456,759.9332,139.1732,764.63,147.83" style="stroke:#181818;stroke-width:1;"/><text fill="#000000" font-family="sans-serif" font-size="13" lengthAdjust="spacing" textLength="18.4146" x="764.1" y="114.0669">[3]</text></g><!--reverse link CONTROLLED_LEFT to NOT_CONTROLLED--><g class="link" data-entity-1="ent0002" data-entity-2="ent0004" data-link-type="dependency" data-source-line="6" id="lnk8"><path d="M292.0992,47.3502 C171.8992,57.0002 6,77.65 43.1,118 C83.81,162.28 465.82,174.44 657.91,177.76" fill="none" id="CONTROLLED_LEFT-backto-NOT_CONTROLLED" style="stroke:#181818;stroke-width:1;"/><polygon fill="#181818" points="298.08,46.87,288.7888,43.6031,293.096,47.2701,289.429,51.5774,298.08,46.87" style="stroke:#181818;stroke-width:1;"/><text fill="#000000" font-family="sans-serif" font-size="13" lengthAdjust="spacing" textLength="319.3633" x="44.1" y="114.0669">[1] EndPositionLeftDetected &amp;&amp; CommandedLeft</text></g><!--link CONTROLLED_LEFT to NOT_CONTROLLED--><g class="link" data-entity-1="ent0002" data-entity-2="ent0004" data-link-type="dependency" data-source-line="9" id="lnk10"><path d="M409.97,71.18 C413.11,87.43 419.63,106.3 433.1,118 C466.21,146.74 567.639,162.0806 651.819,170.3906" fill="none" id="CONTROLLED_LEFT-to-NOT_CONTROLLED" style="stroke:#181818;stroke-width:1;"/><polygon fill="#181818" points="657.79,170.98,649.2265,166.1152,652.8142,170.4888,648.4406,174.0765,657.79,170.98" style="stroke:#181818;stroke-width:1;"/><text fill="#000000" font-family="sans-serif" font-size="13" lengthAdjust="spacing" textLength="318.2715" x="434.1" y="114.0669">[1] !EndPositionLeftDetected || !CommandedLeft</text></g><!--link NOT_CONTROLLED to CONTROLLED_RIGHT--><g class="link" data-entity-1="ent0004" data-entity-2="ent0003" data-link-type="dependency" data-source-line="7" id="lnk9"><path d="M876.47,177.7 C981.47,173.85 1129.41,160.73 1166.1,118 C1179.36,102.56 1172.1375,89.2313 1154.9275,74.9513" fill="none" id="NOT_CONTROLLED-to-CONTROLLED_RIGHT" style="stroke:#181818;stroke-width:1;"/><polygon fill="#181818" points="1150.31,71.12,1154.682,79.9453,1154.1579,74.3128,1159.7904,73.7887,1150.31,71.12" style="stroke:#181818;stroke-width:1;"/><text fill="#000000" font-family="sans-serif" font-size="13" lengthAdjust="spacing" textLength="338" x="1173.1" y="114.0669">[2] EndPositionRightDetected &amp;&amp; CommandedRight</text></g><!--link CONTROLLED_RIGHT to NOT_CONTROLLED--><g class="link" data-entity-1="ent0003" data-entity-2="ent0004" data-link-type="dependency" data-source-line="10" id="lnk11"><path d="M994.36,44.38 C938.62,51.05 871.23,66.42 820.1,101 C803.15,112.46 792.984,126.0631 784.084,142.3731" fill="none" id="CONTROLLED_RIGHT-to-NOT_CONTROLLED" style="stroke:#181818;stroke-width:1;"/><polygon fill="#181818" points="781.21,147.64,789.0323,141.6557,783.605,143.2509,782.0098,137.8237,781.21,147.64" style="stroke:#181818;stroke-width:1;"/><text fill="#000000" font-family="sans-serif" font-size="13" lengthAdjust="spacing" textLength="336.9082" x="821.1" y="114.0669">[1] !EndPositionRightDetected || !CommandedRight</text></g><?plantuml-src dP1F2u8m68Vl-nIl5m-1X-esA12r4aH3HXSH4RTga1DgTFB3voIAJQK_fy7Ut_DxdosRvU1Ss54wQ_2IcAH950L-4GKRWY6Rvn08kczkNF96H5tCPv9Lab6KAV3AJsU3JCFjJg4B3KrLK6SxB4v8yKOxQ9aZf5_-9GUs3LvJrwMWZAh1eFG_SQstdo1aU8s_grErfbpR5YnTrfJwgbCNrKh7JJ6ePR02jvBypa9HzYV6haV2Gp2CzpKZ-J0U4i_Fd48cWGcbrmhp5txDVtp30m00?></g></svg>