<?plantuml 1.2026.1?><svg xmlns="http://www.w3.org/2000/svg" xmlns:xlink="http://www.w3.org/1999/xlink" contentStyleType="text/css" data-diagram-type="STATE" height="286px" preserveAspectRatio="none" style="width:1069px;height:286px;background:#FFFFFF;" version="1.1" viewBox="0 0 1069 286" width="1069px" zoomAndPan="magnify"><defs/><g><g class="entity" data-qualified-name="c" id="ent0002"><polygon fill="#F1F1F1" points="458,116,470,128,458,140,446,128,458,116" style="stroke:#181818;stroke-width:0.5;"/></g><g><rect fill="#F1F1F1" height="50.2656" rx="12.5" ry="12.5" style="stroke:#181818;stroke-width:0.5;" width="207.5059" x="7" y="103"/><line style="stroke:#181818;stroke-width:0.5;" x1="7" x2="214.5059" y1="129.2969" y2="129.2969"/><text fill="#000000" font-family="sans-serif" font-size="14" lengthAdjust="spacing" textLength="73.3086" x="74.0986" y="120.9951">RELEASED</text><text fill="#000000" font-family="sans-serif" font-size="12" lengthAdjust="spacing" textLength="187.5059" x="12" y="145.4355">State = RouteState::RELEASED</text></g><g><rect fill="#F1F1F1" height="50.2656" rx="12.5" ry="12.5" style="stroke:#181818;stroke-width:0.5;" width="167.1992" x="374.5" y="230"/><line style="stroke:#181818;stroke-width:0.5;" x1="374.5" x2="541.6992" y1="256.2969" y2="256.2969"/><text fill="#000000" font-family="sans-serif" font-size="14" lengthAdjust="spacing" textLength="26.2842" x="444.9575" y="247.9951">SET</text><text fill="#000000" font-family="sans-serif" font-size="12" lengthAdjust="spacing" textLength="147.1992" x="379.5" y="272.4355">State = RouteState::SET</text></g><g><rect fill="#F1F1F1" height="50.2656" rx="12.5" ry="12.5" style="stroke:#181818;stroke-width:0.5;" width="213.4238" x="607.5" y="103"/><line style="stroke:#181818;stroke-width:0.5;" x1="607.5" x2="820.9238" y1="129.2969" y2="129.2969"/><text fill="#000000" font-family="sans-serif" font-size="14" lengthAdjust="spacing" textLength="80.2129" x="674.1055" y="120.9951">PREPARING</text><text fill="#000000" font-family="sans-serif" font-size="12" lengthAdjust="spacing" textLength="193.4238" x="612.5" y="145.4355">State = RouteState::PREPARING</text></g><ellipse cx="111" cy="16" fill="#222222" rx="10" ry="10" style="stroke:#222222;stroke-width:1;"/><!--link *start* to RELEASED--><g class="link" data-entity-1="ent0002" data-entity-2="ent0003" data-link-type="dependency" data-source-line="4" id="lnk3"><path d="M111,26 C111,42.63 111,72.66 111,96.87" fill="none" id="*start*-to-RELEASED" style="stroke:#181818;stroke-width:1;"/><polygon fill="#181818" points="111,102.87,115,93.87,111,97.87,107,93.87,111,102.87" style="stroke:#181818;stroke-width:1;"/><text fill="#000000" font-family="sans-serif" font-size="13" lengthAdjust="spacing" textLength="18.4146" x="112" y="69.0669">[1]</text></g><!--link RELEASED to c--><g class="link" data-entity-1="ent0003" data-entity-2="ent0002" data-link-type="dependency" data-source-line="5" id="lnk4"><path d="M215.11,128 C299.36,128 403.73,128 439.93,128" fill="none" id="RELEASED-to-c" style="stroke:#181818;stroke-width:1;"/><polygon fill="#181818" points="445.93,128,436.93,124,440.93,128,436.93,132,445.93,128" style="stroke:#181818;stroke-width:1;"/><text fill="#000000" font-family="sans-serif" font-size="13" lengthAdjust="spacing" textLength="130.5078" x="265.5" y="121.0669">[1] RouteRequested</text></g><!--link c to SET--><g class="link" data-entity-1="ent0002" data-entity-2="ent0004" data-link-type="dependency" data-source-line="6" id="lnk5"><path d="M457.09,139.58 C456,153.45 454.4,178.54 455,200 C455.27,209.76 455.4665,214.5104 456.0165,223.8304" fill="none" id="c-to-SET" style="stroke:#181818;stroke-width:1;"/><polygon fill="#181818" points="456.37,229.82,459.8329,220.6,456.0754,224.8287,451.8468,221.0713,456.37,229.82" style="stroke:#181818;stroke-width:1;"/><text fill="#000000" font-family="sans-serif" font-size="13" lengthAdjust="spacing" textLength="297.6035" x="456" y="196.0669">[1] PointsAvailable &amp;&amp; NoIncompatibleRoutes</text></g><!--link c to PREPARING--><g class="link" data-entity-1="ent0002" data-entity-2="ent0005" data-link-type="dependency" data-source-line="7" id="lnk6"><path d="M470,128 C494.77,128 547.7,128 601.45,128" fill="none" id="c-to-PREPARING" style="stroke:#181818;stroke-width:1;"/><polygon fill="#181818" points="607.45,128,598.45,124,602.45,128,598.45,132,607.45,128" style="stroke:#181818;stroke-width:1;"/><text fill="#000000" font-family="sans-serif" font-size="13" lengthAdjust="spacing" textLength="18.4146" x="529.75" y="121.0669">[2]</text></g><!--link PREPARING to SET--><g class="link" data-entity-1="ent0005" data-entity-2="ent0004" data-link-type="dependency" data-source-line="8" id="lnk7"><path d="M744.27,153.16 C758.56,167.45 770.09,185.54 758,200 C730.89,232.43 626.7771,245.0172 547.8271,250.1972" fill="none" id="PREPARING-to-SET" style="stroke:#181818;stroke-width:1;"/><polygon fill="#181818" points="541.84,250.59,551.0826,253.9922,546.8293,250.2626,550.5588,246.0093,541.84,250.59" style="stroke:#181818;stroke-width:1;"/><text fill="#000000" font-family="sans-serif" font-size="13" lengthAdjust="spacing" textLength="297.6035" x="764" y="196.0669">[1] PointsAvailable &amp;&amp; NoIncompatibleRoutes</text></g><!--link SET to RELEASED--><g class="link" data-entity-1="ent0004" data-entity-2="ent0003" data-link-type="dependency" data-source-line="9" id="lnk8"><path d="M374.47,254.47 C273.68,253.04 112.99,243.72 75,200 C63.03,186.23 69.0948,172.3523 81.5348,157.7123" fill="none" id="SET-to-RELEASED" style="stroke:#181818;stroke-width:1;"/><polygon fill="#181818" points="85.42,153.14,76.5441,157.4083,82.1824,156.9502,82.6404,162.5885,85.42,153.14" style="stroke:#181818;stroke-width:1;"/><text fill="#000000" font-family="sans-serif" font-size="13" lengthAdjust="spacing" textLength="370.062" x="76" y="196.0669">[1] AutomaticReleaseEffective || ManualReleaseEffective</text></g><?plantuml-src dP0n3u8m58Jt_eetEPWmw4YGXCJ6a2WXnSqmrFgG9a3LFfpyyK8LCOR9yVhTNNFFaYG41K6WIgCLXY5ZXtaEdXU2u5iUPNpjms6Hiq61TzFdaZgkm14GfYKKU6tH4fwOSk6CxzyuDReX6zsbhkInGfZD835neqnzaQIx5vUtVMveJWLF8n4dcxvYcRDH_rVT9xuNlUDHIwRkZ4fWXT8YBmfKfEy8ZmViPDFAwfSmDbubSxTRlVOxuVi3xR-STdHWt3Dj-M3s1000?></g></svg>