<?plantuml 1.2026.1?><svg xmlns="http://www.w3.org/2000/svg" xmlns:xlink="http://www.w3.org/1999/xlink" contentStyleType="text/css" data-diagram-type="STATE" height="988px" preserveAspectRatio="none" style="width:2747px;height:988px;background:#FFFFFF;" version="1.1" viewBox="0 0 2747 988" width="2747px" zoomAndPan="magnify"><defs/><g><path d="M19.5,7 L2598.5967,7 A12.5,12.5 0 0 1 2611.0967,19.5 L2611.0967,33.2969 L7,33.2969 L7,19.5 A12.5,12.5 0 0 1 19.5,7" fill="#F1F1F1"/><rect fill="none" height="806.4688" rx="12.5" ry="12.5" style="stroke:#181818;stroke-width:0.5;" width="2604.0967" x="7" y="7"/><line style="stroke:#181818;stroke-width:0.5;" x1="7" x2="2611.0967" y1="33.2969" y2="33.2969"/><text fill="#000000" font-family="sans-serif" font-size="14" lengthAdjust="spacing" textLength="190.374" x="1213.8613" y="24.9951">ETCS_APPROACH_LOCKING</text><g><rect fill="#F1F1F1" height="92.1719" rx="12.5" ry="12.5" style="stroke:#181818;stroke-width:0.5;" width="450.0254" x="484.5" y="117.2969"/><line style="stroke:#181818;stroke-width:0.5;" x1="484.5" x2="934.5254" y1="143.5938" y2="143.5938"/><text fill="#000000" font-family="sans-serif" font-size="14" lengthAdjust="spacing" textLength="81.6758" x="668.6748" y="135.292">ROUTE_SET</text><text fill="#000000" font-family="sans-serif" font-size="12" lengthAdjust="spacing" textLength="321.7969" x="489.5" y="159.7324">ManualReleaseRequested = ActiveInactive::INACTIVE</text><text fill="#000000" font-family="sans-serif" font-size="12" lengthAdjust="spacing" textLength="301.9453" x="489.5" y="173.7012">HoldApproachLocking = OpenCloseState::CLOSED</text><text fill="#000000" font-family="sans-serif" font-size="12" lengthAdjust="spacing" textLength="430.0254" x="489.5" y="187.6699">ManualReleaseWithholdMovementAuthority = ActiveInactive::INACTIVE</text><text fill="#000000" font-family="sans-serif" font-size="12" lengthAdjust="spacing" textLength="322.1426" x="489.5" y="201.6387">ManualReleasePrevention = ActiveInactive::INACTIVE</text></g><g><rect fill="#F1F1F1" height="92.1719" rx="12.5" ry="12.5" style="stroke:#181818;stroke-width:0.5;" width="450.0254" x="745.5" y="262.2969"/><line style="stroke:#181818;stroke-width:0.5;" x1="745.5" x2="1195.5254" y1="288.5938" y2="288.5938"/><text fill="#000000" font-family="sans-serif" font-size="14" lengthAdjust="spacing" textLength="162.627" x="889.1992" y="280.292">MARKER_BOARD_OPEN</text><text fill="#000000" font-family="sans-serif" font-size="12" lengthAdjust="spacing" textLength="321.7969" x="750.5" y="304.7324">ManualReleaseRequested = ActiveInactive::INACTIVE</text><text fill="#000000" font-family="sans-serif" font-size="12" lengthAdjust="spacing" textLength="286.2363" x="750.5" y="318.7012">HoldApproachLocking = OpenCloseState::OPEN</text><text fill="#000000" font-family="sans-serif" font-size="12" lengthAdjust="spacing" textLength="430.0254" x="750.5" y="332.6699">ManualReleaseWithholdMovementAuthority = ActiveInactive::INACTIVE</text><text fill="#000000" font-family="sans-serif" font-size="12" lengthAdjust="spacing" textLength="322.1426" x="750.5" y="346.6387">ManualReleasePrevention = ActiveInactive::INACTIVE</text></g><g><rect fill="#F1F1F1" height="106.1406" rx="12.5" ry="12.5" style="stroke:#181818;stroke-width:0.5;" width="437.5098" x="326.5" y="407.2969"/><line style="stroke:#181818;stroke-width:0.5;" x1="326.5" x2="764.0098" y1="433.5938" y2="433.5938"/><text fill="#000000" font-family="sans-serif" font-size="14" lengthAdjust="spacing" textLength="105.834" x="492.3379" y="425.292">WITHHOLD_MA</text><text fill="#000000" font-family="sans-serif" font-size="12" lengthAdjust="spacing" textLength="321.7969" x="331.5" y="449.7324">ManualReleaseRequested = ActiveInactive::INACTIVE</text><text fill="#000000" font-family="sans-serif" font-size="12" lengthAdjust="spacing" textLength="286.2363" x="331.5" y="463.7012">HoldApproachLocking = OpenCloseState::OPEN</text><text fill="#000000" font-family="sans-serif" font-size="12" lengthAdjust="spacing" textLength="417.5098" x="331.5" y="477.6699">ManualReleaseWithholdMovementAuthority = ActiveInactive::ACTIVE</text><text fill="#000000" font-family="sans-serif" font-size="12" lengthAdjust="spacing" textLength="322.1426" x="331.5" y="491.6387">ManualReleasePrevention = ActiveInactive::INACTIVE</text><text fill="#000000" font-family="sans-serif" font-size="12" lengthAdjust="spacing" textLength="244.2715" x="331.5" y="505.6074">StartWithholdMovementAuthority = now</text></g><g><rect fill="#F1F1F1" height="92.1719" rx="12.5" ry="12.5" style="stroke:#181818;stroke-width:0.5;" width="450.0254" x="1074.5" y="414.2969"/><line style="stroke:#181818;stroke-width:0.5;" x1="1074.5" x2="1524.5254" y1="440.5938" y2="440.5938"/><text fill="#000000" font-family="sans-serif" font-size="14" lengthAdjust="spacing" textLength="151.9971" x="1223.5142" y="432.292">TRAIN_APPROACHING</text><text fill="#000000" font-family="sans-serif" font-size="12" lengthAdjust="spacing" textLength="321.7969" x="1079.5" y="456.7324">ManualReleaseRequested = ActiveInactive::INACTIVE</text><text fill="#000000" font-family="sans-serif" font-size="12" lengthAdjust="spacing" textLength="286.2363" x="1079.5" y="470.7012">HoldApproachLocking = OpenCloseState::OPEN</text><text fill="#000000" font-family="sans-serif" font-size="12" lengthAdjust="spacing" textLength="430.0254" x="1079.5" y="484.6699">ManualReleaseWithholdMovementAuthority = ActiveInactive::INACTIVE</text><text fill="#000000" font-family="sans-serif" font-size="12" lengthAdjust="spacing" textLength="309.627" x="1079.5" y="498.6387">ManualReleasePrevention = ActiveInactive::ACTIVE</text></g><g><rect fill="#F1F1F1" height="92.1719" rx="12.5" ry="12.5" style="stroke:#181818;stroke-width:0.5;" width="450.0254" x="877.5" y="566.2969"/><line style="stroke:#181818;stroke-width:0.5;" x1="877.5" x2="1327.5254" y1="592.5938" y2="592.5938"/><text fill="#000000" font-family="sans-serif" font-size="14" lengthAdjust="spacing" textLength="119.5605" x="1042.7324" y="584.292">APPROACH_FREE</text><text fill="#000000" font-family="sans-serif" font-size="12" lengthAdjust="spacing" textLength="321.7969" x="882.5" y="608.7324">ManualReleaseRequested = ActiveInactive::INACTIVE</text><text fill="#000000" font-family="sans-serif" font-size="12" lengthAdjust="spacing" textLength="301.9453" x="882.5" y="622.7012">HoldApproachLocking = OpenCloseState::CLOSED</text><text fill="#000000" font-family="sans-serif" font-size="12" lengthAdjust="spacing" textLength="430.0254" x="882.5" y="636.6699">ManualReleaseWithholdMovementAuthority = ActiveInactive::INACTIVE</text><text fill="#000000" font-family="sans-serif" font-size="12" lengthAdjust="spacing" textLength="309.627" x="882.5" y="650.6387">ManualReleasePrevention = ActiveInactive::ACTIVE</text></g><g><rect fill="#F1F1F1" height="106.1406" rx="12.5" ry="12.5" style="stroke:#181818;stroke-width:0.5;" width="450.0254" x="1561.5" y="407.2969"/><line style="stroke:#181818;stroke-width:0.5;" x1="1561.5" x2="2011.5254" y1="433.5938" y2="433.5938"/><text fill="#000000" font-family="sans-serif" font-size="14" lengthAdjust="spacing" textLength="198.9258" x="1687.0498" y="425.292">TRAIN_APPROACHING_ZONE</text><text fill="#000000" font-family="sans-serif" font-size="12" lengthAdjust="spacing" textLength="321.7969" x="1566.5" y="449.7324">ManualReleaseRequested = ActiveInactive::INACTIVE</text><text fill="#000000" font-family="sans-serif" font-size="12" lengthAdjust="spacing" textLength="286.2363" x="1566.5" y="463.7012">HoldApproachLocking = OpenCloseState::OPEN</text><text fill="#000000" font-family="sans-serif" font-size="12" lengthAdjust="spacing" textLength="430.0254" x="1566.5" y="477.6699">ManualReleaseWithholdMovementAuthority = ActiveInactive::INACTIVE</text><text fill="#000000" font-family="sans-serif" font-size="12" lengthAdjust="spacing" textLength="322.1426" x="1566.5" y="491.6387">ManualReleasePrevention = ActiveInactive::INACTIVE</text><text fill="#000000" font-family="sans-serif" font-size="12" lengthAdjust="spacing" textLength="241.459" x="1566.5" y="505.6074">StartUnsupervisedTrainApproach = now</text></g><g><rect fill="#F1F1F1" height="92.1719" rx="12.5" ry="12.5" style="stroke:#181818;stroke-width:0.5;" width="450.0254" x="1561.5" y="566.2969"/><line style="stroke:#181818;stroke-width:0.5;" x1="1561.5" x2="2011.5254" y1="592.5938" y2="592.5938"/><text fill="#000000" font-family="sans-serif" font-size="14" lengthAdjust="spacing" textLength="194.4414" x="1689.292" y="584.292">APPROACH_ZONE_TIMEOUT</text><text fill="#000000" font-family="sans-serif" font-size="12" lengthAdjust="spacing" textLength="321.7969" x="1566.5" y="608.7324">ManualReleaseRequested = ActiveInactive::INACTIVE</text><text fill="#000000" font-family="sans-serif" font-size="12" lengthAdjust="spacing" textLength="286.2363" x="1566.5" y="622.7012">HoldApproachLocking = OpenCloseState::OPEN</text><text fill="#000000" font-family="sans-serif" font-size="12" lengthAdjust="spacing" textLength="430.0254" x="1566.5" y="636.6699">ManualReleaseWithholdMovementAuthority = ActiveInactive::INACTIVE</text><text fill="#000000" font-family="sans-serif" font-size="12" lengthAdjust="spacing" textLength="322.1426" x="1566.5" y="650.6387">ManualReleasePrevention = ActiveInactive::INACTIVE</text></g><g><rect fill="#F1F1F1" height="92.1719" rx="12.5" ry="12.5" style="stroke:#181818;stroke-width:0.5;" width="450.0254" x="336.5" y="711.2969"/><line style="stroke:#181818;stroke-width:0.5;" x1="336.5" x2="786.5254" y1="737.5938" y2="737.5938"/><text fill="#000000" font-family="sans-serif" font-size="14" lengthAdjust="spacing" textLength="186.7373" x="468.144" y="729.292">MANUAL_RELEASE_ACTIVE</text><text fill="#000000" font-family="sans-serif" font-size="12" lengthAdjust="spacing" textLength="309.2813" x="341.5" y="753.7324">ManualReleaseRequested = ActiveInactive::ACTIVE</text><text fill="#000000" font-family="sans-serif" font-size="12" lengthAdjust="spacing" textLength="301.9453" x="341.5" y="767.7012">HoldApproachLocking = OpenCloseState::CLOSED</text><text fill="#000000" font-family="sans-serif" font-size="12" lengthAdjust="spacing" textLength="430.0254" x="341.5" y="781.6699">ManualReleaseWithholdMovementAuthority = ActiveInactive::INACTIVE</text><text fill="#000000" font-family="sans-serif" font-size="12" lengthAdjust="spacing" textLength="322.1426" x="341.5" y="795.6387">ManualReleasePrevention = ActiveInactive::INACTIVE</text></g><ellipse cx="839.5" cy="54.2969" fill="#222222" rx="10" ry="10" style="stroke:#222222;stroke-width:1;"/><!--link *start*ETCS_APPROACH_LOCKING to MARKER_BOARD_OPEN--><g class="link" data-entity-1="ent0006" data-entity-2="ent0004" data-link-type="dependency" data-source-line="8" id="lnk7"><path d="M848.91,57.8769 C869.83,64.1469 920.21,82.2969 943.5,117.2969 C972.11,160.2869 976.1742,214.8804 974.7742,255.9904" fill="none" id="*start*ETCS_APPROACH_LOCKING-to-MARKER_BOARD_OPEN" style="stroke:#181818;stroke-width:1;"/><polygon fill="#181818" points="974.57,261.9869,978.874,253.1282,974.7402,256.9898,970.8786,252.8559,974.57,261.9869" style="stroke:#181818;stroke-width:1;"/><text fill="#000000" font-family="sans-serif" font-size="13" lengthAdjust="spacing" textLength="117.5967" x="973.5" y="167.8638">[1] RouteIsLocked</text></g><!--link *start*ETCS_APPROACH_LOCKING to ROUTE_SET--><g class="link" data-entity-1="ent0006" data-entity-2="ent0003" data-link-type="dependency" data-source-line="9" id="lnk8"><path d="M832.14,61.3569 C819.03,72.1469 795.2036,91.765 768.9836,113.335" fill="none" id="*start*ETCS_APPROACH_LOCKING-to-ROUTE_SET" style="stroke:#181818;stroke-width:1;"/><polygon fill="#181818" points="764.35,117.1469,773.8416,114.5182,768.2113,113.9704,768.7591,108.3401,764.35,117.1469" style="stroke:#181818;stroke-width:1;"/><text fill="#000000" font-family="sans-serif" font-size="13" lengthAdjust="spacing" textLength="18.4146" x="805.5" y="95.3638">[2]</text></g><!--link ROUTE_SET to MARKER_BOARD_OPEN--><g class="link" data-entity-1="ent0003" data-entity-2="ent0004" data-link-type="dependency" data-source-line="11" id="lnk9"><path d="M778.38,209.3869 C797.28,221.1969 817.96,233.6069 837.5,244.2969 C848.48,250.3069 854.7679,253.6447 866.4279,259.4447" fill="none" id="ROUTE_SET-to-MARKER_BOARD_OPEN" style="stroke:#181818;stroke-width:1;"/><polygon fill="#181818" points="871.8,262.1169,865.5234,254.5272,867.3233,259.89,861.9604,261.6899,871.8,262.1169" style="stroke:#181818;stroke-width:1;"/><text fill="#000000" font-family="sans-serif" font-size="13" lengthAdjust="spacing" textLength="117.5967" x="838.5" y="240.3638">[1] RouteIsLocked</text></g><!--link ROUTE_SET to MANUAL_RELEASE_ACTIVE--><g class="link" data-entity-1="ent0003" data-entity-2="ent0010" data-link-type="dependency" data-source-line="12" id="lnk10"><path d="M484.23,171.9669 C297.14,184.6969 61.5,218.3669 61.5,307.2969 C61.5,307.2969 61.5,307.2969 61.5,613.2969 C61.5,674.9169 197.7217,710.5518 330.4417,731.2618" fill="none" id="ROUTE_SET-to-MANUAL_RELEASE_ACTIVE" style="stroke:#181818;stroke-width:1;"/><polygon fill="#181818" points="336.37,732.1869,328.0943,726.8471,331.4298,731.416,326.8609,734.7515,336.37,732.1869" style="stroke:#181818;stroke-width:1;"/><text fill="#000000" font-family="sans-serif" font-size="13" lengthAdjust="spacing" textLength="179.061" x="62.5" y="464.8638">[2] CommandReleaseRoute</text></g><!--link MARKER_BOARD_OPEN to WITHHOLD_MA--><g class="link" data-entity-1="ent0004" data-entity-2="ent0005" data-link-type="dependency" data-source-line="14" id="lnk11"><path d="M745.48,309.9269 C500.94,313.0169 139,325.5569 95.5,372.2969 C58.28,412.2869 18,373.8369 246.5,407.2969 C272.44,411.0969 293.66,414.4001 320.57,418.8401" fill="none" id="MARKER_BOARD_OPEN-to-WITHHOLD_MA" style="stroke:#181818;stroke-width:1;"/><polygon fill="#181818" points="326.49,419.8169,318.2612,414.4051,321.5567,419.0029,316.9589,422.2984,326.49,419.8169" style="stroke:#181818;stroke-width:1;"/><text fill="#000000" font-family="sans-serif" font-size="13" lengthAdjust="spacing" textLength="504.3086" x="96.5" y="385.3638">[1] !ApproachTaken &amp;&amp; !ApproachZoneOccupied &amp;&amp; CommandReleaseRoute</text></g><!--link MARKER_BOARD_OPEN to TRAIN_APPROACHING--><g class="link" data-entity-1="ent0004" data-entity-2="ent0006" data-link-type="dependency" data-source-line="15" id="lnk12"><path d="M1088.44,354.3869 C1100.48,360.0169 1112.37,366.0169 1123.5,372.2969 C1134.57,378.5369 1135.55,382.8369 1146.5,389.2969 C1161.35,398.0469 1172.0742,403.863 1188.1142,411.663" fill="none" id="MARKER_BOARD_OPEN-to-TRAIN_APPROACHING" style="stroke:#181818;stroke-width:1;"/><polygon fill="#181818" points="1193.51,414.2869,1187.1655,406.7538,1189.0135,412.1003,1183.667,413.9482,1193.51,414.2869" style="stroke:#181818;stroke-width:1;"/><text fill="#000000" font-family="sans-serif" font-size="13" lengthAdjust="spacing" textLength="460.4463" x="1147.5" y="385.3638">[2] ApproachTaken &amp;&amp; ManualSignalClose &amp;&amp; CommandReleaseRoute</text></g><!--link MARKER_BOARD_OPEN to TRAIN_APPROACHING_ZONE--><g class="link" data-entity-1="ent0004" data-entity-2="ent0008" data-link-type="dependency" data-source-line="16" id="lnk13"><path d="M1195.51,311.6369 C1421.97,316.3569 1743.41,330.4469 1783.5,372.2969 C1792.39,381.5769 1795.4805,388.2809 1795.9505,401.1209" fill="none" id="MARKER_BOARD_OPEN-to-TRAIN_APPROACHING_ZONE" style="stroke:#181818;stroke-width:1;"/><polygon fill="#181818" points="1796.17,407.1169,1799.8381,397.9766,1795.9871,402.1202,1791.8435,398.2692,1796.17,407.1169" style="stroke:#181818;stroke-width:1;"/><text fill="#000000" font-family="sans-serif" font-size="13" lengthAdjust="spacing" textLength="650.2222" x="1793.5" y="385.3638">[3] !ApproachTaken &amp;&amp; ApproachZoneOccupied &amp;&amp; ManualSignalClose &amp;&amp; CommandReleaseRoute</text></g><!--link WITHHOLD_MA to MARKER_BOARD_OPEN--><g class="link" data-entity-1="ent0005" data-entity-2="ent0004" data-link-type="dependency" data-source-line="18" id="lnk14"><path d="M587.82,407.2669 C601.58,391.6069 615.58,377.2469 624.5,372.2969 C661.33,351.8469 697.6002,339.1811 739.4702,329.6311" fill="none" id="WITHHOLD_MA-to-MARKER_BOARD_OPEN" style="stroke:#181818;stroke-width:1;"/><polygon fill="#181818" points="745.32,328.2969,735.6558,326.3984,740.4452,329.4088,737.4349,334.1981,745.32,328.2969" style="stroke:#181818;stroke-width:1;"/><text fill="#000000" font-family="sans-serif" font-size="13" lengthAdjust="spacing" textLength="297.3179" x="625.5" y="385.3638">[1] ApproachTaken || ApproachZoneOccupied</text></g><!--link WITHHOLD_MA to MANUAL_RELEASE_ACTIVE--><g class="link" data-entity-1="ent0005" data-entity-2="ent0010" data-link-type="dependency" data-source-line="19" id="lnk15"><path d="M547.52,513.5769 C549.15,553.2869 551.63,609.2469 554.5,658.2969 C555.51,675.4969 556.3728,688.3928 557.5828,704.9528" fill="none" id="WITHHOLD_MA-to-MANUAL_RELEASE_ACTIVE" style="stroke:#181818;stroke-width:1;"/><polygon fill="#181818" points="558.02,710.9369,561.3535,701.6693,557.6556,705.9502,553.3748,702.2523,558.02,710.9369" style="stroke:#181818;stroke-width:1;"/><text fill="#000000" font-family="sans-serif" font-size="13" lengthAdjust="spacing" textLength="312.3047" x="555.5" y="616.8638">[2] TimeoutWithholdMovementAuthorityExpired</text></g><!--link TRAIN_APPROACHING to MARKER_BOARD_OPEN--><g class="link" data-entity-1="ent0006" data-entity-2="ent0004" data-link-type="dependency" data-source-line="21" id="lnk16"><path d="M1093.91,414.2469 C1082.61,411.8669 1071.42,409.5369 1060.5,407.2969 C1039.88,403.0569 980.9,405.5369 967.5,389.2969 C959.54,379.6469 957.1853,372.8858 957.9453,360.4058" fill="none" id="TRAIN_APPROACHING-to-MARKER_BOARD_OPEN" style="stroke:#181818;stroke-width:1;"/><polygon fill="#181818" points="958.31,354.4169,953.7703,363.1571,958.0061,359.4076,961.7555,363.6434,958.31,354.4169" style="stroke:#181818;stroke-width:1;"/><text fill="#000000" font-family="sans-serif" font-size="13" lengthAdjust="spacing" textLength="150.3442" x="968.5" y="385.3638">[1] !ManualSignalClose</text></g><!--link TRAIN_APPROACHING to APPROACH_FREE--><g class="link" data-entity-1="ent0006" data-entity-2="ent0007" data-link-type="dependency" data-source-line="22" id="lnk17"><path d="M1240.39,506.2969 C1215.57,525.1969 1191.5336,543.5019 1166.6736,562.4319" fill="none" id="TRAIN_APPROACHING-to-APPROACH_FREE" style="stroke:#181818;stroke-width:1;"/><polygon fill="#181818" points="1161.9,566.0669,1171.4837,563.7969,1165.878,563.0378,1166.6371,557.4321,1161.9,566.0669" style="stroke:#181818;stroke-width:1;"/><text fill="#000000" font-family="sans-serif" font-size="13" lengthAdjust="spacing" textLength="129.4795" x="1207.5" y="544.3638">[2] !ApproachTaken</text></g><!--link APPROACH_FREE to MARKER_BOARD_OPEN--><g class="link" data-entity-1="ent0007" data-entity-2="ent0004" data-link-type="dependency" data-source-line="24" id="lnk18"><path d="M997.82,566.1769 C977.27,552.3069 958.41,534.8469 946.5,513.2969 C919.24,463.9869 932.708,403.4714 948.598,360.0514" fill="none" id="APPROACH_FREE-to-MARKER_BOARD_OPEN" style="stroke:#181818;stroke-width:1;"/><polygon fill="#181818" points="950.66,354.4169,943.8106,361.494,948.9417,359.1123,951.3233,364.2434,950.66,354.4169" style="stroke:#181818;stroke-width:1;"/><text fill="#000000" font-family="sans-serif" font-size="13" lengthAdjust="spacing" textLength="117.5967" x="947.5" y="464.8638">[1] RouteIsLocked</text></g><!--link APPROACH_FREE to MANUAL_RELEASE_ACTIVE--><g class="link" data-entity-1="ent0007" data-entity-2="ent0010" data-link-type="dependency" data-source-line="25" id="lnk19"><path d="M932.07,658.3469 C868.26,675.2069 801.6207,692.8233 737.8107,709.6933" fill="none" id="APPROACH_FREE-to-MANUAL_RELEASE_ACTIVE" style="stroke:#181818;stroke-width:1;"/><polygon fill="#181818" points="732.01,711.2269,741.7334,712.7936,736.8439,709.9489,739.6887,705.0594,732.01,711.2269" style="stroke:#181818;stroke-width:1;"/><text fill="#000000" font-family="sans-serif" font-size="13" lengthAdjust="spacing" textLength="314.5327" x="848.5" y="689.3638">[2] !ApproachTaken &amp;&amp; CommandReleaseRoute</text></g><!--link TRAIN_APPROACHING_ZONE to MARKER_BOARD_OPEN--><g class="link" data-entity-1="ent0008" data-entity-2="ent0004" data-link-type="dependency" data-source-line="27" id="lnk20"><path d="M1658.35,407.1869 C1647.68,401.5669 1637.26,395.5869 1627.5,389.2969 C1617.97,383.1569 1618.87,376.8569 1608.5,372.2969 C1536.35,340.5769 1354.7521,324.9851 1201.5421,317.1051" fill="none" id="TRAIN_APPROACHING_ZONE-to-MARKER_BOARD_OPEN" style="stroke:#181818;stroke-width:1;"/><polygon fill="#181818" points="1195.55,316.7969,1204.3327,321.2539,1200.5434,317.0537,1204.7436,313.2644,1195.55,316.7969" style="stroke:#181818;stroke-width:1;"/><text fill="#000000" font-family="sans-serif" font-size="13" lengthAdjust="spacing" textLength="150.3442" x="1628.5" y="385.3638">[1] !ManualSignalClose</text></g><!--link TRAIN_APPROACHING_ZONE to APPROACH_ZONE_TIMEOUT--><g class="link" data-entity-1="ent0008" data-entity-2="ent0009" data-link-type="dependency" data-source-line="28" id="lnk21"><path d="M1786.5,513.3369 C1786.5,530.4269 1786.5,543.2869 1786.5,559.8469" fill="none" id="TRAIN_APPROACHING_ZONE-to-APPROACH_ZONE_TIMEOUT" style="stroke:#181818;stroke-width:1;"/><polygon fill="#181818" points="1786.5,565.8469,1790.5,556.8469,1786.5,560.8469,1782.5,556.8469,1786.5,565.8469" style="stroke:#181818;stroke-width:1;"/><text fill="#000000" font-family="sans-serif" font-size="13" lengthAdjust="spacing" textLength="309.2578" x="1787.5" y="544.3638">[2] TimeoutUnsupervisedTrainApproachExpired</text></g><!--link APPROACH_ZONE_TIMEOUT to MARKER_BOARD_OPEN--><g class="link" data-entity-1="ent0009" data-entity-2="ent0004" data-link-type="dependency" data-source-line="30" id="lnk22"><path d="M2011.52,599.0669 C2255.37,578.0869 2591.75,521.7769 2448.5,372.2969 C2405.94,327.8769 1604.9597,314.714 1201.7997,310.874" fill="none" id="APPROACH_ZONE_TIMEOUT-to-MARKER_BOARD_OPEN" style="stroke:#181818;stroke-width:1;"/><polygon fill="#181818" points="1195.8,310.8169,1204.7615,314.9024,1200.7998,310.8645,1204.8377,306.9028,1195.8,310.8169" style="stroke:#181818;stroke-width:1;"/><text fill="#000000" font-family="sans-serif" font-size="13" lengthAdjust="spacing" textLength="117.5967" x="2483.5" y="464.8638">[1] RouteIsLocked</text></g><!--link APPROACH_ZONE_TIMEOUT to MANUAL_RELEASE_ACTIVE--><g class="link" data-entity-1="ent0009" data-entity-2="ent0010" data-link-type="dependency" data-source-line="31" id="lnk23"><path d="M1561.37,643.7669 C1444.04,659.2969 1298.14,678.0669 1167.5,693.2969 C1041.69,707.9669 906.9497,722.0944 792.8097,733.6144" fill="none" id="APPROACH_ZONE_TIMEOUT-to-MANUAL_RELEASE_ACTIVE" style="stroke:#181818;stroke-width:1;"/><polygon fill="#181818" points="786.84,734.2169,796.1962,737.2929,791.8147,733.7148,795.3928,729.3333,786.84,734.2169" style="stroke:#181818;stroke-width:1;"/><text fill="#000000" font-family="sans-serif" font-size="13" lengthAdjust="spacing" textLength="179.061" x="1303.5" y="689.3638">[2] CommandReleaseRoute</text></g><g><rect fill="#F1F1F1" height="92.1719" rx="12.5" ry="12.5" style="stroke:#181818;stroke-width:0.5;" width="450.0254" x="1224" y="890"/><line style="stroke:#181818;stroke-width:0.5;" x1="1224" x2="1674.0254" y1="916.2969" y2="916.2969"/><text fill="#000000" font-family="sans-serif" font-size="14" lengthAdjust="spacing" textLength="128.7002" x="1384.6626" y="907.9951">ROUTE_RELEASED</text><text fill="#000000" font-family="sans-serif" font-size="12" lengthAdjust="spacing" textLength="321.7969" x="1229" y="932.4355">ManualReleaseRequested = ActiveInactive::INACTIVE</text><text fill="#000000" font-family="sans-serif" font-size="12" lengthAdjust="spacing" textLength="301.9453" x="1229" y="946.4043">HoldApproachLocking = OpenCloseState::CLOSED</text><text fill="#000000" font-family="sans-serif" font-size="12" lengthAdjust="spacing" textLength="430.0254" x="1229" y="960.373">ManualReleaseWithholdMovementAuthority = ActiveInactive::INACTIVE</text><text fill="#000000" font-family="sans-serif" font-size="12" lengthAdjust="spacing" textLength="322.1426" x="1229" y="974.3418">ManualReleasePrevention = ActiveInactive::INACTIVE</text></g><ellipse cx="2656" cy="410" fill="#222222" rx="10" ry="10" style="stroke:#222222;stroke-width:1;"/><!--link *start* to ROUTE_RELEASED--><g class="link" data-entity-1="ent0002" data-entity-2="ent0011" data-link-type="dependency" data-source-line="2" id="lnk3"><path d="M2658.87,419.62 C2674.06,467.01 2740.21,697.72 2629,813 C2564.12,880.26 2004.0947,913.2176 1680.1447,926.8576" fill="none" id="*start*-to-ROUTE_RELEASED" style="stroke:#181818;stroke-width:1;"/><polygon fill="#181818" points="1674.15,927.11,1683.3103,930.7278,1679.1456,926.8997,1682.9738,922.7349,1674.15,927.11" style="stroke:#181818;stroke-width:1;"/><text fill="#000000" font-family="sans-serif" font-size="13" lengthAdjust="spacing" textLength="18.4146" x="2557" y="856.0669">[1]</text></g><!--link ROUTE_RELEASED to ETCS_APPROACH_LOCKING--><g class="link" data-entity-1="ent0011" data-entity-2="ent0002" data-link-type="dependency" data-source-line="4" id="lnk4"><path d="M1436.91,889.74 C1431.43,869.23 1425.939,848.6866 1417.989,818.9366" fill="none" id="ROUTE_RELEASED-to-ETCS_APPROACH_LOCKING" style="stroke:#181818;stroke-width:1;"/><polygon fill="#181818" points="1416.44,813.14,1414.8991,822.8676,1417.7308,817.9705,1422.6279,820.8022,1416.44,813.14" style="stroke:#181818;stroke-width:1;"/><text fill="#000000" font-family="sans-serif" font-size="13" lengthAdjust="spacing" textLength="92.8218" x="1430" y="856.0669">[1] RouteIsSet</text></g><!--link ETCS_APPROACH_LOCKING to ROUTE_RELEASED--><g class="link" data-entity-1="ent0002" data-entity-2="ent0011" data-link-type="dependency" data-source-line="5" id="lnk5"><path d="M1295.67,813.1 C1301.77,829.36 1309.15,845.08 1318,860 C1324.82,871.49 1329.4465,877.6272 1339.9665,886.0972" fill="none" id="ETCS_APPROACH_LOCKING-to-ROUTE_RELEASED" style="stroke:#181818;stroke-width:1;"/><polygon fill="#181818" points="1344.64,889.86,1340.1383,881.1002,1340.7454,886.7244,1335.1212,887.3315,1344.64,889.86" style="stroke:#181818;stroke-width:1;"/><text fill="#000000" font-family="sans-serif" font-size="13" lengthAdjust="spacing" textLength="98.0332" x="1319" y="856.0669">[1] !RouteIsSet</text></g><?plantuml-src hPTTRvim58RlyoleJIyczMBRNQHDyeYte1A8WBHIemgXn6gi9ZRZ8zkqxh_FG99Yi1ti93UHZFsSr-yvnuRbXsVhxkwh5VYB2CO1T248uMHiBJy-ZqRyO3qFHdOOW_ayy84zZLtVldUy7_LqAw1bWPmyHCL8E4iMnxffhHpbHL8WSHZhxyXYl-L1yWm4zp28l_aWcCJ-77gS39UkNj6QMz343c749dvYswkUdSRqaDrbtWAunrt5m8wS1rW7iMowsoLa7Q0jId9KWvh0lL0rwT69fbFVdSGpSF06f6b6azKcIbuHiMvltqUUA47-QbMc6Ash1w9GyaXH01plP76JHAQt5swMa3BPXlY595jxItDqXL3na-zL_dmMxK-slS52QYKj8rMPvQE_lGcZIu3Id4TuXvYIHrniDdIxdj4zsY5IWBBOq0mNV-3l56SCMtDxvgZatlHCK31ExVCzW0TblDkD06wQNXU8bafTwMTQcZnnmLp3c7VGINir4aVE3BAMvlAt87cPecoFSxIEiWIJumQu_0avXZOA4Fe7I-kKQqmvJa4_IvGNh9c-M61Lu3roI5B_ZyUErw2xW2aht-EkAy6OlB3LVef8xN5OdTNZiUtwx2nN1fVsWeOO3ZZFq9vnC2KgWlXGCZL601fcK3Lta1HZcyw1DUpYhY0pepY4faNoy3hcoCGOcD9ZCCLPeH93w2_9EMPgg02aQUivASQLTmwiDBbTTvthoioe3aJx_5A9CBP81HriZ-mbwae5TQ1TMbKYKTShBH5zU1FBS7K_Io_xTZzBtXakB5KUffc18P8kBrm5NEiY5hxD3BQFk--4AEr-7oBfWalvF7oOVV-wt-8cHTSbQ9cb36_aa98up9R_?></g></svg>