<?plantuml 1.2026.1?><svg xmlns="http://www.w3.org/2000/svg" xmlns:xlink="http://www.w3.org/1999/xlink" contentStyleType="text/css" data-diagram-type="STATE" height="159px" preserveAspectRatio="none" style="width:612px;height:159px;background:#FFFFFF;" version="1.1" viewBox="0 0 612 159" width="612px" zoomAndPan="magnify"><defs/><g><g><rect fill="#F1F1F1" height="50.2656" rx="12.5" ry="12.5" style="stroke:#181818;stroke-width:0.5;" width="222.9863" x="7" y="103"/><line style="stroke:#181818;stroke-width:0.5;" x1="7" x2="229.9863" y1="129.2969" y2="129.2969"/><text fill="#000000" font-family="sans-serif" font-size="14" lengthAdjust="spacing" textLength="57.1074" x="89.9395" y="120.9951">CLOSED</text><text fill="#000000" font-family="sans-serif" font-size="12" lengthAdjust="spacing" textLength="202.9863" x="12" y="145.4355">State = OpenCloseState::CLOSED</text></g><g><rect fill="#F1F1F1" height="50.2656" rx="12.5" ry="12.5" style="stroke:#181818;stroke-width:0.5;" width="207.2773" x="398" y="103"/><line style="stroke:#181818;stroke-width:0.5;" x1="398" x2="605.2773" y1="129.2969" y2="129.2969"/><text fill="#000000" font-family="sans-serif" font-size="14" lengthAdjust="spacing" textLength="38.7803" x="482.2485" y="120.9951">OPEN</text><text fill="#000000" font-family="sans-serif" font-size="12" lengthAdjust="spacing" textLength="187.2773" x="403" y="145.4355">State = OpenCloseState::OPEN</text></g><ellipse cx="118.5" cy="16" fill="#222222" rx="10" ry="10" style="stroke:#222222;stroke-width:1;"/><!--link *start* to CLOSED--><g class="link" data-entity-1="ent0002" data-entity-2="ent0002" data-link-type="dependency" data-source-line="2" id="lnk3"><path d="M118.5,26 C118.5,42.63 118.5,72.66 118.5,96.87" fill="none" id="*start*-to-CLOSED" style="stroke:#181818;stroke-width:1;"/><polygon fill="#181818" points="118.5,102.87,122.5,93.87,118.5,97.87,114.5,93.87,118.5,102.87" style="stroke:#181818;stroke-width:1;"/><text fill="#000000" font-family="sans-serif" font-size="13" lengthAdjust="spacing" textLength="18.4146" x="119.5" y="69.0669">[1]</text></g><!--link CLOSED to OPEN--><g class="link" data-entity-1="ent0002" data-entity-2="ent0003" data-link-type="dependency" data-source-line="3" id="lnk4"><path d="M230.28,146.17 C236.94,146.89 243.55,147.51 250,148 C306.73,152.29 321.29,152.56 378,148 C384.5,147.48 385.2,147.4918 391.92,146.7118" fill="none" id="CLOSED-to-OPEN" style="stroke:#181818;stroke-width:1;"/><polygon fill="#181818" points="397.88,146.02,388.4788,143.0844,392.9133,146.5965,389.4012,151.031,397.88,146.02" style="stroke:#181818;stroke-width:1;"/><text fill="#000000" font-family="sans-serif" font-size="13" lengthAdjust="spacing" textLength="126.5342" x="251" y="144.0669">[1] RouteMonitored</text></g><!--reverse link CLOSED to OPEN--><g class="link" data-entity-1="ent0002" data-entity-2="ent0003" data-link-type="dependency" data-source-line="4" id="lnk6"><path d="M236.05,128 C289.05,128 346.01,128 397.94,128" fill="none" id="CLOSED-backto-OPEN" style="stroke:#181818;stroke-width:1;"/><polygon fill="#181818" points="230.05,128,239.05,132,235.05,128,239.05,124,230.05,128" style="stroke:#181818;stroke-width:1;"/><text fill="#000000" font-family="sans-serif" font-size="13" lengthAdjust="spacing" textLength="131.7456" x="248.5" y="121.0669">[1] !RouteMonitored</text></g><?plantuml-src YzQALT3LjLDmzl4FTdMnKeWsZEM2i1LqYpBJCqg0Slu1hdvW6OMW_DAILD_ylCoI_ABK52wGX89kJcfQ2Qe92efe2hbWai4bYIMf2hOA_WMfUSuv-SMfO04hAuWy5yGcN8f0ibm0?></g></svg>