<?plantuml 1.2026.1?><svg xmlns="http://www.w3.org/2000/svg" xmlns:xlink="http://www.w3.org/1999/xlink" contentStyleType="text/css" data-diagram-type="STATE" height="159px" preserveAspectRatio="none" style="width:572px;height:159px;background:#FFFFFF;" version="1.1" viewBox="0 0 572 159" width="572px" zoomAndPan="magnify"><defs/><g><g><rect fill="#F1F1F1" height="50.2656" rx="12.5" ry="12.5" style="stroke:#181818;stroke-width:0.5;" width="218.2461" x="7" y="103"/><line style="stroke:#181818;stroke-width:0.5;" x1="7" x2="225.2461" y1="129.2969" y2="129.2969"/><text fill="#000000" font-family="sans-serif" font-size="14" lengthAdjust="spacing" textLength="141.0527" x="45.5967" y="120.9951">SIGNAL_NOT_START</text><text fill="#000000" font-family="sans-serif" font-size="12" lengthAdjust="spacing" textLength="198.2461" x="12" y="145.4355">State = ActiveInactive::INACTIVE</text></g><g><rect fill="#F1F1F1" height="50.2656" rx="12.5" ry="12.5" style="stroke:#181818;stroke-width:0.5;" width="205.7305" x="360" y="103"/><line style="stroke:#181818;stroke-width:0.5;" x1="360" x2="565.7305" y1="129.2969" y2="129.2969"/><text fill="#000000" font-family="sans-serif" font-size="14" lengthAdjust="spacing" textLength="124.0244" x="400.853" y="120.9951">SIGNAL_IS_START</text><text fill="#000000" font-family="sans-serif" font-size="12" lengthAdjust="spacing" textLength="185.7305" x="365" y="145.4355">State = ActiveInactive::ACTIVE</text></g><ellipse cx="116" cy="16" fill="#222222" rx="10" ry="10" style="stroke:#222222;stroke-width:1;"/><!--link *start* to SIGNAL_NOT_START--><g class="link" data-entity-1="ent0002" data-entity-2="ent0002" data-link-type="dependency" data-source-line="2" id="lnk3"><path d="M116,26 C116,42.63 116,72.66 116,96.87" fill="none" id="*start*-to-SIGNAL_NOT_START" style="stroke:#181818;stroke-width:1;"/><polygon fill="#181818" points="116,102.87,120,93.87,116,97.87,112,93.87,116,102.87" style="stroke:#181818;stroke-width:1;"/><text fill="#000000" font-family="sans-serif" font-size="13" lengthAdjust="spacing" textLength="18.4146" x="117" y="69.0669">[1]</text></g><!--link SIGNAL_NOT_START to SIGNAL_IS_START--><g class="link" data-entity-1="ent0002" data-entity-2="ent0003" data-link-type="dependency" data-source-line="3" id="lnk4"><path d="M225.02,146.06 C231.94,146.83 238.81,147.49 245.5,148 C287.16,151.2 297.86,151.35 339.5,148 C346.1,147.47 346.9309,147.479 353.7509,146.679" fill="none" id="SIGNAL_NOT_START-to-SIGNAL_IS_START" style="stroke:#181818;stroke-width:1;"/><polygon fill="#181818" points="359.71,145.98,350.3053,143.0558,354.744,146.5625,351.2373,151.0013,359.71,145.98" style="stroke:#181818;stroke-width:1;"/><text fill="#000000" font-family="sans-serif" font-size="13" lengthAdjust="spacing" textLength="92.8218" x="246.5" y="144.0669">[1] RouteIsSet</text></g><!--reverse link SIGNAL_NOT_START to SIGNAL_IS_START--><g class="link" data-entity-1="ent0002" data-entity-2="ent0003" data-link-type="dependency" data-source-line="4" id="lnk6"><path d="M231.32,128 C274.33,128 317.46,128 359.85,128" fill="none" id="SIGNAL_NOT_START-backto-SIGNAL_IS_START" style="stroke:#181818;stroke-width:1;"/><polygon fill="#181818" points="225.32,128,234.32,132,230.32,128,234.32,124,225.32,128" style="stroke:#181818;stroke-width:1;"/><text fill="#000000" font-family="sans-serif" font-size="13" lengthAdjust="spacing" textLength="98.0332" x="243.5" y="121.0669">[1] !RouteIsSet</text></g><?plantuml-src YzQALT3LjLC8zdJtS_I9z_CFYGyESGmAiLA8DepbGXTLq2tAJCyeGQZt38PAWDKh1EMNbgHw5WUdbd2XAz3DIKqhmM8HLASYabOkJCS4boIMf2hOAZWcbsIMfNhc9O9fAojFFqVd4CymLtJhSEk0gWS0?></g></svg>