<?plantuml 1.2026.1?><svg xmlns="http://www.w3.org/2000/svg" xmlns:xlink="http://www.w3.org/1999/xlink" contentStyleType="text/css" data-diagram-type="STATE" height="159px" preserveAspectRatio="none" style="width:648px;height:159px;background:#FFFFFF;" version="1.1" viewBox="0 0 648 159" width="648px" zoomAndPan="magnify"><defs/><g><g><rect fill="#F1F1F1" height="50.2656" rx="12.5" ry="12.5" style="stroke:#181818;stroke-width:0.5;" width="244.877" x="7" y="103"/><line style="stroke:#181818;stroke-width:0.5;" x1="7" x2="251.877" y1="129.2969" y2="129.2969"/><text fill="#000000" font-family="sans-serif" font-size="14" lengthAdjust="spacing" textLength="73.0146" x="92.9312" y="120.9951">OCCUPIED</text><text fill="#000000" font-family="sans-serif" font-size="12" lengthAdjust="spacing" textLength="224.877" x="12" y="145.4355">State = OccupancyStatus::OCCUPIED</text></g><g><rect fill="#F1F1F1" height="50.2656" rx="12.5" ry="12.5" style="stroke:#181818;stroke-width:0.5;" width="231.6055" x="409.5" y="103"/><line style="stroke:#181818;stroke-width:0.5;" x1="409.5" x2="641.1055" y1="129.2969" y2="129.2969"/><text fill="#000000" font-family="sans-serif" font-size="14" lengthAdjust="spacing" textLength="57.5313" x="496.5371" y="120.9951">VACANT</text><text fill="#000000" font-family="sans-serif" font-size="12" lengthAdjust="spacing" textLength="211.6055" x="414.5" y="145.4355">State = OccupancyStatus::VACANT</text></g><ellipse cx="129.5" cy="16" fill="#222222" rx="10" ry="10" style="stroke:#222222;stroke-width:1;"/><!--link *start* to OCCUPIED--><g class="link" data-entity-1="ent0002" data-entity-2="ent0002" data-link-type="dependency" data-source-line="2" id="lnk3"><path d="M129.5,26 C129.5,42.63 129.5,72.66 129.5,96.87" fill="none" id="*start*-to-OCCUPIED" style="stroke:#181818;stroke-width:1;"/><polygon fill="#181818" points="129.5,102.87,133.5,93.87,129.5,97.87,125.5,93.87,129.5,102.87" style="stroke:#181818;stroke-width:1;"/><text fill="#000000" font-family="sans-serif" font-size="13" lengthAdjust="spacing" textLength="18.4146" x="130.5" y="69.0669">[1]</text></g><!--link OCCUPIED to VACANT--><g class="link" data-entity-1="ent0002" data-entity-2="ent0003" data-link-type="dependency" data-source-line="3" id="lnk4"><path d="M252.08,128 C302.17,128 353.83,128 403.24,128" fill="none" id="OCCUPIED-to-VACANT" style="stroke:#181818;stroke-width:1;"/><polygon fill="#181818" points="409.24,128,400.24,124,404.24,128,400.24,132,409.24,128" style="stroke:#181818;stroke-width:1;"/><text fill="#000000" font-family="sans-serif" font-size="13" lengthAdjust="spacing" textLength="121.7354" x="270.25" y="121.0669">[1] !ZoneOccupied</text></g><!--reverse link OCCUPIED to VACANT--><g class="link" data-entity-1="ent0002" data-entity-2="ent0003" data-link-type="dependency" data-source-line="4" id="lnk6"><path d="M258.3415,146.9444 C264.8815,147.5844 265.41,147.56 271.75,148 C324.07,151.66 337.45,151.83 389.75,148 C396.16,147.53 402.74,146.94 409.36,146.25" fill="none" id="OCCUPIED-backto-VACANT" style="stroke:#181818;stroke-width:1;"/><polygon fill="#181818" points="252.37,146.36,260.9376,151.2175,257.3462,146.847,261.7168,143.2556,252.37,146.36" style="stroke:#181818;stroke-width:1;"/><text fill="#000000" font-family="sans-serif" font-size="13" lengthAdjust="spacing" textLength="116.5239" x="272.75" y="144.0669">[1] ZoneOccupied</text></g><?plantuml-src YzQALT3LjLFmTtOE3V1qTR5IY3QCvOBn57IBCjCpIe3oOOxEZduX2c1f1SMe_BnK_-JaqeBCr1Gkg9HkJcfQ2P99KBKeIhaGrWIN99QaAjWgWEKIyv8hGGAbnLPMC2LGS_6eX2ZW0W00?></g></svg>