<?xml version="1.0" encoding="UTF-8" standalone="no"?>
<svg
   width="100%"
   height="100%"
   viewBox="0 0 653 283"
   version="1.1"
   xml:space="preserve"
   style="fill-rule:evenodd;clip-rule:evenodd;stroke-linejoin:round;stroke-miterlimit:2;"
   id="svg44"
   sodipodi:docname="trackplan.svg"
   inkscape:version="1.4.3 (0d15f75, 2025-12-25)"
   xmlns:inkscape="http://www.inkscape.org/namespaces/inkscape"
   xmlns:sodipodi="http://sodipodi.sourceforge.net/DTD/sodipodi-0.dtd"
   xmlns="http://www.w3.org/2000/svg"
   xmlns:svg="http://www.w3.org/2000/svg"><defs
   id="defs44" /><sodipodi:namedview
   id="namedview44"
   pagecolor="#ffffff"
   bordercolor="#000000"
   borderopacity="0.25"
   inkscape:showpageshadow="2"
   inkscape:pageopacity="0.0"
   inkscape:pagecheckerboard="0"
   inkscape:deskcolor="#d1d1d1"
   inkscape:zoom="1.3165316"
   inkscape:cx="306.48714"
   inkscape:cy="162.16854"
   inkscape:window-width="1512"
   inkscape:window-height="866"
   inkscape:window-x="606"
   inkscape:window-y="1473"
   inkscape:window-maximized="1"
   inkscape:current-layer="g43" />
    <g
   transform="matrix(1,0,0,1,-19,-83)"
   id="g44">
        <g
   id="g43">
            <g id="W1" transform="matrix(0.611228,0,0,0.535306,123.941,107.362)">
                <rect x="91.473" y="388.763" width="149.407" height="37.362"/>
            </g>
            <g id="G11" transform="matrix(1.07277,0,0,0.535306,-78.5582,107.362)">
                <rect x="91.473" y="388.763" width="149.407" height="37.362"/>
            </g>
            <g
   transform="matrix(2.32784,0,0,0.535306,108.239,107.362)"
   id="G12"
   inkscape:label="G12">
                <rect
   x="91.473"
   y="388.763"
   width="149.407"
   height="37.362"
   style="fill:rgb(61,197,78);"
   id="rect2" />
            </g>
            <g id="W1L2" transform="matrix(0.473274,-0.473274,0.378519,0.378519,101.694,182.17)">
                <rect x="91.473" y="388.763" width="149.407" height="37.362"/>
            </g>
            <g id="W2L2" transform="matrix(0.473274,-0.473274,0.378519,0.378519,172.404,111.459)">
                <rect x="91.473" y="388.763" width="149.407" height="37.362"/>
            </g>
            <g
   id="W1R"
   transform="matrix(0.334655,0,0,0.535306,240.562,107.362)">
                <rect
   x="91.473"
   y="388.763"
   width="149.407"
   height="37.362"
   style="fill:rgb(61,118,197);"
   id="rect4" />
            </g>
            <g
   transform="matrix(2.67322,0,0,0.535306,-224.956,-98.8697)"
   id="G21">
                <rect
   x="91.473"
   y="388.763"
   width="149.407"
   height="37.362"
   style="fill:rgb(61,197,78);"
   id="rect5" />
            </g>
            <g
   transform="matrix(1.33862,0,0,0.535306,346.523,-98.8697)"
   id="G21"
   inkscape:label="G21">
                <rect
   x="91.473"
   y="388.763"
   width="149.407"
   height="37.362"
   style="fill:rgb(61,197,78);"
   id="rect6" />
            </g>
            <g
   id="W2R"
   transform="matrix(0.334655,0,0,0.535306,388.359,-98.8697)">
                <rect
   x="91.473"
   y="388.763"
   width="149.407"
   height="37.362"
   style="fill:rgb(61,118,197);"
   id="rect7" />
            </g>
            <g
   transform="matrix(0.236637,-0.236637,0.378519,0.378519,87.9765,195.819)"
   id="W1L"
   inkscape:label="W1L">
                <rect
   x="91.473"
   y="388.763"
   width="149.407"
   height="37.362"
   style="fill:rgb(61,118,197);"
   id="rect8" />
            </g>
            <g
   transform="matrix(0.236637,-0.236637,0.378519,0.378519,264.716,19.0848)"
   id="W2L"
   inkscape:label="W2L">
                <rect
   x="91.473"
   y="388.763"
   width="149.407"
   height="37.362"
   style="fill:rgb(61,118,197);"
   id="rect9" />
            </g>
            <g
   id="A"
   transform="matrix(1,0,0,1,20.5878,67.1524)">
                <g
   transform="matrix(0.986792,0,0,0.779456,0.892597,61.4359)"
   id="g10">
                    <rect
   x="67.579"
   y="278.566"
   width="10.134"
   height="25.659"
   id="rect10" />
                </g>
                <g
   transform="matrix(1.97358,0,0,0.779456,-35.7941,61.4359)"
   id="g11x">
                    <rect
   x="67.579"
   y="278.566"
   width="10.134"
   height="25.659"
   id="rect11" />
                </g>
                <g
   transform="matrix(0.567835,0,0,0.567835,33.6977,117.547)"
   id="g12">
                    <circle
   cx="147.722"
   cy="301.177"
   r="17.611"
   id="circle11" />
                </g>
                <g
   transform="matrix(1.97358,0,0,0.389728,-55.7941,175.001)"
   id="g13">
                    <rect
   x="67.579"
   y="278.566"
   width="10.134"
   height="25.659"
   id="rect12" />
                </g>
            </g>
            <g
   id="N2"
   transform="matrix(1,0,0,1,517.034,67.1524)">
                <g
   transform="matrix(0.986792,0,0,0.779456,0.892597,61.4359)"
   id="g14">
                    <rect
   x="67.579"
   y="278.566"
   width="10.134"
   height="25.659"
   id="rect13" />
                </g>
                <g
   transform="matrix(1.97358,0,0,0.779456,-35.7941,61.4359)"
   id="g15">
                    <rect
   x="67.579"
   y="278.566"
   width="10.134"
   height="25.659"
   id="rect14" />
                </g>
                <g
   transform="matrix(0.567835,0,0,0.567835,33.6977,117.547)"
   id="g16">
                    <circle
   cx="147.722"
   cy="301.177"
   r="17.611"
   id="circle15" />
                </g>
                <g
   transform="matrix(1.97358,0,0,0.389728,-55.7941,175.001)"
   id="g17">
                    <rect
   x="67.579"
   y="278.566"
   width="10.134"
   height="25.659"
   id="rect16" />
                </g>
            </g>
            <g
   id="N1"
   transform="matrix(1,0,0,1,517.034,-140.367)">
                <g
   transform="matrix(0.986792,0,0,0.779456,0.892597,61.4359)"
   id="g18">
                    <rect
   x="67.579"
   y="278.566"
   width="10.134"
   height="25.659"
   id="rect17" />
                </g>
                <g
   transform="matrix(1.97358,0,0,0.779456,-35.7941,61.4359)"
   id="g19">
                    <rect
   x="67.579"
   y="278.566"
   width="10.134"
   height="25.659"
   id="rect18" />
                </g>
                <g
   transform="matrix(0.567835,0,0,0.567835,33.6977,117.547)"
   id="g20">
                    <circle
   cx="147.722"
   cy="301.177"
   r="17.611"
   id="circle19" />
                </g>
                <g
   transform="matrix(1.97358,0,0,0.389728,-55.7941,175.001)"
   id="g21">
                    <rect
   x="67.579"
   y="278.566"
   width="10.134"
   height="25.659"
   id="rect20" />
                </g>
            </g>
            <g
   transform="matrix(1,0,0,1,-54.9013,58.0328)"
   id="g23">
                <g
   transform="matrix(12,0,0,12,222.552,301.98)"
   id="g22">
                </g>
                <text
   x="214.548px"
   y="301.98px"
   style="font-family:'ArialMT', 'Arial', sans-serif;font-size:12px;"
   id="text22">A</text>
            </g>
            <g
   transform="matrix(1,0,0,1,443.038,58.0679)"
   id="g25">
                <g
   transform="matrix(12,0,0,12,229.888,301.98)"
   id="g24">
                </g>
                <text
   x="214.548px"
   y="301.98px"
   style="font-family:'ArialMT', 'Arial', sans-serif;font-size:12px;"
   id="text24">N1</text>
            </g>
            <g
   transform="matrix(1,0,0,1,64.8995,58.0679)"
   id="g27">
                <g
   transform="matrix(12,0,0,12,232.548,301.98)"
   id="g26">
                </g>
                <text
   x="214.548px"
   y="301.98px"
   style="font-family:'ArialMT', 'Arial', sans-serif;font-size:12px;"
   id="text26">W1</text>
            </g>
            <g
   transform="matrix(1,0,0,1,239.882,-209.893)"
   id="g29">
                <g
   transform="matrix(12,0,0,12,232.548,301.98)"
   id="g28">
                </g>
                <text
   x="214.548px"
   y="301.98px"
   style="font-family:'ArialMT', 'Arial', sans-serif;font-size:12px;"
   id="text28">W2</text>
            </g>
            <g
   transform="matrix(1,0,0,1,442.253,-149.469)"
   id="g31">
                <g
   transform="matrix(12,0,0,12,229.888,301.98)"
   id="g30">
                </g>
                <text
   x="214.548px"
   y="301.98px"
   style="font-family:'ArialMT', 'Arial', sans-serif;font-size:12px;"
   id="text30">N2</text>
            </g>
            <g
   id="g35">
                <g
   transform="matrix(0.650136,0,0,0.508144,26.386,196.982)"
   id="g32">
                    <rect
   x="145.373"
   y="233.176"
   width="46.144"
   height="39.359"
   style="fill:white;"
   id="rect31" />
                </g>
                <g
   transform="matrix(1,0,0,1,-88.7635,27.7835)"
   id="g34">
                    <g
   transform="matrix(12,0,0,12,236.339,301.98)"
   id="g33">
                    </g>
                    <text
   x="214.548px"
   y="301.98px"
   style="font-family:'ArialMT', 'Arial', sans-serif;font-size:12px;"
   id="text33">G1<tspan
   x="229.665px "
   y="301.98px "
   id="tspan33">1</tspan></text>
                </g>
            </g>
            <g
   transform="matrix(1,0,0,1,0,-206.231)"
   id="g42">
                <g
   transform="matrix(0.650136,0,0,0.508144,506.959,196.982)"
   id="g36">
                    <rect
   x="145.373"
   y="233.176"
   width="46.144"
   height="39.359"
   style="fill:white;"
   id="rect35" />
                </g>
                <g
   transform="matrix(1,0,0,1,391.809,27.7835)"
   id="g38">
                    <g
   transform="matrix(12,0,0,12,237.23,301.98)"
   id="g37">
                    </g>
                    <text
   x="214.548px"
   y="301.98px"
   style="font-family:'ArialMT', 'Arial', sans-serif;font-size:12px;"
   id="text37">G21</text>
                </g>
                <g
   transform="matrix(0.650136,0,0,0.508144,506.959,403.213)"
   id="g39">
                    <rect
   x="145.373"
   y="233.176"
   width="46.144"
   height="39.359"
   style="fill:white;"
   id="rect38" />
                </g>
                <g
   transform="matrix(1,0,0,1,391.809,234.015)"
   id="g41">
                    <g
   transform="matrix(12,0,0,12,237.23,301.98)"
   id="g40">
                    </g>
                    <text
   x="214.548px"
   y="301.98px"
   style="font-family:'ArialMT', 'Arial', sans-serif;font-size:12px;"
   id="text40">G12</text>
                </g>
            </g>
        </g>
    </g>
</svg>
