<?plantuml 1.2026.1?><svg xmlns="http://www.w3.org/2000/svg" xmlns:xlink="http://www.w3.org/1999/xlink" contentStyleType="text/css" data-diagram-type="STATE" height="413px" preserveAspectRatio="none" style="width:943px;height:413px;background:#FFFFFF;" version="1.1" viewBox="0 0 943 413" width="943px" zoomAndPan="magnify"><defs/><g><g><rect fill="#F1F1F1" height="50.2656" rx="12.5" ry="12.5" style="stroke:#181818;stroke-width:0.5;" width="210.1602" x="316.07" y="103"/><line style="stroke:#181818;stroke-width:0.5;" x1="316.07" x2="526.2302" y1="129.2969" y2="129.2969"/><text fill="#000000" font-family="sans-serif" font-size="14" lengthAdjust="spacing" textLength="31.5547" x="405.3727" y="120.9951">IDLE</text><text fill="#000000" font-family="sans-serif" font-size="12" lengthAdjust="spacing" textLength="190.1602" x="321.07" y="145.4355">State = RouteSearch::INACTIVE</text></g><g><rect fill="#F1F1F1" height="50.2656" rx="12.5" ry="12.5" style="stroke:#181818;stroke-width:0.5;" width="203.5449" x="39.07" y="230"/><line style="stroke:#181818;stroke-width:0.5;" x1="39.07" x2="242.6149" y1="256.2969" y2="256.2969"/><text fill="#000000" font-family="sans-serif" font-size="14" lengthAdjust="spacing" textLength="73.5547" x="104.0651" y="247.9951">CHECKING</text><text fill="#000000" font-family="sans-serif" font-size="12" lengthAdjust="spacing" textLength="183.5449" x="44.07" y="272.4355">State = RouteSearch::SEARCH</text></g><g><rect fill="#F1F1F1" height="50.2656" rx="12.5" ry="12.5" style="stroke:#181818;stroke-width:0.5;" width="218.791" x="556.57" y="230"/><line style="stroke:#181818;stroke-width:0.5;" x1="556.57" x2="775.361" y1="256.2969" y2="256.2969"/><text fill="#000000" font-family="sans-serif" font-size="14" lengthAdjust="spacing" textLength="45.1172" x="643.4069" y="247.9951">ADMIT</text><text fill="#000000" font-family="sans-serif" font-size="12" lengthAdjust="spacing" textLength="198.791" x="561.57" y="272.4355">State = RouteSearch::RESPONSE</text></g><g><rect fill="#F1F1F1" height="50.2656" rx="12.5" ry="12.5" style="stroke:#181818;stroke-width:0.5;" width="224.4043" x="235.07" y="357"/><line style="stroke:#181818;stroke-width:0.5;" x1="235.07" x2="459.4743" y1="383.2969" y2="383.2969"/><text fill="#000000" font-family="sans-serif" font-size="14" lengthAdjust="spacing" textLength="81.6758" x="306.4343" y="374.9951">ROUTE_SET</text><text fill="#000000" font-family="sans-serif" font-size="12" lengthAdjust="spacing" textLength="204.4043" x="240.07" y="399.4355">State = RouteSearch::ROUTE_SET</text></g><g><rect fill="#F1F1F1" height="50.2656" rx="12.5" ry="12.5" style="stroke:#181818;stroke-width:0.5;" width="276.125" x="507.07" y="357"/><line style="stroke:#181818;stroke-width:0.5;" x1="507.07" x2="783.195" y1="383.2969" y2="383.2969"/><text fill="#000000" font-family="sans-serif" font-size="14" lengthAdjust="spacing" textLength="142.0166" x="574.1242" y="374.9951">ROUTE_MONITORED</text><text fill="#000000" font-family="sans-serif" font-size="12" lengthAdjust="spacing" textLength="256.125" x="512.07" y="399.4355">State = RouteSearch::ROUTE_MONITORED</text></g><ellipse cx="421.07" cy="16" fill="#222222" rx="10" ry="10" style="stroke:#222222;stroke-width:1;"/><!--link *start* to IDLE--><g class="link" data-entity-1="ent0002" data-entity-2="ent0002" data-link-type="dependency" data-source-line="2" id="lnk3"><path d="M421.07,26 C421.07,42.63 421.07,72.66 421.07,96.87" fill="none" id="*start*-to-IDLE" style="stroke:#181818;stroke-width:1;"/><polygon fill="#181818" points="421.07,102.87,425.07,93.87,421.07,97.87,417.07,93.87,421.07,102.87" style="stroke:#181818;stroke-width:1;"/><text fill="#000000" font-family="sans-serif" font-size="13" lengthAdjust="spacing" textLength="18.4146" x="422.07" y="69.0669">[1]</text></g><!--link IDLE to CHECKING--><g class="link" data-entity-1="ent0002" data-entity-2="ent0003" data-link-type="dependency" data-source-line="4" id="lnk4"><path d="M315.78,135.34 C245.01,142.06 160.67,155.68 138.07,183 C127.53,195.74 127.4385,208.7584 131.0885,223.8384" fill="none" id="IDLE-to-CHECKING" style="stroke:#181818;stroke-width:1;"/><polygon fill="#181818" points="132.5,229.67,134.2705,219.9816,131.3238,224.8103,126.495,221.8636,132.5,229.67" style="stroke:#181818;stroke-width:1;"/><text fill="#000000" font-family="sans-serif" font-size="13" lengthAdjust="spacing" textLength="255.8677" x="139.07" y="196.0669">[1] IsChecking &amp;&amp; !IsCheckingOpposite</text></g><!--link CHECKING to IDLE--><g class="link" data-entity-1="ent0003" data-entity-2="ent0002" data-link-type="dependency" data-source-line="7" id="lnk7"><path d="M51.7,229.91 C24.6,218.27 6,202.54 23.07,183 C42.15,161.16 198.5483,145.3678 309.9183,136.6578" fill="none" id="CHECKING-to-IDLE" style="stroke:#181818;stroke-width:1;"/><polygon fill="#181818" points="315.9,136.19,306.6155,132.9039,310.9152,136.5798,307.2393,140.8796,315.9,136.19" style="stroke:#181818;stroke-width:1;"/><text fill="#000000" font-family="sans-serif" font-size="13" lengthAdjust="spacing" textLength="98.4585" x="24.07" y="196.0669">[2] !IsChecking</text></g><!--link IDLE to ADMIT--><g class="link" data-entity-1="ent0002" data-entity-2="ent0004" data-link-type="dependency" data-source-line="5" id="lnk5"><path d="M513.68,153.06 C537.09,160.95 561.65,170.89 583.07,183 C605.35,195.6 622.9106,210.4852 638.6006,225.6852" fill="none" id="IDLE-to-ADMIT" style="stroke:#181818;stroke-width:1;"/><polygon fill="#181818" points="642.91,229.86,639.2291,220.7248,639.3188,226.381,633.6627,226.4707,642.91,229.86" style="stroke:#181818;stroke-width:1;"/><text fill="#000000" font-family="sans-serif" font-size="13" lengthAdjust="spacing" textLength="71.6714" x="609.07" y="196.0669">[2] IsAdmit</text></g><!--link ADMIT to IDLE--><g class="link" data-entity-1="ent0004" data-entity-2="ent0002" data-link-type="dependency" data-source-line="9" id="lnk9"><path d="M565.52,229.91 C542.19,222.16 518.06,212.31 497.07,200 C476.04,187.67 460.1459,172.9938 445.9459,157.7238" fill="none" id="ADMIT-to-IDLE" style="stroke:#181818;stroke-width:1;"/><polygon fill="#181818" points="441.86,153.33,445.0597,162.6446,445.2649,156.9915,450.9181,157.1967,441.86,153.33" style="stroke:#181818;stroke-width:1;"/><text fill="#000000" font-family="sans-serif" font-size="13" lengthAdjust="spacing" textLength="76.8828" x="498.07" y="196.0669">[2] !IsAdmit</text></g><!--link CHECKING to ROUTE_SET--><g class="link" data-entity-1="ent0003" data-entity-2="ent0005" data-link-type="dependency" data-source-line="6" id="lnk6"><path d="M143.54,280.08 C146.35,295.45 152.32,314.72 165.07,327 C184.18,345.41 203.5489,355.772 228.9589,363.802" fill="none" id="CHECKING-to-ROUTE_SET" style="stroke:#181818;stroke-width:1;"/><polygon fill="#181818" points="234.68,365.61,227.3036,359.084,229.9124,364.1034,224.893,366.7121,234.68,365.61" style="stroke:#181818;stroke-width:1;"/><text fill="#000000" font-family="sans-serif" font-size="13" lengthAdjust="spacing" textLength="228.6553" x="166.07" y="323.0669">[1] IsRouteSet &amp;&amp; IsAdmitOpposite</text></g><!--link ADMIT to ROUTE_MONITORED--><g class="link" data-entity-1="ent0004" data-entity-2="ent0006" data-link-type="dependency" data-source-line="8" id="lnk8"><path d="M600.15,280.12 C587.75,287.74 576.4,297.54 569.07,310 C558.46,328.06 568.0324,341.0707 587.1824,353.4607" fill="none" id="ADMIT-to-ROUTE_MONITORED" style="stroke:#181818;stroke-width:1;"/><polygon fill="#181818" points="592.22,356.72,586.8365,348.4727,588.022,354.0039,582.4908,355.1894,592.22,356.72" style="stroke:#181818;stroke-width:1;"/><text fill="#000000" font-family="sans-serif" font-size="13" lengthAdjust="spacing" textLength="175.5" x="570.07" y="323.0669">[1] IsRouteSetDownstream</text></g><!--link ROUTE_MONITORED to ADMIT--><g class="link" data-entity-1="ent0006" data-entity-2="ent0004" data-link-type="dependency" data-source-line="10" id="lnk10"><path d="M717.91,356.94 C730.71,349.38 742.38,339.6 750.07,327 C761.41,308.42 751.1563,295.3611 730.5663,283.2011" fill="none" id="ROUTE_MONITORED-to-ADMIT" style="stroke:#181818;stroke-width:1;"/><polygon fill="#181818" points="725.4,280.15,731.1154,288.1709,729.7053,282.6926,735.1835,281.2825,725.4,280.15" style="stroke:#181818;stroke-width:1;"/><text fill="#000000" font-family="sans-serif" font-size="13" lengthAdjust="spacing" textLength="180.7114" x="755.07" y="323.0669">[1] !IsRouteSetDownstream</text></g><!--link ROUTE_SET to IDLE--><g class="link" data-entity-1="ent0005" data-entity-2="ent0002" data-link-type="dependency" data-source-line="11" id="lnk11"><path d="M376.94,356.8 C385.48,348.3 393.87,338.08 399.07,327 C426.17,269.23 426.003,197.8684 423.593,159.1784" fill="none" id="ROUTE_SET-to-IDLE" style="stroke:#181818;stroke-width:1;"/><polygon fill="#181818" points="423.22,153.19,419.7873,162.4213,423.5308,158.1803,427.7718,161.9239,423.22,153.19" style="stroke:#181818;stroke-width:1;"/><text fill="#000000" font-family="sans-serif" font-size="13" lengthAdjust="spacing" textLength="98.0332" x="424.07" y="259.5669">[1] !IsRouteSet</text></g><?plantuml-src VP1FYy8m4CNlyod6YuS53-wni0ib7JIeZIHnBo9ItA15sehDujVNnlv9tU8jcNdlbvUt_TZXPFADF5fIWDlf3g0wkXcR4rlmUERco4jsCeTpcXznFCPHTnMNIr6crdJ6C5fn_N1zLgxmDqijD2otbsAZQQz8DsHP_5cZZAt8jQEbzfnrp0VO2m3kFO-y4Z7NGbBqoe-AMrxQgqaopzDZFjE-O7gVcZhT0B7zLRzGN_qiDq1b4slm2-jvSZsSWe378TFyXw3hVL2dA9Hi3dMUGOaajHQn8l2Q7XOsU_ZNt1jzgu8x?></g></svg>