<?plantuml 1.2026.1?><svg xmlns="http://www.w3.org/2000/svg" xmlns:xlink="http://www.w3.org/1999/xlink" contentStyleType="text/css" data-diagram-type="STATE" height="455px" preserveAspectRatio="none" style="width:988px;height:455px;background:#FFFFFF;" version="1.1" viewBox="0 0 988 455" width="988px" zoomAndPan="magnify"><defs/><g><g><rect fill="#F1F1F1" height="64.2344" rx="12.5" ry="12.5" style="stroke:#181818;stroke-width:0.5;" width="218.082" x="296.33" y="103"/><line style="stroke:#181818;stroke-width:0.5;" x1="296.33" x2="514.412" y1="129.2969" y2="129.2969"/><text fill="#000000" font-family="sans-serif" font-size="14" lengthAdjust="spacing" textLength="136.042" x="337.35" y="120.9951">CONTROLLED_LEFT</text><text fill="#000000" font-family="sans-serif" font-size="12" lengthAdjust="spacing" textLength="176.9648" x="301.33" y="145.4355">Left = ActiveInactive::ACTIVE</text><text fill="#000000" font-family="sans-serif" font-size="12" lengthAdjust="spacing" textLength="198.082" x="301.33" y="159.4043">Right = ActiveInactive::INACTIVE</text></g><g><rect fill="#F1F1F1" height="64.2344" rx="12.5" ry="12.5" style="stroke:#181818;stroke-width:0.5;" width="209.4805" x="353.83" y="385"/><line style="stroke:#181818;stroke-width:0.5;" x1="353.83" x2="563.3105" y1="411.2969" y2="411.2969"/><text fill="#000000" font-family="sans-serif" font-size="14" lengthAdjust="spacing" textLength="146.5762" x="385.2821" y="402.9951">CONTROLLED_RIGHT</text><text fill="#000000" font-family="sans-serif" font-size="12" lengthAdjust="spacing" textLength="185.5664" x="358.83" y="427.4355">Right = ActiveInactive::ACTIVE</text><text fill="#000000" font-family="sans-serif" font-size="12" lengthAdjust="spacing" textLength="189.4805" x="358.83" y="441.4043">Left = ActiveInactive::INACTIVE</text></g><g><rect fill="#F1F1F1" height="64.2344" rx="12.5" ry="12.5" style="stroke:#181818;stroke-width:0.5;" width="218.082" x="296.33" y="244"/><line style="stroke:#181818;stroke-width:0.5;" x1="296.33" x2="514.412" y1="270.2969" y2="270.2969"/><text fill="#000000" font-family="sans-serif" font-size="14" lengthAdjust="spacing" textLength="132.8359" x="338.953" y="261.9951">NOT_CONTROLLED</text><text fill="#000000" font-family="sans-serif" font-size="12" lengthAdjust="spacing" textLength="189.4805" x="301.33" y="286.4355">Left = ActiveInactive::INACTIVE</text><text fill="#000000" font-family="sans-serif" font-size="12" lengthAdjust="spacing" textLength="198.082" x="301.33" y="300.4043">Right = ActiveInactive::INACTIVE</text></g><ellipse cx="748.33" cy="16" fill="#222222" rx="10" ry="10" style="stroke:#222222;stroke-width:1;"/><!--link *start* to CONTROLLED_LEFT--><g class="link" data-entity-1="ent0002" data-entity-2="ent0002" data-link-type="dependency" data-source-line="2" id="lnk3"><path d="M738.38,17.63 C707.66,19.81 611.98,28.53 538.33,56 C506.98,67.69 479.5591,83.2877 454.5691,99.5477" fill="none" id="*start*-to-CONTROLLED_LEFT" style="stroke:#181818;stroke-width:1;"/><polygon fill="#181818" points="449.54,102.82,459.2652,101.2644,453.731,100.0931,454.9022,94.5588,449.54,102.82" style="stroke:#181818;stroke-width:1;"/><text fill="#000000" font-family="sans-serif" font-size="13" lengthAdjust="spacing" textLength="182.8442" x="539.33" y="69.0669">[1] EndPositionLeftDetected</text></g><!--link *start* to CONTROLLED_RIGHT--><g class="link" data-entity-1="ent0002" data-entity-2="ent0003" data-link-type="dependency" data-source-line="3" id="lnk4"><path d="M756.04,22.93 C764.4,29.86 777.33,42.14 783.33,56 C791.65,75.24 786.44,82.05 787.33,103 C790.44,176.25 784.05,352.98 782.33,355 C754.3,387.89 652.589,402.7081 568.969,409.7281" fill="none" id="*start*-to-CONTROLLED_RIGHT" style="stroke:#181818;stroke-width:1;"/><polygon fill="#181818" points="562.99,410.23,572.2931,413.4631,567.9725,409.8117,571.6238,405.4911,562.99,410.23" style="stroke:#181818;stroke-width:1;"/><text fill="#000000" font-family="sans-serif" font-size="13" lengthAdjust="spacing" textLength="192.1626" x="788.33" y="210.0669">[2] EndPositionRightDetected</text></g><!--link *start* to NOT_CONTROLLED--><g class="link" data-entity-1="ent0002" data-entity-2="ent0004" data-link-type="dependency" data-source-line="4" id="lnk5"><path d="M750.58,25.93 C757.78,56.71 776.84,159.46 726.33,214 C697.95,244.64 601.9833,259.6448 520.5033,267.3548" fill="none" id="*start*-to-NOT_CONTROLLED" style="stroke:#181818;stroke-width:1;"/><polygon fill="#181818" points="514.53,267.92,523.8668,271.0544,519.5078,267.449,523.1132,263.09,514.53,267.92" style="stroke:#181818;stroke-width:1;"/><text fill="#000000" font-family="sans-serif" font-size="13" lengthAdjust="spacing" textLength="18.4146" x="760.33" y="139.5669">[3]</text></g><!--link NOT_CONTROLLED to CONTROLLED_LEFT--><g class="link" data-entity-1="ent0004" data-entity-2="ent0002" data-link-type="dependency" data-source-line="6" id="lnk6"><path d="M296.09,268.58 C176.49,259.39 6,238.75 41.33,197 C73.51,158.97 194.9097,144.9803 289.9697,139.5803" fill="none" id="NOT_CONTROLLED-to-CONTROLLED_LEFT" style="stroke:#181818;stroke-width:1;"/><polygon fill="#181818" points="295.96,139.24,286.7476,135.7569,290.968,139.5236,287.2013,143.744,295.96,139.24" style="stroke:#181818;stroke-width:1;"/><text fill="#000000" font-family="sans-serif" font-size="13" lengthAdjust="spacing" textLength="319.3633" x="42.33" y="210.0669">[1] EndPositionLeftDetected &amp;&amp; CommandedLeft</text></g><!--link CONTROLLED_LEFT to NOT_CONTROLLED--><g class="link" data-entity-1="ent0002" data-entity-2="ent0004" data-link-type="dependency" data-source-line="9" id="lnk8"><path d="M403.23,167.12 C402.5,181.4 401.95,198.56 402.33,214 C402.57,223.75 402.7145,228.3778 403.2045,237.9878" fill="none" id="CONTROLLED_LEFT-to-NOT_CONTROLLED" style="stroke:#181818;stroke-width:1;"/><polygon fill="#181818" points="403.51,243.98,407.0465,234.788,403.2554,238.9865,399.0569,235.1954,403.51,243.98" style="stroke:#181818;stroke-width:1;"/><text fill="#000000" font-family="sans-serif" font-size="13" lengthAdjust="spacing" textLength="318.2715" x="403.33" y="210.0669">[1] !EndPositionLeftDetected || !CommandedLeft</text></g><!--link NOT_CONTROLLED to CONTROLLED_RIGHT--><g class="link" data-entity-1="ent0004" data-entity-2="ent0003" data-link-type="dependency" data-source-line="7" id="lnk7"><path d="M417.22,308.19 C425.95,331.09 435.6124,356.4337 444.3324,379.3037" fill="none" id="NOT_CONTROLLED-to-CONTROLLED_RIGHT" style="stroke:#181818;stroke-width:1;"/><polygon fill="#181818" points="446.47,384.91,447.0011,375.0755,444.6887,380.2381,439.5261,377.9256,446.47,384.91" style="stroke:#181818;stroke-width:1;"/><text fill="#000000" font-family="sans-serif" font-size="13" lengthAdjust="spacing" textLength="338" x="435.33" y="351.0669">[2] EndPositionRightDetected &amp;&amp; CommandedRight</text></g><!--link CONTROLLED_RIGHT to NOT_CONTROLLED--><g class="link" data-entity-1="ent0003" data-entity-2="ent0004" data-link-type="dependency" data-source-line="10" id="lnk9"><path d="M353.82,413.7 C254.92,409.05 116.61,395.29 82.33,355 C51.91,319.25 184.7434,298.0626 289.9034,286.9126" fill="none" id="CONTROLLED_RIGHT-to-NOT_CONTROLLED" style="stroke:#181818;stroke-width:1;"/><polygon fill="#181818" points="295.87,286.28,286.4984,283.2512,290.8979,286.8072,287.3419,291.2066,295.87,286.28" style="stroke:#181818;stroke-width:1;"/><text fill="#000000" font-family="sans-serif" font-size="13" lengthAdjust="spacing" textLength="336.9082" x="83.33" y="351.0669">[1] !EndPositionRightDetected || !CommandedRight</text></g><?plantuml-src bP2n2eCm48RtFCMvE1GSscw15aHj6n0j4hg8Y6ZQPZ0E3Pry-AgKbXY3EWLoz_tttQMR31pd25uSqIGEmy3Fm-14CQJR309HNPiNbxmH8RjBdqbMIbQXL8SIShxqr4wX4lvuwbWKq_oFTj0-GqZzNEq4jWrUKzU5g5ZL5sO25_WgaKC5eP7Iz3gTfMNIR5kmLC-nrA9CLLG9dJR5q0-30xYbv6z6H36y6BiU9RT0RnzY9lf9f1FVOveG8s1G-eqONs5j_-mE7m00?></g></svg>