<?plantuml 1.2026.1?><svg xmlns="http://www.w3.org/2000/svg" xmlns:xlink="http://www.w3.org/1999/xlink" contentStyleType="text/css" data-diagram-type="STATE" height="287px" preserveAspectRatio="none" style="width:1126px;height:287px;background:#FFFFFF;" version="1.1" viewBox="0 0 1126 287" width="1126px" zoomAndPan="magnify"><defs/><g><g><rect fill="#F1F1F1" height="50.2656" rx="12.5" ry="12.5" style="stroke:#181818;stroke-width:0.5;" width="168.0195" x="7" y="230"/><line style="stroke:#181818;stroke-width:0.5;" x1="7" x2="175.0195" y1="256.2969" y2="256.2969"/><text fill="#000000" font-family="sans-serif" font-size="14" lengthAdjust="spacing" textLength="33.25" x="74.3848" y="247.9951">LEFT</text><text fill="#000000" font-family="sans-serif" font-size="12" lengthAdjust="spacing" textLength="148.0195" x="12" y="272.4355">State = PointState::LEFT</text></g><g><rect fill="#F1F1F1" height="50.2656" rx="12.5" ry="12.5" style="stroke:#181818;stroke-width:0.5;" width="177.0488" x="774.5" y="230"/><line style="stroke:#181818;stroke-width:0.5;" x1="774.5" x2="951.5488" y1="256.2969" y2="256.2969"/><text fill="#000000" font-family="sans-serif" font-size="14" lengthAdjust="spacing" textLength="43.7842" x="841.1323" y="247.9951">RIGHT</text><text fill="#000000" font-family="sans-serif" font-size="12" lengthAdjust="spacing" textLength="157.0488" x="779.5" y="272.4355">State = PointState::RIGHT</text></g><g><rect fill="#F1F1F1" height="50.2656" rx="12.5" ry="12.5" style="stroke:#181818;stroke-width:0.5;" width="237.043" x="362.5" y="103"/><line style="stroke:#181818;stroke-width:0.5;" x1="362.5" x2="599.543" y1="129.2969" y2="129.2969"/><text fill="#000000" font-family="sans-serif" font-size="14" lengthAdjust="spacing" textLength="113.7773" x="424.1328" y="120.9951">UNDETERMINED</text><text fill="#000000" font-family="sans-serif" font-size="12" lengthAdjust="spacing" textLength="217.043" x="367.5" y="145.4355">State = PointState::UNDETERMINED</text></g><ellipse cx="481" cy="16" fill="#222222" rx="10" ry="10" style="stroke:#222222;stroke-width:1;"/><!--link *start* to LEFT--><g class="link" data-entity-1="ent0002" data-entity-2="ent0002" data-link-type="dependency" data-source-line="2" id="lnk3"><path d="M471.16,18.26 C433.03,23.47 292.25,45.83 193,103 C148.05,128.9 134.02,138.12 108,183 C99.74,197.26 96.3812,209.4081 94.2012,223.7581" fill="none" id="*start*-to-LEFT" style="stroke:#181818;stroke-width:1;"/><polygon fill="#181818" points="93.3,229.69,98.6064,221.3929,94.051,224.7467,90.6971,220.1913,93.3,229.69" style="stroke:#181818;stroke-width:1;"/><text fill="#000000" font-family="sans-serif" font-size="13" lengthAdjust="spacing" textLength="139.8008" x="194" y="132.5669">[1] PointDetectedLeft</text></g><!--link *start* to RIGHT--><g class="link" data-entity-1="ent0002" data-entity-2="ent0003" data-link-type="dependency" data-source-line="3" id="lnk4"><path d="M490.93,18.54 C557.64,29.07 940.04,92.97 1006,183 C1026.72,211.29 997.8521,227.4216 957.4621,238.0616" fill="none" id="*start*-to-RIGHT" style="stroke:#181818;stroke-width:1;"/><polygon fill="#181818" points="951.66,239.59,961.382,241.1654,956.495,238.3163,959.3441,233.4293,951.66,239.59" style="stroke:#181818;stroke-width:1;"/><text fill="#000000" font-family="sans-serif" font-size="13" lengthAdjust="spacing" textLength="149.1191" x="969" y="132.5669">[2] PointDetectedRight</text></g><!--link *start* to UNDETERMINED--><g class="link" data-entity-1="ent0002" data-entity-2="ent0004" data-link-type="dependency" data-source-line="4" id="lnk5"><path d="M481,26 C481,42.63 481,72.66 481,96.87" fill="none" id="*start*-to-UNDETERMINED" style="stroke:#181818;stroke-width:1;"/><polygon fill="#181818" points="481,102.87,485,93.87,481,97.87,477,93.87,481,102.87" style="stroke:#181818;stroke-width:1;"/><text fill="#000000" font-family="sans-serif" font-size="13" lengthAdjust="spacing" textLength="18.4146" x="482" y="69.0669">[3]</text></g><!--link UNDETERMINED to LEFT--><g class="link" data-entity-1="ent0004" data-entity-2="ent0002" data-link-type="dependency" data-source-line="6" id="lnk6"><path d="M362.38,138.02 C279.46,146.15 177.33,160.36 141,183 C123.34,194.01 112.9863,208.4714 104.6163,224.3614" fill="none" id="UNDETERMINED-to-LEFT" style="stroke:#181818;stroke-width:1;"/><polygon fill="#181818" points="101.82,229.67,109.5534,223.5713,104.1502,225.2462,102.4754,219.843,101.82,229.67" style="stroke:#181818;stroke-width:1;"/><text fill="#000000" font-family="sans-serif" font-size="13" lengthAdjust="spacing" textLength="402.7144" x="142" y="196.0669">[1] RouteAuthorizedMoveLeft &amp;&amp; !RouteAuthorizedMoveRight</text></g><!--link UNDETERMINED to RIGHT--><g class="link" data-entity-1="ent0004" data-entity-2="ent0003" data-link-type="dependency" data-source-line="7" id="lnk7"><path d="M511.81,153.17 C533.18,168.78 562.93,188.29 592,200 C650.41,223.52 714.2194,236.2779 768.3294,243.9479" fill="none" id="UNDETERMINED-to-RIGHT" style="stroke:#181818;stroke-width:1;"/><polygon fill="#181818" points="774.27,244.79,765.9205,239.5665,769.3195,244.0883,764.7977,247.4873,774.27,244.79" style="stroke:#181818;stroke-width:1;"/><text fill="#000000" font-family="sans-serif" font-size="13" lengthAdjust="spacing" textLength="402.7144" x="593" y="196.0669">[2] RouteAuthorizedMoveRight &amp;&amp; !RouteAuthorizedMoveLeft</text></g><!--link LEFT to RIGHT--><g class="link" data-entity-1="ent0002" data-entity-2="ent0003" data-link-type="dependency" data-source-line="9" id="lnk8"><path d="M175.23,271.23 C185.97,272.78 196.84,274.11 207.25,275 C266.48,280.06 683.01,279.87 742.25,275 C752.63,274.15 757.5164,273.7106 768.2364,272.2306" fill="none" id="LEFT-to-RIGHT" style="stroke:#181818;stroke-width:1;"/><polygon fill="#181818" points="774.18,271.41,764.7175,268.6784,769.227,272.0938,765.8116,276.6033,774.18,271.41" style="stroke:#181818;stroke-width:1;"/><text fill="#000000" font-family="sans-serif" font-size="13" lengthAdjust="spacing" textLength="533.6602" x="208.25" y="271.0669">[1] RouteAuthorizedMoveRight &amp;&amp; !(RouteAuthorizedMoveLeft || PointLockedLeft)</text></g><!--reverse link LEFT to RIGHT--><g class="link" data-entity-1="ent0002" data-entity-2="ent0003" data-link-type="dependency" data-source-line="10" id="lnk10"><path d="M181.09,255 C328.02,255 624.14,255 774.28,255" fill="none" id="LEFT-backto-RIGHT" style="stroke:#181818;stroke-width:1;"/><polygon fill="#181818" points="175.09,255,184.09,259,180.09,255,184.09,251,175.09,255" style="stroke:#181818;stroke-width:1;"/><text fill="#000000" font-family="sans-serif" font-size="13" lengthAdjust="spacing" textLength="542.9785" x="203.75" y="248.0669">[2] RouteAuthorizedMoveLeft &amp;&amp; !(RouteAuthorizedMoveRight || PointLockedRight)</text></g><?plantuml-src XP512u9048Nl-okcYsZWGRij50HQ2IfXTX8FeLjAqOAi7S8Vdxihk9hMSMQ-VM_cRR9CmJGtuBkx64DYfN2avPCvX96CaTmdLuQIZecy_O53zWYAoblHK-VGSMCt2hpGTLfubIAajaPk4QqPsTQie5Nv9db0NuHxWgR1Oc8chRxqbCtc7iqfYWiHNmZCYeEAdFL7Jf_RlcbaGZxDxZ940mbHC1zjqITW_qv0dxKVEeYU8S_0S68NHc0j0L5Wp2UeksjgBaPe-7TJd4gW3m00?></g></svg>