<?plantuml 1.2026.1?><svg xmlns="http://www.w3.org/2000/svg" xmlns:xlink="http://www.w3.org/1999/xlink" contentStyleType="text/css" data-diagram-type="STATE" height="1075px" preserveAspectRatio="none" style="width:1023px;height:1075px;background:#FFFFFF;" version="1.1" viewBox="0 0 1023 1075" width="1023px" zoomAndPan="magnify"><defs/><g><g><rect fill="#F1F1F1" height="78.2031" rx="12.5" ry="12.5" style="stroke:#181818;stroke-width:0.5;" width="378.0254" x="286" y="103"/><line style="stroke:#181818;stroke-width:0.5;" x1="286" x2="664.0254" y1="129.2969" y2="129.2969"/><text fill="#000000" font-family="sans-serif" font-size="14" lengthAdjust="spacing" textLength="71.8047" x="439.1104" y="120.9951">IDLE_LEFT</text><text fill="#000000" font-family="sans-serif" font-size="12" lengthAdjust="spacing" textLength="229.4297" x="291" y="145.4355">PreviousPointState = PointState::LEFT</text><text fill="#000000" font-family="sans-serif" font-size="12" lengthAdjust="spacing" textLength="176.2559" x="291" y="159.4043">Top = ActiveInactive::ACTIVE</text><text fill="#000000" font-family="sans-serif" font-size="12" lengthAdjust="spacing" textLength="358.0254" x="291" y="173.373">State = EulynxCommandedEndPosition::NOT_COMMANDED</text></g><g><rect fill="#F1F1F1" height="78.2031" rx="12.5" ry="12.5" style="stroke:#181818;stroke-width:0.5;" width="378.0254" x="498" y="991"/><line style="stroke:#181818;stroke-width:0.5;" x1="498" x2="876.0254" y1="1017.2969" y2="1017.2969"/><text fill="#000000" font-family="sans-serif" font-size="14" lengthAdjust="spacing" textLength="82.3389" x="645.8433" y="1008.9951">IDLE_RIGHT</text><text fill="#000000" font-family="sans-serif" font-size="12" lengthAdjust="spacing" textLength="238.459" x="503" y="1033.4355">PreviousPointState = PointState::RIGHT</text><text fill="#000000" font-family="sans-serif" font-size="12" lengthAdjust="spacing" textLength="176.2559" x="503" y="1047.4043">Top = ActiveInactive::ACTIVE</text><text fill="#000000" font-family="sans-serif" font-size="12" lengthAdjust="spacing" textLength="358.0254" x="503" y="1061.373">State = EulynxCommandedEndPosition::NOT_COMMANDED</text></g><g><rect fill="#F1F1F1" height="78.2031" rx="12.5" ry="12.5" style="stroke:#181818;stroke-width:0.5;" width="378.0254" x="7" y="695"/><line style="stroke:#181818;stroke-width:0.5;" x1="7" x2="385.0254" y1="721.2969" y2="721.2969"/><text fill="#000000" font-family="sans-serif" font-size="14" lengthAdjust="spacing" textLength="152.332" x="119.8467" y="712.9951">IDLE_UNDETERMINED</text><text fill="#000000" font-family="sans-serif" font-size="12" lengthAdjust="spacing" textLength="298.4531" x="12" y="737.4355">PreviousPointState = PointState::UNDETERMINED</text><text fill="#000000" font-family="sans-serif" font-size="12" lengthAdjust="spacing" textLength="176.2559" x="12" y="751.4043">Top = ActiveInactive::ACTIVE</text><text fill="#000000" font-family="sans-serif" font-size="12" lengthAdjust="spacing" textLength="358.0254" x="12" y="765.373">State = EulynxCommandedEndPosition::NOT_COMMANDED</text></g><g><rect fill="#F1F1F1" height="64.2344" rx="12.5" ry="12.5" style="stroke:#181818;stroke-width:0.5;" width="258.459" x="216" y="258"/><line style="stroke:#181818;stroke-width:0.5;" x1="216" x2="474.459" y1="284.2969" y2="284.2969"/><text fill="#000000" font-family="sans-serif" font-size="14" lengthAdjust="spacing" textLength="195.1182" x="247.6704" y="275.9951">WAITING_COMMAND_RIGHT</text><text fill="#000000" font-family="sans-serif" font-size="12" lengthAdjust="spacing" textLength="238.459" x="221" y="300.4355">PreviousPointState = PointState::RIGHT</text><text fill="#000000" font-family="sans-serif" font-size="12" lengthAdjust="spacing" textLength="176.2559" x="221" y="314.4043">Top = ActiveInactive::ACTIVE</text></g><g><rect fill="#F1F1F1" height="64.2344" rx="12.5" ry="12.5" style="stroke:#181818;stroke-width:0.5;" width="249.4297" x="137.5" y="850"/><line style="stroke:#181818;stroke-width:0.5;" x1="137.5" x2="386.9297" y1="876.2969" y2="876.2969"/><text fill="#000000" font-family="sans-serif" font-size="14" lengthAdjust="spacing" textLength="184.584" x="169.9229" y="867.9951">WAITING_COMMAND_LEFT</text><text fill="#000000" font-family="sans-serif" font-size="12" lengthAdjust="spacing" textLength="229.4297" x="142.5" y="892.4355">PreviousPointState = PointState::LEFT</text><text fill="#000000" font-family="sans-serif" font-size="12" lengthAdjust="spacing" textLength="176.2559" x="142.5" y="906.4043">Top = ActiveInactive::ACTIVE</text></g><g><rect fill="#F1F1F1" height="78.2031" rx="12.5" ry="12.5" style="stroke:#181818;stroke-width:0.5;" width="292.9941" x="151.5" y="991"/><line style="stroke:#181818;stroke-width:0.5;" x1="151.5" x2="444.4941" y1="1017.2969" y2="1017.2969"/><text fill="#000000" font-family="sans-serif" font-size="14" lengthAdjust="spacing" textLength="151.0469" x="222.4736" y="1008.9951">TOP_COMMAND_LEFT</text><text fill="#000000" font-family="sans-serif" font-size="12" lengthAdjust="spacing" textLength="188.7715" x="156.5" y="1033.4355">Top = ActiveInactive::INACTIVE</text><text fill="#000000" font-family="sans-serif" font-size="12" lengthAdjust="spacing" textLength="94.0488" x="156.5" y="1047.4043">TopStart = now</text><text fill="#000000" font-family="sans-serif" font-size="12" lengthAdjust="spacing" textLength="272.9941" x="156.5" y="1061.373">State = EulynxCommandedEndPosition::LEFT</text></g><g><rect fill="#F1F1F1" height="78.2031" rx="12.5" ry="12.5" style="stroke:#181818;stroke-width:0.5;" width="302.0234" x="263" y="399"/><line style="stroke:#181818;stroke-width:0.5;" x1="263" x2="565.0234" y1="425.2969" y2="425.2969"/><text fill="#000000" font-family="sans-serif" font-size="14" lengthAdjust="spacing" textLength="161.5811" x="333.2212" y="416.9951">TOP_COMMAND_RIGHT</text><text fill="#000000" font-family="sans-serif" font-size="12" lengthAdjust="spacing" textLength="188.7715" x="268" y="441.4355">Top = ActiveInactive::INACTIVE</text><text fill="#000000" font-family="sans-serif" font-size="12" lengthAdjust="spacing" textLength="94.0488" x="268" y="455.4043">TopStart = now</text><text fill="#000000" font-family="sans-serif" font-size="12" lengthAdjust="spacing" textLength="282.0234" x="268" y="469.373">State = EulynxCommandedEndPosition::RIGHT</text></g><g><rect fill="#F1F1F1" height="64.2344" rx="12.5" ry="12.5" style="stroke:#181818;stroke-width:0.5;" width="378.0254" x="276" y="554"/><line style="stroke:#181818;stroke-width:0.5;" x1="276" x2="654.0254" y1="580.2969" y2="580.2969"/><text fill="#000000" font-family="sans-serif" font-size="14" lengthAdjust="spacing" textLength="80.5684" x="424.7285" y="571.9951">DELAY_TOP</text><text fill="#000000" font-family="sans-serif" font-size="12" lengthAdjust="spacing" textLength="188.7715" x="281" y="596.4355">Top = ActiveInactive::INACTIVE</text><text fill="#000000" font-family="sans-serif" font-size="12" lengthAdjust="spacing" textLength="358.0254" x="281" y="610.4043">State = EulynxCommandedEndPosition::NOT_COMMANDED</text></g><ellipse cx="475" cy="16" fill="#222222" rx="10" ry="10" style="stroke:#222222;stroke-width:1;"/><!--link *start* to IDLE_LEFT--><g class="link" data-entity-1="ent0002" data-entity-2="ent0002" data-link-type="dependency" data-source-line="2" id="lnk3"><path d="M475,26.32 C475,42.37 475,70.09 475,96.83" fill="none" id="*start*-to-IDLE_LEFT" style="stroke:#181818;stroke-width:1;"/><polygon fill="#181818" points="475,102.83,479,93.83,475,97.83,471,93.83,475,102.83" style="stroke:#181818;stroke-width:1;"/><text fill="#000000" font-family="sans-serif" font-size="13" lengthAdjust="spacing" textLength="80.2026" x="476" y="69.0669">[1] PointLeft</text></g><!--link *start* to IDLE_RIGHT--><g class="link" data-entity-1="ent0002" data-entity-2="ent0003" data-link-type="dependency" data-source-line="3" id="lnk4"><path d="M485.24,17.54 C552.23,21.32 925,46.59 925,141 C925,141 925,141 925,883 C925,934.87 888.8809,966.3944 840.4809,988.4244" fill="none" id="*start*-to-IDLE_RIGHT" style="stroke:#181818;stroke-width:1;"/><polygon fill="#181818" points="835.02,990.91,844.8685,990.8222,839.5708,988.8386,841.5543,983.541,835.02,990.91" style="stroke:#181818;stroke-width:1;"/><text fill="#000000" font-family="sans-serif" font-size="13" lengthAdjust="spacing" textLength="89.521" x="926" y="520.0669">[2] PointRight</text></g><!--link *start* to IDLE_UNDETERMINED--><g class="link" data-entity-1="ent0002" data-entity-2="ent0004" data-link-type="dependency" data-source-line="4" id="lnk5"><path d="M464.94,18.42 C409.04,26.57 139,69.65 139,141 C139,141 139,141 139,587 C139,625.64 153.6633,661.0646 169.2833,689.6546" fill="none" id="*start*-to-IDLE_UNDETERMINED" style="stroke:#181818;stroke-width:1;"/><polygon fill="#181818" points="172.16,694.92,171.3552,685.1041,169.7627,690.5322,164.3346,688.9397,172.16,694.92" style="stroke:#181818;stroke-width:1;"/><text fill="#000000" font-family="sans-serif" font-size="13" lengthAdjust="spacing" textLength="18.4146" x="140" y="365.0669">[3]</text></g><!--link IDLE_LEFT to WAITING_COMMAND_RIGHT--><g class="link" data-entity-1="ent0002" data-entity-2="ent0005" data-link-type="dependency" data-source-line="6" id="lnk6"><path d="M342.06,181.25 C330.32,189.34 319.91,199.13 312,211 C302.46,225.32 305.3123,237.7758 314.7223,252.5858" fill="none" id="IDLE_LEFT-to-WAITING_COMMAND_RIGHT" style="stroke:#181818;stroke-width:1;"/><polygon fill="#181818" points="317.94,257.65,316.4896,247.9085,315.2586,253.4298,309.7373,252.1988,317.94,257.65" style="stroke:#181818;stroke-width:1;"/><text fill="#000000" font-family="sans-serif" font-size="13" lengthAdjust="spacing" textLength="118.2822" x="313" y="224.0669">[1] PointTriggered</text></g><!--link WAITING_COMMAND_RIGHT to IDLE_LEFT--><g class="link" data-entity-1="ent0005" data-entity-2="ent0002" data-link-type="dependency" data-source-line="12" id="lnk11"><path d="M401.86,257.92 C414.18,249.37 426.38,239.3 436,228 C447.58,214.4 454.1694,202.3559 460.4694,186.7059" fill="none" id="WAITING_COMMAND_RIGHT-to-IDLE_LEFT" style="stroke:#181818;stroke-width:1;"/><polygon fill="#181818" points="462.71,181.14,455.6385,187.9952,460.8428,185.7783,463.0597,190.9826,462.71,181.14" style="stroke:#181818;stroke-width:1;"/><text fill="#000000" font-family="sans-serif" font-size="13" lengthAdjust="spacing" textLength="118.2822" x="448" y="224.0669">[2] PointTriggered</text></g><!--link IDLE_RIGHT to WAITING_COMMAND_LEFT--><g class="link" data-entity-1="ent0003" data-entity-2="ent0006" data-link-type="dependency" data-source-line="7" id="lnk7"><path d="M615.38,990.84 C575.89,969.98 532.89,947.65 523,944 C479.57,927.95 436.3298,916.4597 392.5298,906.8197" fill="none" id="IDLE_RIGHT-to-WAITING_COMMAND_LEFT" style="stroke:#181818;stroke-width:1;"/><polygon fill="#181818" points="386.67,905.53,394.5998,911.371,391.5531,906.6047,396.3194,903.558,386.67,905.53" style="stroke:#181818;stroke-width:1;"/><text fill="#000000" font-family="sans-serif" font-size="13" lengthAdjust="spacing" textLength="118.2822" x="555" y="957.0669">[1] PointTriggered</text></g><!--link WAITING_COMMAND_LEFT to IDLE_RIGHT--><g class="link" data-entity-1="ent0006" data-entity-2="ent0003" data-link-type="dependency" data-source-line="14" id="lnk13"><path d="M307.03,914.02 C332,930.02 364.17,948.7 395,961 C427.51,973.97 457.2791,983.3255 492.0791,992.2755" fill="none" id="WAITING_COMMAND_LEFT-to-IDLE_RIGHT" style="stroke:#181818;stroke-width:1;"/><polygon fill="#181818" points="497.89,993.77,490.17,987.6544,493.0476,992.5246,488.1773,995.4022,497.89,993.77" style="stroke:#181818;stroke-width:1;"/><text fill="#000000" font-family="sans-serif" font-size="13" lengthAdjust="spacing" textLength="118.2822" x="396" y="957.0669">[2] PointTriggered</text></g><!--link IDLE_UNDETERMINED to WAITING_COMMAND_RIGHT--><g class="link" data-entity-1="ent0004" data-entity-2="ent0005" data-link-type="dependency" data-source-line="8" id="lnk8"><path d="M193.21,694.87 C190.2,629.73 191.78,494.8 246,399 C262.41,370 283.6064,346.5392 304.6364,326.4992" fill="none" id="IDLE_UNDETERMINED-to-WAITING_COMMAND_RIGHT" style="stroke:#181818;stroke-width:1;"/><polygon fill="#181818" points="308.98,322.36,299.7051,325.673,305.3603,325.8093,305.224,331.4645,308.98,322.36" style="stroke:#181818;stroke-width:1;"/><text fill="#000000" font-family="sans-serif" font-size="13" lengthAdjust="spacing" textLength="213.7954" x="207" y="520.0669">[1] PointTriggered &amp;&amp; PointRight</text></g><!--link IDLE_UNDETERMINED to WAITING_COMMAND_LEFT--><g class="link" data-entity-1="ent0004" data-entity-2="ent0006" data-link-type="dependency" data-source-line="9" id="lnk9"><path d="M186.18,773.26 C184.19,788.42 184.4,805.63 191,820 C196.22,831.37 200.2901,837.3842 209.6301,845.8742" fill="none" id="IDLE_UNDETERMINED-to-WAITING_COMMAND_LEFT" style="stroke:#181818;stroke-width:1;"/><polygon fill="#181818" points="214.07,849.91,210.1008,840.8964,210.3701,846.5468,204.7197,846.8162,214.07,849.91" style="stroke:#181818;stroke-width:1;"/><text fill="#000000" font-family="sans-serif" font-size="13" lengthAdjust="spacing" textLength="204.4771" x="192" y="816.0669">[2] PointTriggered &amp;&amp; PointLeft</text></g><!--link WAITING_COMMAND_RIGHT to TOP_COMMAND_RIGHT--><g class="link" data-entity-1="ent0005" data-entity-2="ent0008" data-link-type="dependency" data-source-line="11" id="lnk10"><path d="M359.8,322.32 C370.41,344.78 382.2066,369.7152 393.4766,393.5652" fill="none" id="WAITING_COMMAND_RIGHT-to-TOP_COMMAND_RIGHT" style="stroke:#181818;stroke-width:1;"/><polygon fill="#181818" points="396.04,398.99,395.8114,389.1438,393.9038,394.4693,388.5783,392.5617,396.04,398.99" style="stroke:#181818;stroke-width:1;"/><text fill="#000000" font-family="sans-serif" font-size="13" lengthAdjust="spacing" textLength="57.3003" x="382" y="365.0669">[1] IsTop</text></g><!--link WAITING_COMMAND_LEFT to TOP_COMMAND_LEFT--><g class="link" data-entity-1="ent0006" data-entity-2="ent0007" data-link-type="dependency" data-source-line="13" id="lnk12"><path d="M256.62,914.22 C255.19,928.67 254.99,945.94 259,961 C261.73,971.26 263.5133,976.3311 268.7133,985.7211" fill="none" id="WAITING_COMMAND_LEFT-to-TOP_COMMAND_LEFT" style="stroke:#181818;stroke-width:1;"/><polygon fill="#181818" points="271.62,990.97,270.7592,981.1588,269.1977,986.5959,263.7606,985.0345,271.62,990.97" style="stroke:#181818;stroke-width:1;"/><text fill="#000000" font-family="sans-serif" font-size="13" lengthAdjust="spacing" textLength="57.3003" x="260" y="957.0669">[1] IsTop</text></g><!--link TOP_COMMAND_LEFT to DELAY_TOP--><g class="link" data-entity-1="ent0007" data-entity-2="ent0009" data-link-type="dependency" data-source-line="16" id="lnk14"><path d="M325.71,990.62 C337.42,975.44 351.66,958.25 366,944 C381.26,928.83 392.87,932.42 404,914 C461.93,818.11 467.178,685.7594 466.278,624.3794" fill="none" id="TOP_COMMAND_LEFT-to-DELAY_TOP" style="stroke:#181818;stroke-width:1;"/><polygon fill="#181818" points="466.19,618.38,462.3224,627.4377,466.2633,623.3795,470.3215,627.3204,466.19,618.38" style="stroke:#181818;stroke-width:1;"/><text fill="#000000" font-family="sans-serif" font-size="13" lengthAdjust="spacing" textLength="18.4146" x="448" y="816.0669">[1]</text></g><!--link TOP_COMMAND_RIGHT to DELAY_TOP--><g class="link" data-entity-1="ent0008" data-entity-2="ent0009" data-link-type="dependency" data-source-line="17" id="lnk15"><path d="M427.4,477.36 C435.72,501.19 444.3007,525.7559 452.1107,548.1059" fill="none" id="TOP_COMMAND_RIGHT-to-DELAY_TOP" style="stroke:#181818;stroke-width:1;"/><polygon fill="#181818" points="454.09,553.77,454.8972,543.9543,452.4406,549.0499,447.345,546.5933,454.09,553.77" style="stroke:#181818;stroke-width:1;"/><text fill="#000000" font-family="sans-serif" font-size="13" lengthAdjust="spacing" textLength="18.4146" x="443" y="520.0669">[1]</text></g><!--link DELAY_TOP to IDLE_LEFT--><g class="link" data-entity-1="ent0009" data-entity-2="ent0002" data-link-type="dependency" data-source-line="19" id="lnk16"><path d="M515.39,553.83 C540.78,535.05 569.07,508.64 583,477 C630.67,368.75 632.54,314.34 575,211 C568.67,199.63 564.1712,193.5947 553.9612,185.1847" fill="none" id="DELAY_TOP-to-IDLE_LEFT" style="stroke:#181818;stroke-width:1;"/><polygon fill="#181818" points="549.33,181.37,553.7336,190.1795,553.1893,184.5489,558.8199,184.0046,549.33,181.37" style="stroke:#181818;stroke-width:1;"/><text fill="#000000" font-family="sans-serif" font-size="13" lengthAdjust="spacing" textLength="186.3926" x="619" y="365.0669">[1] TopTimeout &amp;&amp; PointLeft</text></g><!--link DELAY_TOP to IDLE_RIGHT--><g class="link" data-entity-1="ent0009" data-entity-2="ent0003" data-link-type="dependency" data-source-line="20" id="lnk17"><path d="M491.51,618.32 C539.72,677.42 640.63,811.41 682,944 C686.62,958.82 688.1546,969.7818 688.5146,984.6318" fill="none" id="DELAY_TOP-to-IDLE_RIGHT" style="stroke:#181818;stroke-width:1;"/><polygon fill="#181818" points="688.66,990.63,692.4407,981.5357,688.5388,985.6315,684.4431,981.7296,688.66,990.63" style="stroke:#181818;stroke-width:1;"/><text fill="#000000" font-family="sans-serif" font-size="13" lengthAdjust="spacing" textLength="195.7109" x="628" y="816.0669">[2] TopTimeout &amp;&amp; PointRight</text></g><!--link DELAY_TOP to IDLE_UNDETERMINED--><g class="link" data-entity-1="ent0009" data-entity-2="ent0004" data-link-type="dependency" data-source-line="21" id="lnk18"><path d="M375.86,618.13 C354.46,626.8 332.01,636.91 312,648 C287.87,661.37 267.7194,675.3764 247.1894,691.1364" fill="none" id="DELAY_TOP-to-IDLE_UNDETERMINED" style="stroke:#181818;stroke-width:1;"/><polygon fill="#181818" points="242.43,694.79,252.0047,692.4826,246.3961,691.7454,247.1333,686.1368,242.43,694.79" style="stroke:#181818;stroke-width:1;"/><text fill="#000000" font-family="sans-serif" font-size="13" lengthAdjust="spacing" textLength="100.1978" x="313" y="661.0669">[3] TopTimeout</text></g><?plantuml-src dPHHIyCm58NVyoloj0TX3ywtW49PumnqNPbHaJ76i746N29TDlNVssLTcxQtQ-jJ2Jtdt2ytbxkuMkBXy0upFw2hWDvpWXVNInnfgKmWtWrQk88vcpmS5QDCCPURZuhaAVGff_Cf2wcVAc-M2ENPLlNYCSx2oMeycqwzqCypprLv8ZSRaOWO5IL1OuMsudCv-jN5Wu5xksvf6SoeCSms4u4GDf3F8WYDxRZ-kc1ptwrM746KjMf57-5YkGaSWQ8OgePQaqy3xtML_h8bKEsQa0ZbPsWsKqOkjqBlJRcvWCc11LodzmLijHbstCuu4nmbuY3rVcVZ7itQ27oBYmCXHvbhI7DIXVTcv44mjRPVGhmnPy_KrPspwFxpL_sCzNQxLh68gOeZlPD6QaL8EEFdLb8VkVTjnRAwagKTB1F-awpSqbP0Lmu5jEEMzVsfKSE-wDZR1lT5RdYdT9ins7kn7Ael0LZFmim16bAAnAGkfRy1GPV6smi0-wy7JU5emkanlgSNHCvIQY5nbFq7xGy0?></g></svg>