<?plantuml 1.2026.1?><svg xmlns="http://www.w3.org/2000/svg" xmlns:xlink="http://www.w3.org/1999/xlink" contentStyleType="text/css" data-diagram-type="STATE" height="417px" preserveAspectRatio="none" style="width:1054px;height:417px;background:#FFFFFF;" version="1.1" viewBox="0 0 1054 417" width="1054px" zoomAndPan="magnify"><defs/><g><g class="entity" data-qualified-name="c" id="ent0002"><polygon fill="#F1F1F1" points="470.5,6,482.5,18,470.5,30,458.5,18,470.5,6" style="stroke:#181818;stroke-width:0.5;"/></g><g><rect fill="#F1F1F1" height="50.2656" rx="12.5" ry="12.5" style="stroke:#181818;stroke-width:0.5;" width="207.5059" x="526.5" y="361"/><line style="stroke:#181818;stroke-width:0.5;" x1="526.5" x2="734.0059" y1="387.2969" y2="387.2969"/><text fill="#000000" font-family="sans-serif" font-size="14" lengthAdjust="spacing" textLength="73.3086" x="593.5986" y="378.9951">RELEASED</text><text fill="#000000" font-family="sans-serif" font-size="12" lengthAdjust="spacing" textLength="187.5059" x="531.5" y="403.4355">State = RouteState::RELEASED</text></g><g><rect fill="#F1F1F1" height="50.2656" rx="12.5" ry="12.5" style="stroke:#181818;stroke-width:0.5;" width="167.1992" x="7" y="234"/><line style="stroke:#181818;stroke-width:0.5;" x1="7" x2="174.1992" y1="260.2969" y2="260.2969"/><text fill="#000000" font-family="sans-serif" font-size="14" lengthAdjust="spacing" textLength="26.2842" x="77.4575" y="251.9951">SET</text><text fill="#000000" font-family="sans-serif" font-size="12" lengthAdjust="spacing" textLength="147.1992" x="12" y="276.4355">State = RouteState::SET</text></g><g><rect fill="#F1F1F1" height="50.2656" rx="12.5" ry="12.5" style="stroke:#181818;stroke-width:0.5;" width="213.4238" x="364" y="107"/><line style="stroke:#181818;stroke-width:0.5;" x1="364" x2="577.4238" y1="133.2969" y2="133.2969"/><text fill="#000000" font-family="sans-serif" font-size="14" lengthAdjust="spacing" textLength="80.2129" x="430.6055" y="124.9951">PREPARING</text><text fill="#000000" font-family="sans-serif" font-size="12" lengthAdjust="spacing" textLength="193.4238" x="369" y="149.4355">State = RouteState::PREPARING</text></g><ellipse cx="693.5" cy="259" fill="#222222" rx="10" ry="10" style="stroke:#222222;stroke-width:1;"/><!--link *start* to RELEASED--><g class="link" data-entity-1="ent0002" data-entity-2="ent0003" data-link-type="dependency" data-source-line="4" id="lnk3"><path d="M689.37,268.2 C680.03,286.72 659.7198,327.0218 645.3898,355.4618" fill="none" id="*start*-to-RELEASED" style="stroke:#181818;stroke-width:1;"/><polygon fill="#181818" points="642.69,360.82,650.3119,354.5825,644.9399,356.3548,643.1676,350.9827,642.69,360.82" style="stroke:#181818;stroke-width:1;"/><text fill="#000000" font-family="sans-serif" font-size="13" lengthAdjust="spacing" textLength="18.4146" x="666.5" y="327.0669">[1]</text></g><!--link RELEASED to c--><g class="link" data-entity-1="ent0003" data-entity-2="ent0002" data-link-type="dependency" data-source-line="5" id="lnk4"><path d="M633.48,360.99 C638.56,310.11 644.02,189.38 594.5,107 C566.08,59.71 507.0048,33.1732 484.2148,24.2232" fill="none" id="RELEASED-to-c" style="stroke:#181818;stroke-width:1;"/><polygon fill="#181818" points="478.63,22.03,485.545,29.043,483.284,23.8577,488.4693,21.5967,478.63,22.03" style="stroke:#181818;stroke-width:1;"/><text fill="#000000" font-family="sans-serif" font-size="13" lengthAdjust="spacing" textLength="416.7109" x="629.5" y="200.0669">[1] RouteRequested &amp;&amp; MatchesDiversion &amp;&amp; MatchesDirection</text></g><!--link c to SET--><g class="link" data-entity-1="ent0002" data-entity-2="ent0004" data-link-type="dependency" data-source-line="6" id="lnk5"><path d="M459.59,19.49 C398.7,22.45 101.81,40.23 47.5,107 C17.23,144.22 45.4404,196.7279 68.2004,228.9779" fill="none" id="c-to-SET" style="stroke:#181818;stroke-width:1;"/><polygon fill="#181818" points="71.66,233.88,69.7387,224.2204,68.777,229.7949,63.2025,228.8332,71.66,233.88" style="stroke:#181818;stroke-width:1;"/><text fill="#000000" font-family="sans-serif" font-size="13" lengthAdjust="spacing" textLength="297.6035" x="48.5" y="136.5669">[1] PointsAvailable &amp;&amp; NoIncompatibleRoutes</text></g><!--link c to PREPARING--><g class="link" data-entity-1="ent0002" data-entity-2="ent0005" data-link-type="dependency" data-source-line="7" id="lnk6"><path d="M470.5,30.15 C470.5,47.85 470.5,76.82 470.5,100.56" fill="none" id="c-to-PREPARING" style="stroke:#181818;stroke-width:1;"/><polygon fill="#181818" points="470.5,106.56,474.5,97.56,470.5,101.56,466.5,97.56,470.5,106.56" style="stroke:#181818;stroke-width:1;"/><text fill="#000000" font-family="sans-serif" font-size="13" lengthAdjust="spacing" textLength="18.4146" x="471.5" y="73.0669">[3]</text></g><!--link PREPARING to SET--><g class="link" data-entity-1="ent0005" data-entity-2="ent0004" data-link-type="dependency" data-source-line="8" id="lnk7"><path d="M385.93,157.03 C355.14,166.05 320.14,176.64 288.5,187 C243.56,201.71 199.0512,217.6388 160.4712,231.8288" fill="none" id="PREPARING-to-SET" style="stroke:#181818;stroke-width:1;"/><polygon fill="#181818" points="154.84,233.9,164.6676,234.5473,159.5326,232.174,161.906,227.0391,154.84,233.9" style="stroke:#181818;stroke-width:1;"/><text fill="#000000" font-family="sans-serif" font-size="13" lengthAdjust="spacing" textLength="297.6035" x="289.5" y="200.0669">[1] PointsAvailable &amp;&amp; NoIncompatibleRoutes</text></g><!--link SET to RELEASED--><g class="link" data-entity-1="ent0004" data-entity-2="ent0003" data-link-type="dependency" data-source-line="9" id="lnk8"><path d="M81.63,284.32 C77.77,299.58 76.32,318.65 87.5,331 C116.33,362.84 370.8839,376.4549 520.3339,381.8149" fill="none" id="SET-to-RELEASED" style="stroke:#181818;stroke-width:1;"/><polygon fill="#181818" points="526.33,382.03,517.4791,377.71,521.3332,381.8508,517.1924,385.7049,526.33,382.03" style="stroke:#181818;stroke-width:1;"/><text fill="#000000" font-family="sans-serif" font-size="13" lengthAdjust="spacing" textLength="515.7217" x="88.5" y="327.0669">[1] AutomaticReleaseEffective || ManualReleaseEffective || RouteBecameUnset</text></g><?plantuml-src dL0zQyCm4DtrAsxAKF1GkfdKu19H0gqnSZi53-hrGWIsr4PdJ_dnbHGdJi1JntjVT-yyQoP0MA_nu0nIKGYnUsWXomfGyasMZTpai7jinMLA5482GRc1IT7lG9xf6rOhUDUC1_8RCzBH6sVli2CX1qnW2cdannHJEsFPbwCsdVxgA7egjxNe-X_D9Y1fZvzyjP9rgRRLQtG_jMAU_vSQ7RTz9tiviEk341Lrf3t9_JwUFnASJg6I7NItnAJG5qBTqwVrn4BCVspIjv_FcZJa-OMDPomh0Z5tN9PSQV47?></g></svg>