<?plantuml 1.2026.1?><svg xmlns="http://www.w3.org/2000/svg" xmlns:xlink="http://www.w3.org/1999/xlink" contentStyleType="text/css" data-diagram-type="STATE" height="1048px" preserveAspectRatio="none" style="width:2942px;height:1048px;background:#FFFFFF;" version="1.1" viewBox="0 0 2942 1048" width="2942px" zoomAndPan="magnify"><defs/><g><path d="M19.5,7 L2785.8442,7 A12.5,12.5 0 0 1 2798.3442,19.5 L2798.3442,33.2969 L7,33.2969 L7,19.5 A12.5,12.5 0 0 1 19.5,7" fill="#F1F1F1"/><rect fill="none" height="866.4688" rx="12.5" ry="12.5" style="stroke:#181818;stroke-width:0.5;" width="2791.3442" x="7" y="7"/><line style="stroke:#181818;stroke-width:0.5;" x1="7" x2="2798.3442" y1="33.2969" y2="33.2969"/><text fill="#000000" font-family="sans-serif" font-size="14" lengthAdjust="spacing" textLength="190.374" x="1307.4851" y="24.9951">ETCS_APPROACH_LOCKING</text><g><rect fill="#F1F1F1" height="92.1719" rx="12.5" ry="12.5" style="stroke:#181818;stroke-width:0.5;" width="450.0254" x="730" y="117.2969"/><line style="stroke:#181818;stroke-width:0.5;" x1="730" x2="1180.0254" y1="143.5938" y2="143.5938"/><text fill="#000000" font-family="sans-serif" font-size="14" lengthAdjust="spacing" textLength="81.6758" x="914.1748" y="135.292">ROUTE_SET</text><text fill="#000000" font-family="sans-serif" font-size="12" lengthAdjust="spacing" textLength="321.7969" x="735" y="159.7324">ManualReleaseRequested = ActiveInactive::INACTIVE</text><text fill="#000000" font-family="sans-serif" font-size="12" lengthAdjust="spacing" textLength="301.9453" x="735" y="173.7012">HoldApproachLocking = OpenCloseState::CLOSED</text><text fill="#000000" font-family="sans-serif" font-size="12" lengthAdjust="spacing" textLength="430.0254" x="735" y="187.6699">ManualReleaseWithholdMovementAuthority = ActiveInactive::INACTIVE</text><text fill="#000000" font-family="sans-serif" font-size="12" lengthAdjust="spacing" textLength="322.1426" x="735" y="201.6387">ManualReleasePrevention = ActiveInactive::INACTIVE</text></g><g><rect fill="#F1F1F1" height="92.1719" rx="12.5" ry="12.5" style="stroke:#181818;stroke-width:0.5;" width="450.0254" x="991" y="262.2969"/><line style="stroke:#181818;stroke-width:0.5;" x1="991" x2="1441.0254" y1="288.5938" y2="288.5938"/><text fill="#000000" font-family="sans-serif" font-size="14" lengthAdjust="spacing" textLength="162.627" x="1134.6992" y="280.292">MARKER_BOARD_OPEN</text><text fill="#000000" font-family="sans-serif" font-size="12" lengthAdjust="spacing" textLength="321.7969" x="996" y="304.7324">ManualReleaseRequested = ActiveInactive::INACTIVE</text><text fill="#000000" font-family="sans-serif" font-size="12" lengthAdjust="spacing" textLength="286.2363" x="996" y="318.7012">HoldApproachLocking = OpenCloseState::OPEN</text><text fill="#000000" font-family="sans-serif" font-size="12" lengthAdjust="spacing" textLength="430.0254" x="996" y="332.6699">ManualReleaseWithholdMovementAuthority = ActiveInactive::INACTIVE</text><text fill="#000000" font-family="sans-serif" font-size="12" lengthAdjust="spacing" textLength="322.1426" x="996" y="346.6387">ManualReleasePrevention = ActiveInactive::INACTIVE</text></g><g><rect fill="#F1F1F1" height="106.1406" rx="12.5" ry="12.5" style="stroke:#181818;stroke-width:0.5;" width="437.5098" x="1133" y="437.2969"/><line style="stroke:#181818;stroke-width:0.5;" x1="1133" x2="1570.5098" y1="463.5938" y2="463.5938"/><text fill="#000000" font-family="sans-serif" font-size="14" lengthAdjust="spacing" textLength="105.834" x="1298.8379" y="455.292">WITHHOLD_MA</text><text fill="#000000" font-family="sans-serif" font-size="12" lengthAdjust="spacing" textLength="321.7969" x="1138" y="479.7324">ManualReleaseRequested = ActiveInactive::INACTIVE</text><text fill="#000000" font-family="sans-serif" font-size="12" lengthAdjust="spacing" textLength="286.2363" x="1138" y="493.7012">HoldApproachLocking = OpenCloseState::OPEN</text><text fill="#000000" font-family="sans-serif" font-size="12" lengthAdjust="spacing" textLength="417.5098" x="1138" y="507.6699">ManualReleaseWithholdMovementAuthority = ActiveInactive::ACTIVE</text><text fill="#000000" font-family="sans-serif" font-size="12" lengthAdjust="spacing" textLength="322.1426" x="1138" y="521.6387">ManualReleasePrevention = ActiveInactive::INACTIVE</text><text fill="#000000" font-family="sans-serif" font-size="12" lengthAdjust="spacing" textLength="244.2715" x="1138" y="535.6074">StartWithholdMovementAuthority = now</text></g><g><rect fill="#F1F1F1" height="92.1719" rx="12.5" ry="12.5" style="stroke:#181818;stroke-width:0.5;" width="450.0254" x="510" y="444.2969"/><line style="stroke:#181818;stroke-width:0.5;" x1="510" x2="960.0254" y1="470.5938" y2="470.5938"/><text fill="#000000" font-family="sans-serif" font-size="14" lengthAdjust="spacing" textLength="151.9971" x="659.0142" y="462.292">TRAIN_APPROACHING</text><text fill="#000000" font-family="sans-serif" font-size="12" lengthAdjust="spacing" textLength="321.7969" x="515" y="486.7324">ManualReleaseRequested = ActiveInactive::INACTIVE</text><text fill="#000000" font-family="sans-serif" font-size="12" lengthAdjust="spacing" textLength="286.2363" x="515" y="500.7012">HoldApproachLocking = OpenCloseState::OPEN</text><text fill="#000000" font-family="sans-serif" font-size="12" lengthAdjust="spacing" textLength="430.0254" x="515" y="514.6699">ManualReleaseWithholdMovementAuthority = ActiveInactive::INACTIVE</text><text fill="#000000" font-family="sans-serif" font-size="12" lengthAdjust="spacing" textLength="309.627" x="515" y="528.6387">ManualReleasePrevention = ActiveInactive::ACTIVE</text></g><g><rect fill="#F1F1F1" height="92.1719" rx="12.5" ry="12.5" style="stroke:#181818;stroke-width:0.5;" width="450.0254" x="556" y="596.2969"/><line style="stroke:#181818;stroke-width:0.5;" x1="556" x2="1006.0254" y1="622.5938" y2="622.5938"/><text fill="#000000" font-family="sans-serif" font-size="14" lengthAdjust="spacing" textLength="119.5605" x="721.2324" y="614.292">APPROACH_FREE</text><text fill="#000000" font-family="sans-serif" font-size="12" lengthAdjust="spacing" textLength="321.7969" x="561" y="638.7324">ManualReleaseRequested = ActiveInactive::INACTIVE</text><text fill="#000000" font-family="sans-serif" font-size="12" lengthAdjust="spacing" textLength="301.9453" x="561" y="652.7012">HoldApproachLocking = OpenCloseState::CLOSED</text><text fill="#000000" font-family="sans-serif" font-size="12" lengthAdjust="spacing" textLength="430.0254" x="561" y="666.6699">ManualReleaseWithholdMovementAuthority = ActiveInactive::INACTIVE</text><text fill="#000000" font-family="sans-serif" font-size="12" lengthAdjust="spacing" textLength="309.627" x="561" y="680.6387">ManualReleasePrevention = ActiveInactive::ACTIVE</text></g><g><rect fill="#F1F1F1" height="106.1406" rx="12.5" ry="12.5" style="stroke:#181818;stroke-width:0.5;" width="450.0254" x="2246" y="437.2969"/><line style="stroke:#181818;stroke-width:0.5;" x1="2246" x2="2696.0254" y1="463.5938" y2="463.5938"/><text fill="#000000" font-family="sans-serif" font-size="14" lengthAdjust="spacing" textLength="198.9258" x="2371.5498" y="455.292">TRAIN_APPROACHING_ZONE</text><text fill="#000000" font-family="sans-serif" font-size="12" lengthAdjust="spacing" textLength="321.7969" x="2251" y="479.7324">ManualReleaseRequested = ActiveInactive::INACTIVE</text><text fill="#000000" font-family="sans-serif" font-size="12" lengthAdjust="spacing" textLength="286.2363" x="2251" y="493.7012">HoldApproachLocking = OpenCloseState::OPEN</text><text fill="#000000" font-family="sans-serif" font-size="12" lengthAdjust="spacing" textLength="430.0254" x="2251" y="507.6699">ManualReleaseWithholdMovementAuthority = ActiveInactive::INACTIVE</text><text fill="#000000" font-family="sans-serif" font-size="12" lengthAdjust="spacing" textLength="322.1426" x="2251" y="521.6387">ManualReleasePrevention = ActiveInactive::INACTIVE</text><text fill="#000000" font-family="sans-serif" font-size="12" lengthAdjust="spacing" textLength="241.459" x="2251" y="535.6074">StartUnsupervisedTrainApproach = now</text></g><g><rect fill="#F1F1F1" height="92.1719" rx="12.5" ry="12.5" style="stroke:#181818;stroke-width:0.5;" width="450.0254" x="1967" y="596.2969"/><line style="stroke:#181818;stroke-width:0.5;" x1="1967" x2="2417.0254" y1="622.5938" y2="622.5938"/><text fill="#000000" font-family="sans-serif" font-size="14" lengthAdjust="spacing" textLength="194.4414" x="2094.792" y="614.292">APPROACH_ZONE_TIMEOUT</text><text fill="#000000" font-family="sans-serif" font-size="12" lengthAdjust="spacing" textLength="321.7969" x="1972" y="638.7324">ManualReleaseRequested = ActiveInactive::INACTIVE</text><text fill="#000000" font-family="sans-serif" font-size="12" lengthAdjust="spacing" textLength="286.2363" x="1972" y="652.7012">HoldApproachLocking = OpenCloseState::OPEN</text><text fill="#000000" font-family="sans-serif" font-size="12" lengthAdjust="spacing" textLength="430.0254" x="1972" y="666.6699">ManualReleaseWithholdMovementAuthority = ActiveInactive::INACTIVE</text><text fill="#000000" font-family="sans-serif" font-size="12" lengthAdjust="spacing" textLength="322.1426" x="1972" y="680.6387">ManualReleasePrevention = ActiveInactive::INACTIVE</text></g><g><rect fill="#F1F1F1" height="92.1719" rx="12.5" ry="12.5" style="stroke:#181818;stroke-width:0.5;" width="450.0254" x="1032" y="771.2969"/><line style="stroke:#181818;stroke-width:0.5;" x1="1032" x2="1482.0254" y1="797.5938" y2="797.5938"/><text fill="#000000" font-family="sans-serif" font-size="14" lengthAdjust="spacing" textLength="186.7373" x="1163.644" y="789.292">MANUAL_RELEASE_ACTIVE</text><text fill="#000000" font-family="sans-serif" font-size="12" lengthAdjust="spacing" textLength="309.2813" x="1037" y="813.7324">ManualReleaseRequested = ActiveInactive::ACTIVE</text><text fill="#000000" font-family="sans-serif" font-size="12" lengthAdjust="spacing" textLength="301.9453" x="1037" y="827.7012">HoldApproachLocking = OpenCloseState::CLOSED</text><text fill="#000000" font-family="sans-serif" font-size="12" lengthAdjust="spacing" textLength="430.0254" x="1037" y="841.6699">ManualReleaseWithholdMovementAuthority = ActiveInactive::INACTIVE</text><text fill="#000000" font-family="sans-serif" font-size="12" lengthAdjust="spacing" textLength="322.1426" x="1037" y="855.6387">ManualReleasePrevention = ActiveInactive::INACTIVE</text></g><ellipse cx="1085" cy="54.2969" fill="#222222" rx="10" ry="10" style="stroke:#222222;stroke-width:1;"/><!--link *start*ETCS_APPROACH_LOCKING to MARKER_BOARD_OPEN--><g class="link" data-entity-1="ent0006" data-entity-2="ent0004" data-link-type="dependency" data-source-line="8" id="lnk7"><path d="M1094.41,57.8769 C1115.33,64.1469 1165.71,82.2969 1189,117.2969 C1217.61,160.2869 1221.6742,214.8804 1220.2742,255.9904" fill="none" id="*start*ETCS_APPROACH_LOCKING-to-MARKER_BOARD_OPEN" style="stroke:#181818;stroke-width:1;"/><polygon fill="#181818" points="1220.07,261.9869,1224.374,253.1282,1220.2402,256.9898,1216.3786,252.8559,1220.07,261.9869" style="stroke:#181818;stroke-width:1;"/><text fill="#000000" font-family="sans-serif" font-size="13" lengthAdjust="spacing" textLength="117.5967" x="1219" y="167.8638">[1] RouteIsLocked</text></g><!--link *start*ETCS_APPROACH_LOCKING to ROUTE_SET--><g class="link" data-entity-1="ent0006" data-entity-2="ent0003" data-link-type="dependency" data-source-line="9" id="lnk8"><path d="M1077.64,61.3569 C1064.53,72.1469 1040.7036,91.765 1014.4836,113.335" fill="none" id="*start*ETCS_APPROACH_LOCKING-to-ROUTE_SET" style="stroke:#181818;stroke-width:1;"/><polygon fill="#181818" points="1009.85,117.1469,1019.3416,114.5182,1013.7113,113.9704,1014.2591,108.3401,1009.85,117.1469" style="stroke:#181818;stroke-width:1;"/><text fill="#000000" font-family="sans-serif" font-size="13" lengthAdjust="spacing" textLength="18.4146" x="1051" y="95.3638">[2]</text></g><!--link ROUTE_SET to MARKER_BOARD_OPEN--><g class="link" data-entity-1="ent0003" data-entity-2="ent0004" data-link-type="dependency" data-source-line="11" id="lnk9"><path d="M1023.88,209.3869 C1042.78,221.1969 1063.46,233.6069 1083,244.2969 C1093.98,250.3069 1100.2679,253.6447 1111.9279,259.4447" fill="none" id="ROUTE_SET-to-MARKER_BOARD_OPEN" style="stroke:#181818;stroke-width:1;"/><polygon fill="#181818" points="1117.3,262.1169,1111.0234,254.5272,1112.8233,259.89,1107.4604,261.6899,1117.3,262.1169" style="stroke:#181818;stroke-width:1;"/><text fill="#000000" font-family="sans-serif" font-size="13" lengthAdjust="spacing" textLength="117.5967" x="1084" y="240.3638">[1] RouteIsLocked</text></g><!--link ROUTE_SET to MANUAL_RELEASE_ACTIVE--><g class="link" data-entity-1="ent0003" data-entity-2="ent0010" data-link-type="dependency" data-source-line="12" id="lnk10"><path d="M729.97,176.7569 C452.74,195.2069 18,235.5569 18,307.2969 C18,307.2969 18,307.2969 18,643.2969 C18,744.4969 668.707,789.7468 1025.917,807.0368" fill="none" id="ROUTE_SET-to-MANUAL_RELEASE_ACTIVE" style="stroke:#181818;stroke-width:1;"/><polygon fill="#181818" points="1031.91,807.3269,1023.1139,802.8964,1026.9158,807.0851,1022.7271,810.8871,1031.91,807.3269" style="stroke:#181818;stroke-width:1;"/><text fill="#000000" font-family="sans-serif" font-size="13" lengthAdjust="spacing" textLength="468.4761" x="19" y="487.3638">[2] (CommandUnsetManualReleaseRestriction &amp;&amp; ReleasePrevention) ||</text><text fill="#000000" font-family="sans-serif" font-size="13" lengthAdjust="spacing" textLength="321.8008" x="96.47" y="502.4966">(CommandReleaseRoute &amp;&amp; !ReleasePrevention)</text></g><!--link MARKER_BOARD_OPEN to WITHHOLD_MA--><g class="link" data-entity-1="ent0004" data-entity-2="ent0005" data-link-type="dependency" data-source-line="14" id="lnk11"><path d="M1339.94,354.5569 C1345.66,359.8369 1350.76,365.7269 1355,372.2969 C1367.17,391.1669 1369.0054,409.5921 1366.3354,431.2121" fill="none" id="MARKER_BOARD_OPEN-to-WITHHOLD_MA" style="stroke:#181818;stroke-width:1;"/><polygon fill="#181818" points="1365.6,437.1669,1370.6729,428.725,1366.2128,432.2046,1362.7332,427.7445,1365.6,437.1669" style="stroke:#181818;stroke-width:1;"/><text fill="#000000" font-family="sans-serif" font-size="13" lengthAdjust="spacing" textLength="179.061" x="1367" y="400.3638">[1] CommandReleaseRoute</text></g><!--link MARKER_BOARD_OPEN to TRAIN_APPROACHING--><g class="link" data-entity-1="ent0004" data-entity-2="ent0006" data-link-type="dependency" data-source-line="15" id="lnk12"><path d="M990.84,309.5269 C740.97,312.1869 366.75,324.2769 322,372.2969 C307.76,387.5769 308.01,403.7869 322,419.2969 C348.03,448.1669 457.62,431.1569 496,437.2969 C509.1,439.3969 516.6713,440.659 530.2113,443.179" fill="none" id="MARKER_BOARD_OPEN-to-TRAIN_APPROACHING" style="stroke:#181818;stroke-width:1;"/><polygon fill="#181818" points="536.11,444.2769,527.9938,438.6976,531.1944,443.362,526.53,446.5626,536.11,444.2769" style="stroke:#181818;stroke-width:1;"/><text fill="#000000" font-family="sans-serif" font-size="13" lengthAdjust="spacing" textLength="275.3931" x="425.0735" y="385.3638">[2] ApproachTaken &amp;&amp; ManualSignalClose</text><text fill="#000000" font-family="sans-serif" font-size="13" lengthAdjust="spacing" textLength="475.4077" x="327.1323" y="400.4966">&amp;&amp; ((CommandUnsetManualReleaseRestriction &amp;&amp; ReleasePrevention) ||</text><text fill="#000000" font-family="sans-serif" font-size="13" lengthAdjust="spacing" textLength="326.8726" x="403.4661" y="415.6294">(CommandReleaseRoute &amp;&amp; !ReleasePrevention))</text></g><!--link MARKER_BOARD_OPEN to TRAIN_APPROACHING_ZONE--><g class="link" data-entity-1="ent0004" data-entity-2="ent0008" data-link-type="dependency" data-source-line="16" id="lnk13"><path d="M1441.09,313.3669 C1690.5,319.6869 2065.01,335.2669 2120,372.2969 C2139.29,385.2869 2124.59,405.0869 2143,419.2969 C2174.94,443.9669 2192.5,429.0069 2232,437.2969 C2236.57,438.2569 2235.321,437.98 2239.981,438.97" fill="none" id="MARKER_BOARD_OPEN-to-TRAIN_APPROACHING_ZONE" style="stroke:#181818;stroke-width:1;"/><polygon fill="#181818" points="2245.85,440.2169,2237.8777,434.4339,2240.9592,439.1778,2236.2152,442.2593,2245.85,440.2169" style="stroke:#181818;stroke-width:1;"/><text fill="#000000" font-family="sans-serif" font-size="13" lengthAdjust="spacing" textLength="465.1689" x="2151.1855" y="385.3638">[3] !ApproachTaken &amp;&amp; ApproachZoneOccupied &amp;&amp; ManualSignalClose</text><text fill="#000000" font-family="sans-serif" font-size="13" lengthAdjust="spacing" textLength="475.4077" x="2148.1323" y="400.4966">&amp;&amp; ((CommandUnsetManualReleaseRestriction &amp;&amp; ReleasePrevention) ||</text><text fill="#000000" font-family="sans-serif" font-size="13" lengthAdjust="spacing" textLength="326.8726" x="2224.4661" y="415.6294">(CommandReleaseRoute &amp;&amp; !ReleasePrevention))</text></g><!--link MARKER_BOARD_OPEN to MANUAL_RELEASE_ACTIVE--><g class="link" data-entity-1="ent0004" data-entity-2="ent0010" data-link-type="dependency" data-source-line="17" id="lnk14"><path d="M1441.35,335.7869 C1489.48,345.0269 1531.67,357.0269 1551,372.2969 C1575.82,391.9069 1572.93,406.4669 1580,437.2969 C1586.24,464.4869 1600.74,665.2669 1585,688.2969 C1559.31,725.8969 1526.2623,749.9963 1484.5623,768.7463" fill="none" id="MARKER_BOARD_OPEN-to-MANUAL_RELEASE_ACTIVE" style="stroke:#181818;stroke-width:1;"/><polygon fill="#181818" points="1479.09,771.2069,1488.9388,771.1642,1483.6502,769.1564,1485.658,763.8679,1479.09,771.2069" style="stroke:#181818;stroke-width:1;"/><text fill="#000000" font-family="sans-serif" font-size="13" lengthAdjust="spacing" textLength="576.4434" x="1592" y="574.3638">[4] !ApproachTaken &amp;&amp; PassageLock &amp;&amp; CommandReleaseRoute &amp;&amp; ReleasePrevention</text></g><!--link WITHHOLD_MA to MARKER_BOARD_OPEN--><g class="link" data-entity-1="ent0005" data-entity-2="ent0004" data-link-type="dependency" data-source-line="19" id="lnk15"><path d="M1132.79,439.3569 C1087.44,428.7869 1052.9,420.4269 1052,419.2969 C1039.02,402.9369 1040.17,389.5169 1052,372.2969 C1056.58,365.6369 1057.4809,363.6691 1063.4609,358.3391" fill="none" id="WITHHOLD_MA-to-MARKER_BOARD_OPEN" style="stroke:#181818;stroke-width:1;"/><polygon fill="#181818" points="1067.94,354.3469,1058.5599,357.3492,1064.2074,357.6737,1063.8829,363.3213,1067.94,354.3469" style="stroke:#181818;stroke-width:1;"/><text fill="#000000" font-family="sans-serif" font-size="13" lengthAdjust="spacing" textLength="297.3179" x="1053" y="400.3638">[1] ApproachTaken || ApproachZoneOccupied</text></g><!--link WITHHOLD_MA to MANUAL_RELEASE_ACTIVE--><g class="link" data-entity-1="ent0005" data-entity-2="ent0010" data-link-type="dependency" data-source-line="20" id="lnk16"><path d="M1302.15,543.3769 C1289.81,559.2169 1278.1,577.4469 1271,596.2969 C1249.34,653.7769 1248.9451,719.6699 1251.9551,765.2999" fill="none" id="WITHHOLD_MA-to-MANUAL_RELEASE_ACTIVE" style="stroke:#181818;stroke-width:1;"/><polygon fill="#181818" points="1252.35,771.2869,1255.7489,762.0431,1252.0209,766.2977,1247.7663,762.5697,1252.35,771.2869" style="stroke:#181818;stroke-width:1;"/><text fill="#000000" font-family="sans-serif" font-size="13" lengthAdjust="spacing" textLength="312.3047" x="1272" y="646.8638">[2] TimeoutWithholdMovementAuthorityExpired</text></g><!--link TRAIN_APPROACHING to MARKER_BOARD_OPEN--><g class="link" data-entity-1="ent0006" data-entity-2="ent0004" data-link-type="dependency" data-source-line="22" id="lnk17"><path d="M786.19,443.9269 C793.64,436.1069 800.86,427.7669 807,419.2969 C820.65,400.4669 811.33,386.1569 830,372.2969 C857.22,352.0769 916.0174,338.8748 984.8474,329.2848" fill="none" id="TRAIN_APPROACHING-to-MARKER_BOARD_OPEN" style="stroke:#181818;stroke-width:1;"/><polygon fill="#181818" points="990.79,328.4569,981.3241,325.7371,985.8378,329.1469,982.4281,333.6606,990.79,328.4569" style="stroke:#181818;stroke-width:1;"/><text fill="#000000" font-family="sans-serif" font-size="13" lengthAdjust="spacing" textLength="150.3442" x="831" y="400.3638">[1] !ManualSignalClose</text></g><!--link TRAIN_APPROACHING to APPROACH_FREE--><g class="link" data-entity-1="ent0006" data-entity-2="ent0007" data-link-type="dependency" data-source-line="23" id="lnk18"><path d="M748.8,536.2969 C754.6,555.1969 759.5723,571.4001 765.3723,590.3301" fill="none" id="TRAIN_APPROACHING-to-APPROACH_FREE" style="stroke:#181818;stroke-width:1;"/><polygon fill="#181818" points="767.13,596.0669,768.318,586.2899,765.6653,591.2862,760.6689,588.6335,767.13,596.0669" style="stroke:#181818;stroke-width:1;"/><text fill="#000000" font-family="sans-serif" font-size="13" lengthAdjust="spacing" textLength="129.4795" x="762" y="574.3638">[2] !ApproachTaken</text></g><!--link APPROACH_FREE to MARKER_BOARD_OPEN--><g class="link" data-entity-1="ent0007" data-entity-2="ent0004" data-link-type="dependency" data-source-line="25" id="lnk19"><path d="M901.15,596.1169 C926.19,582.2469 950.55,564.8069 969,543.2969 C1022.35,481.0869 976.42,426.3769 1038,372.2969 C1045.51,365.6969 1048.637,362.9001 1057.347,357.5901" fill="none" id="APPROACH_FREE-to-MARKER_BOARD_OPEN" style="stroke:#181818;stroke-width:1;"/><polygon fill="#181818" points="1062.47,354.4669,1052.7033,355.7364,1058.2008,357.0696,1056.8676,362.5671,1062.47,354.4669" style="stroke:#181818;stroke-width:1;"/><text fill="#000000" font-family="sans-serif" font-size="13" lengthAdjust="spacing" textLength="117.5967" x="1003" y="494.8638">[1] RouteIsLocked</text></g><!--link APPROACH_FREE to MANUAL_RELEASE_ACTIVE--><g class="link" data-entity-1="ent0007" data-entity-2="ent0010" data-link-type="dependency" data-source-line="26" id="lnk20"><path d="M768.77,688.3569 C765.63,710.4669 766.69,735.9869 782,753.2969 C799.58,773.1769 911.7165,788.3332 1025.7465,799.0932" fill="none" id="APPROACH_FREE-to-MANUAL_RELEASE_ACTIVE" style="stroke:#181818;stroke-width:1;"/><polygon fill="#181818" points="1031.72,799.6569,1023.1356,794.8291,1026.7421,799.1872,1022.384,802.7937,1031.72,799.6569" style="stroke:#181818;stroke-width:1;"/><text fill="#000000" font-family="sans-serif" font-size="13" lengthAdjust="spacing" textLength="153.8862" x="933.6235" y="719.3638">[2] !ApproachTaken &amp;&amp;</text><text fill="#000000" font-family="sans-serif" font-size="13" lengthAdjust="spacing" textLength="451.001" x="787.1323" y="734.4966">((CommandUnsetManualReleaseRestriction &amp;&amp; ReleasePrevention) ||</text><text fill="#000000" font-family="sans-serif" font-size="13" lengthAdjust="spacing" textLength="326.8726" x="851.2627" y="749.6294">(CommandReleaseRoute &amp;&amp; !ReleasePrevention))</text></g><!--link TRAIN_APPROACHING_ZONE to MARKER_BOARD_OPEN--><g class="link" data-entity-1="ent0008" data-entity-2="ent0004" data-link-type="dependency" data-source-line="28" id="lnk21"><path d="M2613.24,437.0769 C2618.79,431.7169 2623.78,425.8069 2628,419.2969 C2639.37,401.7769 2642.44,387.3969 2628,372.2969 C2587.72,330.1769 1835.4396,315.9476 1447.1296,311.3676" fill="none" id="TRAIN_APPROACHING_ZONE-to-MARKER_BOARD_OPEN" style="stroke:#181818;stroke-width:1;"/><polygon fill="#181818" points="1441.13,311.2969,1450.0822,315.4027,1446.1297,311.3558,1450.1765,307.4033,1441.13,311.2969" style="stroke:#181818;stroke-width:1;"/><text fill="#000000" font-family="sans-serif" font-size="13" lengthAdjust="spacing" textLength="150.3442" x="2638" y="400.3638">[1] !ManualSignalClose</text></g><!--link TRAIN_APPROACHING_ZONE to APPROACH_ZONE_TIMEOUT--><g class="link" data-entity-1="ent0008" data-entity-2="ent0009" data-link-type="dependency" data-source-line="29" id="lnk22"><path d="M2374.2,543.3369 C2342.25,560.5169 2312.2842,576.6248 2281.3642,593.2548" fill="none" id="TRAIN_APPROACHING_ZONE-to-APPROACH_ZONE_TIMEOUT" style="stroke:#181818;stroke-width:1;"/><polygon fill="#181818" points="2276.08,596.0969,2285.901,595.3566,2280.4835,593.7285,2282.1116,588.311,2276.08,596.0969" style="stroke:#181818;stroke-width:1;"/><text fill="#000000" font-family="sans-serif" font-size="13" lengthAdjust="spacing" textLength="309.2578" x="2340" y="574.3638">[2] TimeoutUnsupervisedTrainApproachExpired</text></g><!--link APPROACH_ZONE_TIMEOUT to MARKER_BOARD_OPEN--><g class="link" data-entity-1="ent0009" data-entity-2="ent0004" data-link-type="dependency" data-source-line="31" id="lnk23"><path d="M2192.6,595.9769 C2190.66,583.4869 2186.43,570.7869 2178,561.2969 C2159.51,540.4869 2144.52,551.7669 2118,543.2969 C1892.26,471.2369 1843.06,429.0669 1613,372.2969 C1557.87,358.6869 1503.5934,348.3225 1447.1234,339.2125" fill="none" id="APPROACH_ZONE_TIMEOUT-to-MARKER_BOARD_OPEN" style="stroke:#181818;stroke-width:1;"/><polygon fill="#181818" points="1441.2,338.2569,1449.4481,343.6392,1446.1362,339.0532,1450.7222,335.7413,1441.2,338.2569" style="stroke:#181818;stroke-width:1;"/><text fill="#000000" font-family="sans-serif" font-size="13" lengthAdjust="spacing" textLength="117.5967" x="2119" y="494.8638">[1] RouteIsLocked</text></g><!--link APPROACH_ZONE_TIMEOUT to MANUAL_RELEASE_ACTIVE--><g class="link" data-entity-1="ent0009" data-entity-2="ent0010" data-link-type="dependency" data-source-line="32" id="lnk24"><path d="M1967,686.7269 C1859.85,707.2369 1729.87,731.8569 1613,753.2969 C1570.71,761.0569 1531.4674,768.127 1488.0274,775.847" fill="none" id="APPROACH_ZONE_TIMEOUT-to-MANUAL_RELEASE_ACTIVE" style="stroke:#181818;stroke-width:1;"/><polygon fill="#181818" points="1482.12,776.8969,1491.6811,779.2604,1487.0429,776.022,1490.2813,771.3838,1482.12,776.8969" style="stroke:#181818;stroke-width:1;"/><text fill="#000000" font-family="sans-serif" font-size="13" lengthAdjust="spacing" textLength="468.4761" x="1852" y="726.8638">[2] (CommandUnsetManualReleaseRestriction &amp;&amp; ReleasePrevention) ||</text><text fill="#000000" font-family="sans-serif" font-size="13" lengthAdjust="spacing" textLength="321.8008" x="1929.47" y="741.9966">(CommandReleaseRoute &amp;&amp; !ReleasePrevention)</text></g><g><rect fill="#F1F1F1" height="92.1719" rx="12.5" ry="12.5" style="stroke:#181818;stroke-width:0.5;" width="450.0254" x="1317.5" y="950"/><line style="stroke:#181818;stroke-width:0.5;" x1="1317.5" x2="1767.5254" y1="976.2969" y2="976.2969"/><text fill="#000000" font-family="sans-serif" font-size="14" lengthAdjust="spacing" textLength="128.7002" x="1478.1626" y="967.9951">ROUTE_RELEASED</text><text fill="#000000" font-family="sans-serif" font-size="12" lengthAdjust="spacing" textLength="321.7969" x="1322.5" y="992.4355">ManualReleaseRequested = ActiveInactive::INACTIVE</text><text fill="#000000" font-family="sans-serif" font-size="12" lengthAdjust="spacing" textLength="301.9453" x="1322.5" y="1006.4043">HoldApproachLocking = OpenCloseState::CLOSED</text><text fill="#000000" font-family="sans-serif" font-size="12" lengthAdjust="spacing" textLength="430.0254" x="1322.5" y="1020.373">ManualReleaseWithholdMovementAuthority = ActiveInactive::INACTIVE</text><text fill="#000000" font-family="sans-serif" font-size="12" lengthAdjust="spacing" textLength="322.1426" x="1322.5" y="1034.3418">ManualReleasePrevention = ActiveInactive::INACTIVE</text></g><ellipse cx="2843.5" cy="440" fill="#222222" rx="10" ry="10" style="stroke:#222222;stroke-width:1;"/><!--link *start* to ROUTE_RELEASED--><g class="link" data-entity-1="ent0002" data-entity-2="ent0011" data-link-type="dependency" data-source-line="2" id="lnk3"><path d="M2846.42,449.62 C2862.54,499.09 2935.83,748.9 2815.5,873 C2744.16,946.57 2119.6067,977.2805 1773.5467,988.7905" fill="none" id="*start*-to-ROUTE_RELEASED" style="stroke:#181818;stroke-width:1;"/><polygon fill="#181818" points="1767.55,988.99,1776.678,992.6886,1772.5472,988.8238,1776.4121,984.693,1767.55,988.99" style="stroke:#181818;stroke-width:1;"/><text fill="#000000" font-family="sans-serif" font-size="13" lengthAdjust="spacing" textLength="18.4146" x="2737.5" y="916.0669">[1]</text></g><!--link ROUTE_RELEASED to ETCS_APPROACH_LOCKING--><g class="link" data-entity-1="ent0011" data-entity-2="ent0002" data-link-type="dependency" data-source-line="4" id="lnk4"><path d="M1531.1,949.9 C1525.92,929.4 1520.7303,908.8471 1513.1603,878.8971" fill="none" id="ROUTE_RELEASED-to-ETCS_APPROACH_LOCKING" style="stroke:#181818;stroke-width:1;"/><polygon fill="#181818" points="1511.69,873.08,1510.0174,882.7858,1512.9152,877.9276,1517.7735,880.8254,1511.69,873.08" style="stroke:#181818;stroke-width:1;"/><text fill="#000000" font-family="sans-serif" font-size="13" lengthAdjust="spacing" textLength="92.8218" x="1523.5" y="916.0669">[1] RouteIsSet</text></g><!--link ETCS_APPROACH_LOCKING to ROUTE_RELEASED--><g class="link" data-entity-1="ent0002" data-entity-2="ent0011" data-link-type="dependency" data-source-line="5" id="lnk5"><path d="M1391.95,873.11 C1398.21,889.34 1405.68,905.04 1414.5,920 C1421.24,931.42 1425.7959,937.5032 1436.2059,945.9732" fill="none" id="ETCS_APPROACH_LOCKING-to-ROUTE_RELEASED" style="stroke:#181818;stroke-width:1;"/><polygon fill="#181818" points="1440.86,949.76,1436.4034,940.9771,1436.9816,946.6044,1431.3544,947.1826,1440.86,949.76" style="stroke:#181818;stroke-width:1;"/><text fill="#000000" font-family="sans-serif" font-size="13" lengthAdjust="spacing" textLength="98.0332" x="1415.5" y="916.0669">[1] !RouteIsSet</text></g><?plantuml-src rLXTRzem57tdLxWlLJkf3_juGjeaBtWZQaXG4bQfh8eYi20gE5a-sAPs_trs0XGdjea3gZPUAbpVSyyzzrpROlhc0TpSV0AkC_5Hu28BGGyD-c3wzg7NunVBVSWtl02Enwu3ZM5WESQjQNyjjmCtBd9iPXxEUy9TiZpWuY2ob-LXZiLfm5CFqCzqIta4tLla1fyTw0u2PuniZeOLpnxnd0keSdl8fnlVqVBO__PhUf3rC7i2hLrL0JHyynigau0h8rwlGpAVa0pdev0KuSh5AnncsCLPdaQpF8e9kBm4szLnYZUOiCLhyFmClfCzmYwCSM415ys8ggH64IN7EzCV3Xrh48nWLPG0LX7kkz2qznsfUaxBWqcInk5iwOUFk2oZAj6B5YHS6Qiumwm4kdxrga9SwrGIt3iswzPxwiH6FRk5-vXWPpOhaWZF_uywPQRy82fp76PPkC3CuUohX463G6Mu0skffeXFIciLQIi1bCwN7wqnfNSNvSjbl9gFuWrUKswmo9Tn6kM_qQyaIYbiYTjelOhkHQF52epzKVN5HLjclCWL0MwRteaZ2fMgqcmmyzKhMrCiLpbjvz3z1MWl3Li9V7E4wEdCsODMN2GutKGPdljf696TFfmzX3WTkoI0-9VkY8Ehi9RmHq5pqZFk8u0qxmQR92p_zlkcNP6k0mpftEtqP594P46ZdGIJidiUkz3xVSDow8MlJ2uTOWqo7E1BsIe4yHdQLHW1K3k1sDvML3hBT0nOGoxkDT5DA0v2Ko9vUXrnP6GwYDB0e8pJN4M6n3yb9sHNGGL0ch8UezBPUSU0bI8V-gvsptOJgWQYVNwfI7IMI0NQMXxPs_PCXjgYdUeg4QdpMKk4tdw8PN3bF4kV4OVpB7cDd6XL7aop0sqedMvS1RZMHIny9xMMZxllX53Qyzw6qWcNyd7mTlBzgVzWqyLqTGGjiPJfEocaH6mdory0?></g></svg>