<?plantuml 1.2026.1?><svg xmlns="http://www.w3.org/2000/svg" xmlns:xlink="http://www.w3.org/1999/xlink" contentStyleType="text/css" data-diagram-type="STATE" height="413px" preserveAspectRatio="none" style="width:1911px;height:413px;background:#FFFFFF;" version="1.1" viewBox="0 0 1911 413" width="1911px" zoomAndPan="magnify"><defs/><g><g><rect fill="#F1F1F1" height="50.2656" rx="12.5" ry="12.5" style="stroke:#181818;stroke-width:0.5;" width="229.291" x="829" y="103"/><line style="stroke:#181818;stroke-width:0.5;" x1="829" x2="1058.291" y1="129.2969" y2="129.2969"/><text fill="#000000" font-family="sans-serif" font-size="14" lengthAdjust="spacing" textLength="31.5547" x="927.8682" y="120.9951">IDLE</text><text fill="#000000" font-family="sans-serif" font-size="12" lengthAdjust="spacing" textLength="209.291" x="834" y="145.4355">Check = RouteChecking::INACTIVE</text></g><g><rect fill="#F1F1F1" height="50.2656" rx="12.5" ry="12.5" style="stroke:#181818;stroke-width:0.5;" width="259.584" x="170.5" y="230"/><line style="stroke:#181818;stroke-width:0.5;" x1="170.5" x2="430.084" y1="256.2969" y2="256.2969"/><text fill="#000000" font-family="sans-serif" font-size="14" lengthAdjust="spacing" textLength="125.8496" x="237.3672" y="247.9951">CHECKING_START</text><text fill="#000000" font-family="sans-serif" font-size="12" lengthAdjust="spacing" textLength="239.584" x="175.5" y="272.4355">Check = RouteChecking::CHECK_START</text></g><g><rect fill="#F1F1F1" height="50.2656" rx="12.5" ry="12.5" style="stroke:#181818;stroke-width:0.5;" width="270.0078" x="465.5" y="230"/><line style="stroke:#181818;stroke-width:0.5;" x1="465.5" x2="735.5078" y1="256.2969" y2="256.2969"/><text fill="#000000" font-family="sans-serif" font-size="14" lengthAdjust="spacing" textLength="138.0107" x="531.4985" y="247.9951">CHECKING_FROM_A</text><text fill="#000000" font-family="sans-serif" font-size="12" lengthAdjust="spacing" textLength="250.0078" x="470.5" y="272.4355">Check = RouteChecking::CHECK_FROM_A</text></g><g><rect fill="#F1F1F1" height="50.2656" rx="12.5" ry="12.5" style="stroke:#181818;stroke-width:0.5;" width="270.0313" x="1088.5" y="230"/><line style="stroke:#181818;stroke-width:0.5;" x1="1088.5" x2="1358.5313" y1="256.2969" y2="256.2969"/><text fill="#000000" font-family="sans-serif" font-size="14" lengthAdjust="spacing" textLength="138.0381" x="1154.4966" y="247.9951">CHECKING_FROM_B</text><text fill="#000000" font-family="sans-serif" font-size="12" lengthAdjust="spacing" textLength="250.0313" x="1093.5" y="272.4355">Check = RouteChecking::CHECK_FROM_B</text></g><g><rect fill="#F1F1F1" height="50.2656" rx="12.5" ry="12.5" style="stroke:#181818;stroke-width:0.5;" width="270.1777" x="1468.5" y="230"/><line style="stroke:#181818;stroke-width:0.5;" x1="1468.5" x2="1738.6777" y1="256.2969" y2="256.2969"/><text fill="#000000" font-family="sans-serif" font-size="14" lengthAdjust="spacing" textLength="138.209" x="1534.4844" y="247.9951">CHECKING_FROM_C</text><text fill="#000000" font-family="sans-serif" font-size="12" lengthAdjust="spacing" textLength="250.1777" x="1473.5" y="272.4355">Check = RouteChecking::CHECK_FROM_C</text></g><g><rect fill="#F1F1F1" height="50.2656" rx="12.5" ry="12.5" style="stroke:#181818;stroke-width:0.5;" width="329.3984" x="7" y="357"/><line style="stroke:#181818;stroke-width:0.5;" x1="7" x2="336.3984" y1="383.2969" y2="383.2969"/><text fill="#000000" font-family="sans-serif" font-size="14" lengthAdjust="spacing" textLength="181.8496" x="80.7744" y="374.9951">ROUTE_SET_FROM_START</text><text fill="#000000" font-family="sans-serif" font-size="12" lengthAdjust="spacing" textLength="309.3984" x="12" y="399.4355">Check = RouteChecking::ROUTE_SET_FROM_START</text></g><g><rect fill="#F1F1F1" height="50.2656" rx="12.5" ry="12.5" style="stroke:#181818;stroke-width:0.5;" width="298.7832" x="473" y="357"/><line style="stroke:#181818;stroke-width:0.5;" x1="473" x2="771.7832" y1="383.2969" y2="383.2969"/><text fill="#000000" font-family="sans-serif" font-size="14" lengthAdjust="spacing" textLength="146.1318" x="549.3257" y="374.9951">ROUTE_SET_FROM_A</text><text fill="#000000" font-family="sans-serif" font-size="12" lengthAdjust="spacing" textLength="278.7832" x="478" y="399.4355">Check = RouteChecking::ROUTE_SET_FROM_A</text></g><g><rect fill="#F1F1F1" height="50.2656" rx="12.5" ry="12.5" style="stroke:#181818;stroke-width:0.5;" width="298.8066" x="894" y="357"/><line style="stroke:#181818;stroke-width:0.5;" x1="894" x2="1192.8066" y1="383.2969" y2="383.2969"/><text fill="#000000" font-family="sans-serif" font-size="14" lengthAdjust="spacing" textLength="146.1592" x="970.3237" y="374.9951">ROUTE_SET_FROM_B</text><text fill="#000000" font-family="sans-serif" font-size="12" lengthAdjust="spacing" textLength="278.8066" x="899" y="399.4355">Check = RouteChecking::ROUTE_SET_FROM_B</text></g><g><rect fill="#F1F1F1" height="50.2656" rx="12.5" ry="12.5" style="stroke:#181818;stroke-width:0.5;" width="298.9531" x="1601" y="357"/><line style="stroke:#181818;stroke-width:0.5;" x1="1601" x2="1899.9531" y1="383.2969" y2="383.2969"/><text fill="#000000" font-family="sans-serif" font-size="14" lengthAdjust="spacing" textLength="146.3301" x="1677.3115" y="374.9951">ROUTE_SET_FROM_C</text><text fill="#000000" font-family="sans-serif" font-size="12" lengthAdjust="spacing" textLength="278.9531" x="1606" y="399.4355">Check = RouteChecking::ROUTE_SET_FROM_C</text></g><ellipse cx="943.5" cy="16" fill="#222222" rx="10" ry="10" style="stroke:#222222;stroke-width:1;"/><!--link *start* to IDLE--><g class="link" data-entity-1="ent0002" data-entity-2="ent0002" data-link-type="dependency" data-source-line="2" id="lnk3"><path d="M943.5,26 C943.5,42.63 943.5,72.66 943.5,96.87" fill="none" id="*start*-to-IDLE" style="stroke:#181818;stroke-width:1;"/><polygon fill="#181818" points="943.5,102.87,947.5,93.87,943.5,97.87,939.5,93.87,943.5,102.87" style="stroke:#181818;stroke-width:1;"/><text fill="#000000" font-family="sans-serif" font-size="13" lengthAdjust="spacing" textLength="18.4146" x="944.5" y="69.0669">[1]</text></g><!--link IDLE to CHECKING_START--><g class="link" data-entity-1="ent0002" data-entity-2="ent0003" data-link-type="dependency" data-source-line="4" id="lnk4"><path d="M828.71,128.85 C629.03,129.8 234.86,137.49 192.5,183 C175.07,201.73 189.1066,215.3919 216.1166,227.5219" fill="none" id="IDLE-to-CHECKING_START" style="stroke:#181818;stroke-width:1;"/><polygon fill="#181818" points="221.59,229.98,215.0186,222.644,217.0288,227.9316,211.7412,229.9418,221.59,229.98" style="stroke:#181818;stroke-width:1;"/><text fill="#000000" font-family="sans-serif" font-size="13" lengthAdjust="spacing" textLength="107.9609" x="193.5" y="196.0669">RouteRequested</text></g><!--link CHECKING_START to IDLE--><g class="link" data-entity-1="ent0003" data-entity-2="ent0002" data-link-type="dependency" data-source-line="10" id="lnk9"><path d="M316.48,229.88 C328.67,213.66 346.99,193.4 368.5,183 C447.09,145.01 678.7916,133.8487 822.7916,130.5187" fill="none" id="CHECKING_START-to-IDLE" style="stroke:#181818;stroke-width:1;"/><polygon fill="#181818" points="828.79,130.38,819.6999,126.5891,823.7913,130.4956,819.8849,134.587,828.79,130.38" style="stroke:#181818;stroke-width:1;"/><text fill="#000000" font-family="sans-serif" font-size="13" lengthAdjust="spacing" textLength="135.7192" x="369.5" y="196.0669">[2] !RouteRequested</text></g><!--link IDLE to CHECKING_FROM_A--><g class="link" data-entity-1="ent0002" data-entity-2="ent0004" data-link-type="dependency" data-source-line="5" id="lnk5"><path d="M828.8,135.85 C709.99,144.15 538.81,159.94 518.5,183 C503.44,200.1 515.7228,213.9092 538.3628,226.8692" fill="none" id="IDLE-to-CHECKING_FROM_A" style="stroke:#181818;stroke-width:1;"/><polygon fill="#181818" points="543.57,229.85,537.7464,221.9073,539.2307,227.366,533.772,228.8503,543.57,229.85" style="stroke:#181818;stroke-width:1;"/><text fill="#000000" font-family="sans-serif" font-size="13" lengthAdjust="spacing" textLength="129.105" x="519.5" y="196.0669">[1]  CheckingFromA</text></g><!--link CHECKING_FROM_A to IDLE--><g class="link" data-entity-1="ent0004" data-entity-2="ent0002" data-link-type="dependency" data-source-line="12" id="lnk11"><path d="M624.44,229.74 C641.25,214.09 665.02,194.57 689.5,183 C732.81,162.54 778.0116,150.8043 822.9916,142.8543" fill="none" id="CHECKING_FROM_A-to-IDLE" style="stroke:#181818;stroke-width:1;"/><polygon fill="#181818" points="828.9,141.81,819.3412,139.4375,823.9763,142.6802,820.7336,147.3154,828.9,141.81" style="stroke:#181818;stroke-width:1;"/><text fill="#000000" font-family="sans-serif" font-size="13" lengthAdjust="spacing" textLength="206.4702" x="690.5" y="196.0669">[2] !Checking &amp;&amp; !SettingRoute</text></g><!--link IDLE to CHECKING_FROM_B--><g class="link" data-entity-1="ent0002" data-entity-2="ent0005" data-link-type="dependency" data-source-line="6" id="lnk6"><path d="M963.47,153 C977.61,168.54 997.85,188.03 1019.5,200 C1042.34,212.63 1062.5163,220.7085 1088.0463,228.2585" fill="none" id="IDLE-to-CHECKING_FROM_B" style="stroke:#181818;stroke-width:1;"/><polygon fill="#181818" points="1093.8,229.96,1086.3038,223.5719,1089.0053,228.5421,1084.0351,231.2435,1093.8,229.96" style="stroke:#181818;stroke-width:1;"/><text fill="#000000" font-family="sans-serif" font-size="13" lengthAdjust="spacing" textLength="124.998" x="1020.5" y="196.0669">[1] CheckingFromB</text></g><!--link CHECKING_FROM_B to IDLE--><g class="link" data-entity-1="ent0005" data-entity-2="ent0002" data-link-type="dependency" data-source-line="14" id="lnk13"><path d="M1204.19,229.96 C1190.48,214.41 1170.78,194.92 1149.5,183 C1121.6,167.37 1094.8375,157.6478 1063.9475,149.6278" fill="none" id="CHECKING_FROM_B-to-IDLE" style="stroke:#181818;stroke-width:1;"/><polygon fill="#181818" points="1058.14,148.12,1065.846,154.2533,1062.9795,149.3765,1067.8564,146.5101,1058.14,148.12" style="stroke:#181818;stroke-width:1;"/><text fill="#000000" font-family="sans-serif" font-size="13" lengthAdjust="spacing" textLength="206.4702" x="1172.5" y="196.0669">[2] !Checking &amp;&amp; !SettingRoute</text></g><!--link IDLE to CHECKING_FROM_C--><g class="link" data-entity-1="ent0002" data-entity-2="ent0006" data-link-type="dependency" data-source-line="7" id="lnk7"><path d="M1058.41,135.6 C1148.83,142.56 1277.5,156.37 1387.5,183 C1408.68,188.13 1412.89,192.92 1433.5,200 C1463.23,210.21 1490.3868,219.0087 1519.2368,228.0887" fill="none" id="IDLE-to-CHECKING_FROM_C" style="stroke:#181818;stroke-width:1;"/><polygon fill="#181818" points="1524.96,229.89,1517.576,223.3726,1520.1906,228.3889,1515.1743,231.0036,1524.96,229.89" style="stroke:#181818;stroke-width:1;"/><text fill="#000000" font-family="sans-serif" font-size="13" lengthAdjust="spacing" textLength="125.1567" x="1434.5" y="196.0669">[1] CheckingFromC</text></g><!--link CHECKING_FROM_C to IDLE--><g class="link" data-entity-1="ent0006" data-entity-2="ent0002" data-link-type="dependency" data-source-line="16" id="lnk15"><path d="M1596.77,229.75 C1590.97,213.69 1580.88,193.67 1564.5,183 C1523.19,156.08 1231.9548,140.3686 1064.1348,133.4086" fill="none" id="CHECKING_FROM_C-to-IDLE" style="stroke:#181818;stroke-width:1;"/><polygon fill="#181818" points="1058.14,133.16,1066.9665,137.5295,1063.1357,133.3672,1067.298,129.5364,1058.14,133.16" style="stroke:#181818;stroke-width:1;"/><text fill="#000000" font-family="sans-serif" font-size="13" lengthAdjust="spacing" textLength="206.4702" x="1581.5" y="196.0669">[2] !Checking &amp;&amp; !SettingRoute</text></g><!--link CHECKING_START to ROUTE_SET_FROM_START--><g class="link" data-entity-1="ent0003" data-entity-2="ent0007" data-link-type="dependency" data-source-line="9" id="lnk8"><path d="M275.63,280.1 C252.78,302.24 223.4182,330.684 200.6082,352.794" fill="none" id="CHECKING_START-to-ROUTE_SET_FROM_START" style="stroke:#181818;stroke-width:1;"/><polygon fill="#181818" points="196.3,356.97,205.5464,353.5781,199.8902,353.49,199.9783,347.8338,196.3,356.97" style="stroke:#181818;stroke-width:1;"/><text fill="#000000" font-family="sans-serif" font-size="13" lengthAdjust="spacing" textLength="82.2148" x="245.5" y="323.0669">[1] RouteSet</text></g><!--link CHECKING_FROM_A to ROUTE_SET_FROM_A--><g class="link" data-entity-1="ent0004" data-entity-2="ent0008" data-link-type="dependency" data-source-line="11" id="lnk10"><path d="M604.74,280.1 C608.64,302.24 613.3403,328.9508 617.2303,351.0608" fill="none" id="CHECKING_FROM_A-to-ROUTE_SET_FROM_A" style="stroke:#181818;stroke-width:1;"/><polygon fill="#181818" points="618.27,356.97,620.65,347.413,617.4036,352.0456,612.771,348.7993,618.27,356.97" style="stroke:#181818;stroke-width:1;"/><text fill="#000000" font-family="sans-serif" font-size="13" lengthAdjust="spacing" textLength="82.2148" x="614.5" y="323.0669">[1] RouteSet</text></g><!--link CHECKING_FROM_B to ROUTE_SET_FROM_B--><g class="link" data-entity-1="ent0005" data-entity-2="ent0009" data-link-type="dependency" data-source-line="13" id="lnk12"><path d="M1188.79,280.1 C1156.92,302.24 1114.8683,331.4377 1083.0283,353.5477" fill="none" id="CHECKING_FROM_B-to-ROUTE_SET_FROM_B" style="stroke:#181818;stroke-width:1;"/><polygon fill="#181818" points="1078.1,356.97,1087.774,355.1221,1082.2069,354.1181,1083.2109,348.5511,1078.1,356.97" style="stroke:#181818;stroke-width:1;"/><text fill="#000000" font-family="sans-serif" font-size="13" lengthAdjust="spacing" textLength="82.2148" x="1144.5" y="323.0669">[1] RouteSet</text></g><!--link CHECKING_FROM_C to ROUTE_SET_FROM_C--><g class="link" data-entity-1="ent0006" data-entity-2="ent0010" data-link-type="dependency" data-source-line="15" id="lnk14"><path d="M1631.84,280.1 C1657.87,302.24 1691.6692,330.9731 1717.6692,353.0831" fill="none" id="CHECKING_FROM_C-to-ROUTE_SET_FROM_C" style="stroke:#181818;stroke-width:1;"/><polygon fill="#181818" points="1722.24,356.97,1717.9751,348.0925,1718.431,353.7309,1712.7926,354.1868,1722.24,356.97" style="stroke:#181818;stroke-width:1;"/><text fill="#000000" font-family="sans-serif" font-size="13" lengthAdjust="spacing" textLength="82.2148" x="1686.5" y="323.0669">[1] RouteSet</text></g><!--link ROUTE_SET_FROM_START to IDLE--><g class="link" data-entity-1="ent0007" data-entity-2="ent0002" data-link-type="dependency" data-source-line="28" id="lnk16"><path d="M133.15,356.99 C90.94,327.45 32.86,275.62 63.5,230 C94.28,184.16 124.73,195.55 178.5,183 C298.76,154.94 640.4139,139.4051 822.7639,132.8651" fill="none" id="ROUTE_SET_FROM_START-to-IDLE" style="stroke:#181818;stroke-width:1;"/><polygon fill="#181818" points="828.76,132.65,819.6224,128.9751,823.7632,132.8292,819.9092,136.97,828.76,132.65" style="stroke:#181818;stroke-width:1;"/><text fill="#000000" font-family="sans-serif" font-size="13" lengthAdjust="spacing" textLength="87.4263" x="64.5" y="259.5669">[1] !RouteSet</text></g><!--link ROUTE_SET_FROM_A to IDLE--><g class="link" data-entity-1="ent0008" data-entity-2="ent0002" data-link-type="dependency" data-source-line="29" id="lnk17"><path d="M664.51,356.97 C732.83,317.37 864.17,238.9 901.5,200 C914.59,186.36 922.6623,173.2744 930.0123,158.6044" fill="none" id="ROUTE_SET_FROM_A-to-IDLE" style="stroke:#181818;stroke-width:1;"/><polygon fill="#181818" points="932.7,153.24,925.0923,159.4948,930.4603,157.7103,932.2447,163.0783,932.7,153.24" style="stroke:#181818;stroke-width:1;"/><text fill="#000000" font-family="sans-serif" font-size="13" lengthAdjust="spacing" textLength="87.4263" x="864.5" y="259.5669">[1] !RouteSet</text></g><!--link ROUTE_SET_FROM_B to IDLE--><g class="link" data-entity-1="ent0009" data-entity-2="ent0002" data-link-type="dependency" data-source-line="30" id="lnk18"><path d="M1026.09,356.76 C1012.55,336.94 994.17,307.76 982.5,280 C964.45,237.07 954.125,189.5629 948.585,159.1429" fill="none" id="ROUTE_SET_FROM_B-to-IDLE" style="stroke:#181818;stroke-width:1;"/><polygon fill="#181818" points="947.51,153.24,945.1873,162.811,948.4059,158.1591,953.0578,161.3777,947.51,153.24" style="stroke:#181818;stroke-width:1;"/><text fill="#000000" font-family="sans-serif" font-size="13" lengthAdjust="spacing" textLength="87.4263" x="983.5" y="259.5669">[1] !RouteSet</text></g><!--link ROUTE_SET_FROM_C to IDLE--><g class="link" data-entity-1="ent0010" data-entity-2="ent0002" data-link-type="dependency" data-source-line="31" id="lnk19"><path d="M1768.12,356.75 C1795.81,315.48 1841.91,231.37 1796.5,183 C1771.62,156.49 1290.8173,139.0993 1064.0073,132.3193" fill="none" id="ROUTE_SET_FROM_C-to-IDLE" style="stroke:#181818;stroke-width:1;"/><polygon fill="#181818" points="1058.01,132.14,1066.8865,136.4071,1063.0078,132.2894,1067.1255,128.4107,1058.01,132.14" style="stroke:#181818;stroke-width:1;"/><text fill="#000000" font-family="sans-serif" font-size="13" lengthAdjust="spacing" textLength="87.4263" x="1816.5" y="259.5669">[1] !RouteSet</text></g><?plantuml-src dPHFQy8m68VlxwTulNWGF6p7WeFaNTJYff1ckqZfOGigiics-lrjamerVshOBPJdoIzl-ANRIOdJwHFcpoyYm-r32T0kpJTQ2bhbwqLLA2PLXl9qhhNKFsVzL-lF03UNczUAcMqGQQy_ZeVltVptzCLYCBTmd-KnbdoM06uFQJIvULEYAeIoNdVwrZKJ5BeEMTqDF9OuSWPrvWjbiDZ-FQKNS9q1nsCSDNpTh8thY3oKnGUp-7-pA9H5WrcKdWMMCW3Ex8PNEiloDIELlmjmAnVX3MOPyDetw5W8l1RUbpXuTRml4OJB6353CFXLIxCP-CL9CpduDKWpcmSPck7s5zCziBPFxf5JGPuAKXIy0000?></g></svg>