<?plantuml 1.2026.1?><svg xmlns="http://www.w3.org/2000/svg" xmlns:xlink="http://www.w3.org/1999/xlink" contentStyleType="text/css" data-diagram-type="STATE" height="286px" preserveAspectRatio="none" style="width:403px;height:286px;background:#FFFFFF;" version="1.1" viewBox="0 0 403 286" width="403px" zoomAndPan="magnify"><defs/><g><g><rect fill="#F1F1F1" height="50.2656" rx="12.5" ry="12.5" style="stroke:#181818;stroke-width:0.5;" width="218.2461" x="23.84" y="103"/><line style="stroke:#181818;stroke-width:0.5;" x1="23.84" x2="242.0861" y1="129.2969" y2="129.2969"/><text fill="#000000" font-family="sans-serif" font-size="14" lengthAdjust="spacing" textLength="31.5547" x="117.1857" y="120.9951">IDLE</text><text fill="#000000" font-family="sans-serif" font-size="12" lengthAdjust="spacing" textLength="198.2461" x="28.84" y="145.4355">State = ActiveInactive::INACTIVE</text></g><g><rect fill="#F1F1F1" height="50.2656" rx="12.5" ry="12.5" style="stroke:#181818;stroke-width:0.5;" width="205.7305" x="29.84" y="230"/><line style="stroke:#181818;stroke-width:0.5;" x1="29.84" x2="235.5705" y1="256.2969" y2="256.2969"/><text fill="#000000" font-family="sans-serif" font-size="14" lengthAdjust="spacing" textLength="50.4561" x="107.4772" y="247.9951">ACTIVE</text><text fill="#000000" font-family="sans-serif" font-size="12" lengthAdjust="spacing" textLength="185.7305" x="34.84" y="272.4355">State = ActiveInactive::ACTIVE</text></g><ellipse cx="132.84" cy="16" fill="#222222" rx="10" ry="10" style="stroke:#222222;stroke-width:1;"/><!--link *start* to IDLE--><g class="link" data-entity-1="ent0002" data-entity-2="ent0002" data-link-type="dependency" data-source-line="2" id="lnk3"><path d="M132.84,26 C132.84,42.63 132.84,72.66 132.84,96.87" fill="none" id="*start*-to-IDLE" style="stroke:#181818;stroke-width:1;"/><polygon fill="#181818" points="132.84,102.87,136.84,93.87,132.84,97.87,128.84,93.87,132.84,102.87" style="stroke:#181818;stroke-width:1;"/><text fill="#000000" font-family="sans-serif" font-size="13" lengthAdjust="spacing" textLength="18.4146" x="133.84" y="69.0669">[1]</text></g><!--link IDLE to ACTIVE--><g class="link" data-entity-1="ent0002" data-entity-2="ent0003" data-link-type="dependency" data-source-line="3" id="lnk4"><path d="M51.87,153.07 C38.76,160.56 26.86,170.32 18.84,183 C6,203.29 16.5304,216.1755 40.1704,227.4055" fill="none" id="IDLE-to-ACTIVE" style="stroke:#181818;stroke-width:1;"/><polygon fill="#181818" points="45.59,229.98,39.177,222.5052,41.0737,227.8346,35.7443,229.7313,45.59,229.98" style="stroke:#181818;stroke-width:1;"/><text fill="#000000" font-family="sans-serif" font-size="13" lengthAdjust="spacing" textLength="181.8857" x="19.84" y="196.0669">[1] RouteReleaseRequested</text></g><!--link ACTIVE to IDLE--><g class="link" data-entity-1="ent0003" data-entity-2="ent0002" data-link-type="dependency" data-source-line="4" id="lnk5"><path d="M182.74,229.95 C200.95,217.61 215.07,201.31 205.84,183 C199.81,171.03 194.5609,164.632 183.7909,156.652" fill="none" id="ACTIVE-to-IDLE" style="stroke:#181818;stroke-width:1;"/><polygon fill="#181818" points="178.97,153.08,183.82,161.6519,182.9874,156.0567,188.5826,155.2241,178.97,153.08" style="stroke:#181818;stroke-width:1;"/><text fill="#000000" font-family="sans-serif" font-size="13" lengthAdjust="spacing" textLength="187.0972" x="208.84" y="196.0669">[1] !RouteReleaseRequested</text></g><?plantuml-src YzQALT3LjLFmTF5njLA8Depb0h70GexE8PvX4465eFpIajIWr9pKn68WLLYQMboIci85KO6gNq4HkrekY8hWaiIIL0LR1SVaaiooLC-yH31jPUNf1p6C2sOhBeLGPG00?></g></svg>