<?plantuml 1.2026.1?><svg xmlns="http://www.w3.org/2000/svg" xmlns:xlink="http://www.w3.org/1999/xlink" contentStyleType="text/css" data-diagram-type="STATE" height="417px" preserveAspectRatio="none" style="width:1909px;height:417px;background:#FFFFFF;" version="1.1" viewBox="0 0 1909 417" width="1909px" zoomAndPan="magnify"><defs/><g><g class="entity" data-qualified-name="c" id="ent0002"><polygon fill="#F1F1F1" points="910.46,6,922.46,18,910.46,30,898.46,18,910.46,6" style="stroke:#181818;stroke-width:0.5;"/></g><g><rect fill="#F1F1F1" height="50.2656" rx="12.5" ry="12.5" style="stroke:#181818;stroke-width:0.5;" width="234.0957" x="850.46" y="107"/><line style="stroke:#181818;stroke-width:0.5;" x1="850.46" x2="1084.5557" y1="133.2969" y2="133.2969"/><text fill="#000000" font-family="sans-serif" font-size="14" lengthAdjust="spacing" textLength="31.5547" x="951.7305" y="124.9951">IDLE</text><text fill="#000000" font-family="sans-serif" font-size="12" lengthAdjust="spacing" textLength="214.0957" x="855.46" y="149.4355">Admit = RouteAdmission::INACTIVE</text></g><g><rect fill="#F1F1F1" height="50.2656" rx="12.5" ry="12.5" style="stroke:#181818;stroke-width:0.5;" width="248.8027" x="181.96" y="234"/><line style="stroke:#181818;stroke-width:0.5;" x1="181.96" x2="430.7627" y1="260.2969" y2="260.2969"/><text fill="#000000" font-family="sans-serif" font-size="14" lengthAdjust="spacing" textLength="82.2158" x="265.2535" y="251.9951">ADMIT_END</text><text fill="#000000" font-family="sans-serif" font-size="12" lengthAdjust="spacing" textLength="228.8027" x="186.96" y="276.4355">Admit = RouteAdmission::ADMIT_END</text></g><g><rect fill="#F1F1F1" height="50.2656" rx="12.5" ry="12.5" style="stroke:#181818;stroke-width:0.5;" width="253.9883" x="466.46" y="234"/><line style="stroke:#181818;stroke-width:0.5;" x1="466.46" x2="720.4483" y1="260.2969" y2="260.2969"/><text fill="#000000" font-family="sans-serif" font-size="14" lengthAdjust="spacing" textLength="88.2656" x="549.3213" y="251.9951">ADMIT_TO_A</text><text fill="#000000" font-family="sans-serif" font-size="12" lengthAdjust="spacing" textLength="233.9883" x="471.46" y="276.4355">Admit = RouteAdmission::ADMIT_TO_A</text></g><g><rect fill="#F1F1F1" height="50.2656" rx="12.5" ry="12.5" style="stroke:#181818;stroke-width:0.5;" width="254.0117" x="1161.46" y="234"/><line style="stroke:#181818;stroke-width:0.5;" x1="1161.46" x2="1415.4717" y1="260.2969" y2="260.2969"/><text fill="#000000" font-family="sans-serif" font-size="14" lengthAdjust="spacing" textLength="88.293" x="1244.3194" y="251.9951">ADMIT_TO_B</text><text fill="#000000" font-family="sans-serif" font-size="12" lengthAdjust="spacing" textLength="234.0117" x="1166.46" y="276.4355">Admit = RouteAdmission::ADMIT_TO_B</text></g><g><rect fill="#F1F1F1" height="50.2656" rx="12.5" ry="12.5" style="stroke:#181818;stroke-width:0.5;" width="254.1582" x="1450.46" y="234"/><line style="stroke:#181818;stroke-width:0.5;" x1="1450.46" x2="1704.6182" y1="260.2969" y2="260.2969"/><text fill="#000000" font-family="sans-serif" font-size="14" lengthAdjust="spacing" textLength="88.4639" x="1533.3072" y="251.9951">ADMIT_TO_C</text><text fill="#000000" font-family="sans-serif" font-size="12" lengthAdjust="spacing" textLength="234.1582" x="1455.46" y="276.4355">Admit = RouteAdmission::ADMIT_TO_C</text></g><g><rect fill="#F1F1F1" height="50.2656" rx="12.5" ry="12.5" style="stroke:#181818;stroke-width:0.5;" width="251.6094" x="128.46" y="361"/><line style="stroke:#181818;stroke-width:0.5;" x1="128.46" x2="380.0694" y1="387.2969" y2="387.2969"/><text fill="#000000" font-family="sans-serif" font-size="14" lengthAdjust="spacing" textLength="112.0615" x="198.2339" y="378.9951">ROUTE_TO_END</text><text fill="#000000" font-family="sans-serif" font-size="12" lengthAdjust="spacing" textLength="231.6094" x="133.46" y="403.4355">Admit = RouteAdmission::ROUTE_END</text></g><g><rect fill="#F1F1F1" height="50.2656" rx="12.5" ry="12.5" style="stroke:#181818;stroke-width:0.5;" width="256.7949" x="560.96" y="361"/><line style="stroke:#181818;stroke-width:0.5;" x1="560.96" x2="817.7549" y1="387.2969" y2="387.2969"/><text fill="#000000" font-family="sans-serif" font-size="14" lengthAdjust="spacing" textLength="91.54" x="643.5874" y="378.9951">ROUTE_TO_A</text><text fill="#000000" font-family="sans-serif" font-size="12" lengthAdjust="spacing" textLength="236.7949" x="565.96" y="403.4355">Admit = RouteAdmission::ROUTE_TO_A</text></g><g><rect fill="#F1F1F1" height="50.2656" rx="12.5" ry="12.5" style="stroke:#181818;stroke-width:0.5;" width="256.8184" x="953.96" y="361"/><line style="stroke:#181818;stroke-width:0.5;" x1="953.96" x2="1210.7784" y1="387.2969" y2="387.2969"/><text fill="#000000" font-family="sans-serif" font-size="14" lengthAdjust="spacing" textLength="91.5674" x="1036.5855" y="378.9951">ROUTE_TO_B</text><text fill="#000000" font-family="sans-serif" font-size="12" lengthAdjust="spacing" textLength="236.8184" x="958.96" y="403.4355">Admit = RouteAdmission::ROUTE_TO_B</text></g><g><rect fill="#F1F1F1" height="50.2656" rx="12.5" ry="12.5" style="stroke:#181818;stroke-width:0.5;" width="256.9648" x="1558.96" y="361"/><line style="stroke:#181818;stroke-width:0.5;" x1="1558.96" x2="1815.9248" y1="387.2969" y2="387.2969"/><text fill="#000000" font-family="sans-serif" font-size="14" lengthAdjust="spacing" textLength="91.7383" x="1641.5733" y="378.9951">ROUTE_TO_C</text><text fill="#000000" font-family="sans-serif" font-size="12" lengthAdjust="spacing" textLength="236.9648" x="1563.96" y="403.4355">Admit = RouteAdmission::ROUTE_TO_C</text></g><ellipse cx="967.46" cy="18" fill="#222222" rx="10" ry="10" style="stroke:#222222;stroke-width:1;"/><!--link *start* to IDLE--><g class="link" data-entity-1="ent0002" data-entity-2="ent0003" data-link-type="dependency" data-source-line="4" id="lnk3"><path d="M967.46,28.17 C967.46,45.2 967.46,76.23 967.46,100.89" fill="none" id="*start*-to-IDLE" style="stroke:#181818;stroke-width:1;"/><polygon fill="#181818" points="967.46,106.89,971.46,97.89,967.46,101.89,963.46,97.89,967.46,106.89" style="stroke:#181818;stroke-width:1;"/><text fill="#000000" font-family="sans-serif" font-size="13" lengthAdjust="spacing" textLength="18.4146" x="968.46" y="73.0669">[1]</text></g><!--link IDLE to ADMIT_END--><g class="link" data-entity-1="ent0003" data-entity-2="ent0004" data-link-type="dependency" data-source-line="6" id="lnk4"><path d="M850.28,135.95 C616.08,142.43 110.3,159.54 84.46,187 C79.29,192.5 79.8,198.06 84.46,204 C91.36,212.77 129.1956,222.9917 176.0356,233.1217" fill="none" id="IDLE-to-ADMIT_END" style="stroke:#181818;stroke-width:1;"/><polygon fill="#181818" points="181.9,234.39,173.9489,228.578,177.013,233.3331,172.2578,236.3972,181.9,234.39" style="stroke:#181818;stroke-width:1;"/><text fill="#000000" font-family="sans-serif" font-size="13" lengthAdjust="spacing" textLength="335.1055" x="85.46" y="200.0669">[1] CheckingFromA &amp;&amp; TerminatesRouteRequested</text></g><!--link ADMIT_END to IDLE--><g class="link" data-entity-1="ent0004" data-entity-2="ent0003" data-link-type="dependency" data-source-line="12" id="lnk9"><path d="M356.88,233.96 C392.33,218.09 441.31,198.23 486.46,187 C608.38,156.68 745.9505,143.7157 844.3005,137.8757" fill="none" id="ADMIT_END-to-IDLE" style="stroke:#181818;stroke-width:1;"/><polygon fill="#181818" points="850.29,137.52,841.0687,134.0605,845.2988,137.8164,841.5429,142.0464,850.29,137.52" style="stroke:#181818;stroke-width:1;"/><text fill="#000000" font-family="sans-serif" font-size="13" lengthAdjust="spacing" textLength="87.8516" x="487.46" y="200.0669">[2] !Checking</text></g><!--link IDLE to ADMIT_TO_A--><g class="link" data-entity-1="ent0003" data-entity-2="ent0005" data-link-type="dependency" data-source-line="7" id="lnk5"><path d="M850.06,133.61 C752.21,136.92 623.65,148.72 590.46,187 C579.55,199.58 579.5284,212.8182 583.3184,228.0182" fill="none" id="IDLE-to-ADMIT_TO_A" style="stroke:#181818;stroke-width:1;"/><polygon fill="#181818" points="584.77,233.84,586.4738,224.1396,583.5603,228.9885,578.7114,226.0751,584.77,233.84" style="stroke:#181818;stroke-width:1;"/><text fill="#000000" font-family="sans-serif" font-size="13" lengthAdjust="spacing" textLength="199.6846" x="591.46" y="200.0669">[2] Checking &amp;&amp; AdmittingToA</text></g><!--link ADMIT_TO_A to IDLE--><g class="link" data-entity-1="ent0005" data-entity-2="ent0003" data-link-type="dependency" data-source-line="14" id="lnk11"><path d="M697.6,233.99 C729.39,225.64 764.19,215.46 795.46,204 C812.08,197.91 815.23,194.05 831.46,187 C855.12,176.73 875.8059,168.315 898.9059,159.235" fill="none" id="ADMIT_TO_A-to-IDLE" style="stroke:#181818;stroke-width:1;"/><polygon fill="#181818" points="904.49,157.04,894.6505,156.6097,899.8366,158.8691,897.5772,164.0552,904.49,157.04" style="stroke:#181818;stroke-width:1;"/><text fill="#000000" font-family="sans-serif" font-size="13" lengthAdjust="spacing" textLength="87.8516" x="832.46" y="200.0669">[2] !Checking</text></g><!--link IDLE to ADMIT_TO_B--><g class="link" data-entity-1="ent0003" data-entity-2="ent0006" data-link-type="dependency" data-source-line="8" id="lnk6"><path d="M987.6,157.29 C1001.88,172.94 1022.38,192.47 1044.46,204 C1065.57,215.02 1107.5361,225.3454 1155.3261,234.8854" fill="none" id="IDLE-to-ADMIT_TO_B" style="stroke:#181818;stroke-width:1;"/><polygon fill="#181818" points="1161.21,236.06,1153.1672,230.3755,1156.3067,235.0812,1151.6011,238.2208,1161.21,236.06" style="stroke:#181818;stroke-width:1;"/><text fill="#000000" font-family="sans-serif" font-size="13" lengthAdjust="spacing" textLength="199.71" x="1045.46" y="200.0669">[3] Checking &amp;&amp; AdmittingToB</text></g><!--link ADMIT_TO_B to IDLE--><g class="link" data-entity-1="ent0006" data-entity-2="ent0003" data-link-type="dependency" data-source-line="16" id="lnk13"><path d="M1281.25,233.93 C1275.27,218.16 1265.16,198.42 1249.46,187 C1223.06,167.79 1155.7862,154.9014 1090.5662,146.1114" fill="none" id="ADMIT_TO_B-to-IDLE" style="stroke:#181818;stroke-width:1;"/><polygon fill="#181818" points="1084.62,145.31,1093.0051,150.4763,1089.5752,145.9778,1094.0736,142.5479,1084.62,145.31" style="stroke:#181818;stroke-width:1;"/><text fill="#000000" font-family="sans-serif" font-size="13" lengthAdjust="spacing" textLength="87.8516" x="1266.46" y="200.0669">[2] !Checking</text></g><!--link IDLE to ADMIT_TO_C--><g class="link" data-entity-1="ent0003" data-entity-2="ent0007" data-link-type="dependency" data-source-line="9" id="lnk7"><path d="M1084.72,143.34 C1163.84,151.71 1270.25,165.66 1362.46,187 C1364.33,187.43 1437.5542,211.6437 1499.2442,232.0737" fill="none" id="IDLE-to-ADMIT_TO_C" style="stroke:#181818;stroke-width:1;"/><polygon fill="#181818" points="1504.94,233.96,1497.6538,227.3334,1500.1935,232.3881,1495.1388,234.9278,1504.94,233.96" style="stroke:#181818;stroke-width:1;"/><text fill="#000000" font-family="sans-serif" font-size="13" lengthAdjust="spacing" textLength="199.8687" x="1411.46" y="200.0669">[4] Checking &amp;&amp; AdmittingToC</text></g><!--link ADMIT_TO_C to IDLE--><g class="link" data-entity-1="ent0007" data-entity-2="ent0003" data-link-type="dependency" data-source-line="18" id="lnk15"><path d="M1606.49,233.95 C1620.7,219.35 1632.27,200.91 1619.46,187 C1584.08,148.56 1268.729,137.5875 1090.779,134.3975" fill="none" id="ADMIT_TO_C-to-IDLE" style="stroke:#181818;stroke-width:1;"/><polygon fill="#181818" points="1084.78,134.29,1093.7069,138.4507,1089.7792,134.3796,1093.8502,130.452,1084.78,134.29" style="stroke:#181818;stroke-width:1;"/><text fill="#000000" font-family="sans-serif" font-size="13" lengthAdjust="spacing" textLength="87.8516" x="1626.46" y="200.0669">[2] !Checking</text></g><!--link ADMIT_END to ROUTE_TO_END--><g class="link" data-entity-1="ent0004" data-entity-2="ent0008" data-link-type="dependency" data-source-line="11" id="lnk8"><path d="M296.44,284.1 C287.23,306.24 275.965,333.3204 266.765,355.4304" fill="none" id="ADMIT_END-to-ROUTE_TO_END" style="stroke:#181818;stroke-width:1;"/><polygon fill="#181818" points="264.46,360.97,271.6106,354.1973,266.3809,356.3537,264.2245,351.124,264.46,360.97" style="stroke:#181818;stroke-width:1;"/><text fill="#000000" font-family="sans-serif" font-size="13" lengthAdjust="spacing" textLength="126.5342" x="285.46" y="327.0669">[1] RouteMonitored</text></g><!--link ADMIT_TO_A to ROUTE_TO_A--><g class="link" data-entity-1="ent0005" data-entity-2="ent0009" data-link-type="dependency" data-source-line="13" id="lnk10"><path d="M606.29,284.24 C614.23,298.4 625.06,316.32 636.46,331 C644.52,341.37 650.1156,347.6492 659.1256,356.6092" fill="none" id="ADMIT_TO_A-to-ROUTE_TO_A" style="stroke:#181818;stroke-width:1;"/><polygon fill="#181818" points="663.38,360.84,659.8189,351.6575,659.8346,357.3143,654.1778,357.3301,663.38,360.84" style="stroke:#181818;stroke-width:1;"/><text fill="#000000" font-family="sans-serif" font-size="13" lengthAdjust="spacing" textLength="126.5342" x="637.46" y="327.0669">[1] RouteMonitored</text></g><!--link ADMIT_TO_B to ROUTE_TO_B--><g class="link" data-entity-1="ent0006" data-entity-2="ent0010" data-link-type="dependency" data-source-line="15" id="lnk12"><path d="M1248.75,284.1 C1212.27,306.24 1163.6296,335.7476 1127.1896,357.8576" fill="none" id="ADMIT_TO_B-to-ROUTE_TO_B" style="stroke:#181818;stroke-width:1;"/><polygon fill="#181818" points="1122.06,360.97,1131.8294,359.7211,1126.3347,358.3763,1127.6795,352.8817,1122.06,360.97" style="stroke:#181818;stroke-width:1;"/><text fill="#000000" font-family="sans-serif" font-size="13" lengthAdjust="spacing" textLength="126.5342" x="1199.46" y="327.0669">[1] RouteMonitored</text></g><!--link ADMIT_TO_C to ROUTE_TO_C--><g class="link" data-entity-1="ent0007" data-entity-2="ent0011" data-link-type="dependency" data-source-line="17" id="lnk14"><path d="M1589.32,284.09 C1597.07,298.53 1608.04,316.79 1620.46,331 C1629.9,341.8 1636.967,348.3895 1648.007,357.0395" fill="none" id="ADMIT_TO_C-to-ROUTE_TO_C" style="stroke:#181818;stroke-width:1;"/><polygon fill="#181818" points="1652.73,360.74,1648.1126,352.0406,1648.7942,357.6562,1643.1786,358.3379,1652.73,360.74" style="stroke:#181818;stroke-width:1;"/><text fill="#000000" font-family="sans-serif" font-size="13" lengthAdjust="spacing" textLength="126.5342" x="1621.46" y="327.0669">[1] RouteMonitored</text></g><!--link ROUTE_TO_A to IDLE--><g class="link" data-entity-1="ent0009" data-entity-2="ent0003" data-link-type="dependency" data-source-line="20" id="lnk16"><path d="M729.19,360.88 C742.26,352.17 756.5,341.8 768.46,331 C810.37,293.17 804.75,267.12 850.46,234 C879.2,213.18 897.45,227.02 924.46,204 C939.27,191.38 947.8428,177.7483 955.0728,162.5483" fill="none" id="ROUTE_TO_A-to-IDLE" style="stroke:#181818;stroke-width:1;"/><polygon fill="#181818" points="957.65,157.13,950.1719,163.5393,955.5023,161.6452,957.3963,166.9756,957.65,157.13" style="stroke:#181818;stroke-width:1;"/><text fill="#000000" font-family="sans-serif" font-size="13" lengthAdjust="spacing" textLength="131.7456" x="851.46" y="263.5669">[1] !RouteMonitored</text></g><!--link ROUTE_TO_B to IDLE--><g class="link" data-entity-1="ent0010" data-entity-2="ent0003" data-link-type="dependency" data-source-line="21" id="lnk17"><path d="M1061.56,360.78 C1045.6,341.2 1024.09,312.33 1010.46,284 C990.08,241.63 978.783,193.6901 972.843,163.0801" fill="none" id="ROUTE_TO_B-to-IDLE" style="stroke:#181818;stroke-width:1;"/><polygon fill="#181818" points="971.7,157.19,969.4878,166.7872,972.6525,162.0984,977.3413,165.2632,971.7,157.19" style="stroke:#181818;stroke-width:1;"/><text fill="#000000" font-family="sans-serif" font-size="13" lengthAdjust="spacing" textLength="131.7456" x="1011.46" y="263.5669">[1] !RouteMonitored</text></g><!--link ROUTE_TO_C to IDLE--><g class="link" data-entity-1="ent0011" data-entity-2="ent0003" data-link-type="dependency" data-source-line="22" id="lnk18"><path d="M1727.62,360.86 C1737.58,352.72 1746.98,342.69 1752.46,331 C1780.24,271.82 1772.25,229.37 1722.46,187 C1675.09,146.68 1290.6495,136.5374 1090.6295,133.9574" fill="none" id="ROUTE_TO_C-to-IDLE" style="stroke:#181818;stroke-width:1;"/><polygon fill="#181818" points="1084.63,133.88,1093.5777,137.9957,1089.6296,133.9445,1093.6808,129.9964,1084.63,133.88" style="stroke:#181818;stroke-width:1;"/><text fill="#000000" font-family="sans-serif" font-size="13" lengthAdjust="spacing" textLength="131.7456" x="1769.46" y="263.5669">[1] !RouteMonitored</text></g><!--link ROUTE_TO_END to IDLE--><g class="link" data-entity-1="ent0008" data-entity-2="ent0003" data-link-type="dependency" data-source-line="23" id="lnk19"><path d="M140.53,360.92 C98.91,346.02 56.05,322.13 31.46,284 C6,244.52 31.18,207.47 73.46,187 C141.6,154.01 617.4514,140.0878 844.1314,135.2578" fill="none" id="ROUTE_TO_END-to-IDLE" style="stroke:#181818;stroke-width:1;"/><polygon fill="#181818" points="850.13,135.13,841.0468,131.3226,845.1311,135.2365,841.2173,139.3208,850.13,135.13" style="stroke:#181818;stroke-width:1;"/><text fill="#000000" font-family="sans-serif" font-size="13" lengthAdjust="spacing" textLength="131.7456" x="32.46" y="263.5669">[1] !RouteMonitored</text></g><?plantuml-src ZP91QuCm68Rltwz8BpqCUjYwatH24Xq8QmkIxL9AAJQieMYOflz_ITmq4Osz6VEyZ_dCswYpugX0cqrnbQBWSGnmU3gYrIf6MVAHHkZmV0GmZ_OTJhOPEwMxn6uWUkN5JLJVxxKiCLek4UDrAIhjR79vLppdFtVUA7uP6jZ-XBNYfLUODBwKGYczO1AF98XEh2SJP2H1TU9rCa41kdbiBjz_ijJakW7j55jP2ILhFOMF__qWFSJY_mlGZ-SRSS3NqK4XyOKaB2JpGkeBQLX89uNG3-dt1Yq6ilxmZuBqKN1m9oCej5ls_j5REwTPD8sGLHHbEqnPzfM2K_4fjaF0RNEODWouLPx52RWzdiKf-FMT2hIKERnRpZ1j3-zMRnOdu1Ph5gVm2m00?></g></svg>