<?plantuml 1.2026.1?><svg xmlns="http://www.w3.org/2000/svg" xmlns:xlink="http://www.w3.org/1999/xlink" contentStyleType="text/css" data-diagram-type="STATE" height="413px" preserveAspectRatio="none" style="width:741px;height:413px;background:#FFFFFF;" version="1.1" viewBox="0 0 741 413" width="741px" zoomAndPan="magnify"><defs/><g><g><rect fill="#F1F1F1" height="50.2656" rx="12.5" ry="12.5" style="stroke:#181818;stroke-width:0.5;" width="218.2461" x="409.65" y="103"/><line style="stroke:#181818;stroke-width:0.5;" x1="409.65" x2="627.8961" y1="129.2969" y2="129.2969"/><text fill="#000000" font-family="sans-serif" font-size="14" lengthAdjust="spacing" textLength="65.0576" x="486.2442" y="120.9951">INACTIVE</text><text fill="#000000" font-family="sans-serif" font-size="12" lengthAdjust="spacing" textLength="198.2461" x="414.65" y="145.4355">State = ActiveInactive::INACTIVE</text></g><g><rect fill="#F1F1F1" height="50.2656" rx="12.5" ry="12.5" style="stroke:#181818;stroke-width:0.5;" width="218.2461" x="353.65" y="230"/><line style="stroke:#181818;stroke-width:0.5;" x1="353.65" x2="571.8961" y1="256.2969" y2="256.2969"/><text fill="#000000" font-family="sans-serif" font-size="14" lengthAdjust="spacing" textLength="50.4561" x="437.545" y="247.9951">ACTIVE</text><text fill="#000000" font-family="sans-serif" font-size="12" lengthAdjust="spacing" textLength="198.2461" x="358.65" y="272.4355">State = ActiveInactive::INACTIVE</text></g><g><rect fill="#F1F1F1" height="50.2656" rx="12.5" ry="12.5" style="stroke:#181818;stroke-width:0.5;" width="205.7305" x="449.65" y="357"/><line style="stroke:#181818;stroke-width:0.5;" x1="449.65" x2="655.3805" y1="383.2969" y2="383.2969"/><text fill="#000000" font-family="sans-serif" font-size="14" lengthAdjust="spacing" textLength="74.6758" x="515.1773" y="374.9951">EFFECTIVE</text><text fill="#000000" font-family="sans-serif" font-size="12" lengthAdjust="spacing" textLength="185.7305" x="454.65" y="399.4355">State = ActiveInactive::ACTIVE</text></g><ellipse cx="518.65" cy="16" fill="#222222" rx="10" ry="10" style="stroke:#222222;stroke-width:1;"/><!--link *start* to INACTIVE--><g class="link" data-entity-1="ent0002" data-entity-2="ent0002" data-link-type="dependency" data-source-line="2" id="lnk3"><path d="M518.65,26 C518.65,42.63 518.65,72.66 518.65,96.87" fill="none" id="*start*-to-INACTIVE" style="stroke:#181818;stroke-width:1;"/><polygon fill="#181818" points="518.65,102.87,522.65,93.87,518.65,97.87,514.65,93.87,518.65,102.87" style="stroke:#181818;stroke-width:1;"/><text fill="#000000" font-family="sans-serif" font-size="13" lengthAdjust="spacing" textLength="18.4146" x="519.65" y="69.0669">[1]</text></g><!--link INACTIVE to ACTIVE--><g class="link" data-entity-1="ent0002" data-entity-2="ent0003" data-link-type="dependency" data-source-line="4" id="lnk4"><path d="M409.64,134 C278.32,141.17 72.27,156.51 48.65,183 C6,230.83 211.0342,246.2264 347.5342,251.3164" fill="none" id="INACTIVE-to-ACTIVE" style="stroke:#181818;stroke-width:1;"/><polygon fill="#181818" points="353.53,251.54,344.6853,247.2074,348.5335,251.3537,344.3872,255.2019,353.53,251.54" style="stroke:#181818;stroke-width:1;"/><text fill="#000000" font-family="sans-serif" font-size="13" lengthAdjust="spacing" textLength="425.2739" x="49.65" y="196.0669">[1] RouteIsSet &amp;&amp; OppositeTransitsInactive &amp;&amp; !TriggerZoneFree</text></g><!--link ACTIVE to INACTIVE--><g class="link" data-entity-1="ent0003" data-entity-2="ent0002" data-link-type="dependency" data-source-line="5" id="lnk5"><path d="M473.41,229.97 C483.32,207.86 495.4767,180.7155 505.3967,158.5755" fill="none" id="ACTIVE-to-INACTIVE" style="stroke:#181818;stroke-width:1;"/><polygon fill="#181818" points="507.85,153.1,500.5197,159.6777,505.8055,157.6629,507.8203,162.9488,507.85,153.1" style="stroke:#181818;stroke-width:1;"/><text fill="#000000" font-family="sans-serif" font-size="13" lengthAdjust="spacing" textLength="98.0332" x="495.65" y="196.0669">[1] !RouteIsSet</text></g><!--link ACTIVE to EFFECTIVE--><g class="link" data-entity-1="ent0003" data-entity-2="ent0004" data-link-type="dependency" data-source-line="6" id="lnk6"><path d="M465.58,280.31 C468.24,294.83 473.26,313.1 482.65,327 C490.38,338.45 496.5395,344.9074 507.4795,353.1574" fill="none" id="ACTIVE-to-EFFECTIVE" style="stroke:#181818;stroke-width:1;"/><polygon fill="#181818" points="512.27,356.77,507.4926,348.1574,508.2779,353.7595,502.6758,354.5448,512.27,356.77" style="stroke:#181818;stroke-width:1;"/><text fill="#000000" font-family="sans-serif" font-size="13" lengthAdjust="spacing" textLength="131.2061" x="483.65" y="323.0669">[1] TriggerZoneFree</text></g><!--link EFFECTIVE to INACTIVE--><g class="link" data-entity-1="ent0004" data-entity-2="ent0002" data-link-type="dependency" data-source-line="7" id="lnk7"><path d="M594.36,356.8 C604.5,348.72 614.04,338.72 619.65,327 C647.46,268.87 637.22,237.39 602.65,183 C594.93,170.86 588.4003,164.1958 576.3303,156.2958" fill="none" id="EFFECTIVE-to-INACTIVE" style="stroke:#181818;stroke-width:1;"/><polygon fill="#181818" points="571.31,153.01,576.6499,161.2856,575.4936,155.7482,581.031,154.5919,571.31,153.01" style="stroke:#181818;stroke-width:1;"/><text fill="#000000" font-family="sans-serif" font-size="13" lengthAdjust="spacing" textLength="98.0332" x="635.65" y="259.5669">[1] !RouteIsSet</text></g><?plantuml-src YzQALT3LjLFmz7Dq3l4CSxLIY3QCvUA2SS5oI38AGVcb9QcUnS6f9GfgQWh-1GNvnPabgI55YNb0kjWpBp6v9BCi5IId65AKcPwUMXILdvVgLfIQoeLa8efj2ee8Gv4LkRgvkIAfGZSEBat0H2w4L719OacgWgs28zYHCCTQMS5KS16j4CbjkDH2LG80?></g></svg>