<?plantuml 1.2026.1?><svg xmlns="http://www.w3.org/2000/svg" xmlns:xlink="http://www.w3.org/1999/xlink" contentStyleType="text/css" data-diagram-type="STATE" height="286px" preserveAspectRatio="none" style="width:305px;height:286px;background:#FFFFFF;" version="1.1" viewBox="0 0 305 286" width="305px" zoomAndPan="magnify"><defs/><g><g><rect fill="#F1F1F1" height="50.2656" rx="12.5" ry="12.5" style="stroke:#181818;stroke-width:0.5;" width="222.9863" x="7" y="103"/><line style="stroke:#181818;stroke-width:0.5;" x1="7" x2="229.9863" y1="129.2969" y2="129.2969"/><text fill="#000000" font-family="sans-serif" font-size="14" lengthAdjust="spacing" textLength="57.1074" x="89.9395" y="120.9951">CLOSED</text><text fill="#000000" font-family="sans-serif" font-size="12" lengthAdjust="spacing" textLength="202.9863" x="12" y="145.4355">State = OpenCloseState::CLOSED</text></g><g><rect fill="#F1F1F1" height="50.2656" rx="12.5" ry="12.5" style="stroke:#181818;stroke-width:0.5;" width="207.2773" x="15" y="230"/><line style="stroke:#181818;stroke-width:0.5;" x1="15" x2="222.2773" y1="256.2969" y2="256.2969"/><text fill="#000000" font-family="sans-serif" font-size="14" lengthAdjust="spacing" textLength="38.7803" x="99.2485" y="247.9951">OPEN</text><text fill="#000000" font-family="sans-serif" font-size="12" lengthAdjust="spacing" textLength="187.2773" x="20" y="272.4355">State = OpenCloseState::OPEN</text></g><ellipse cx="118.5" cy="16" fill="#222222" rx="10" ry="10" style="stroke:#222222;stroke-width:1;"/><!--link *start* to CLOSED--><g class="link" data-entity-1="ent0002" data-entity-2="ent0002" data-link-type="dependency" data-source-line="2" id="lnk3"><path d="M118.5,26 C118.5,42.63 118.5,72.66 118.5,96.87" fill="none" id="*start*-to-CLOSED" style="stroke:#181818;stroke-width:1;"/><polygon fill="#181818" points="118.5,102.87,122.5,93.87,118.5,97.87,114.5,93.87,118.5,102.87" style="stroke:#181818;stroke-width:1;"/><text fill="#000000" font-family="sans-serif" font-size="13" lengthAdjust="spacing" textLength="18.4146" x="119.5" y="69.0669">[1]</text></g><!--link CLOSED to OPEN--><g class="link" data-entity-1="ent0002" data-entity-2="ent0003" data-link-type="dependency" data-source-line="3" id="lnk4"><path d="M61.03,153.15 C49.23,160.89 38.33,170.73 31.5,183 C20.89,202.08 31.0178,215.0531 51.6178,226.9831" fill="none" id="CLOSED-to-OPEN" style="stroke:#181818;stroke-width:1;"/><polygon fill="#181818" points="56.81,229.99,51.0264,222.0182,52.4832,227.4842,47.0172,228.9411,56.81,229.99" style="stroke:#181818;stroke-width:1;"/><text fill="#000000" font-family="sans-serif" font-size="13" lengthAdjust="spacing" textLength="126.5342" x="32.5" y="196.0669">[1] RouteMonitored</text></g><!--link OPEN to CLOSED--><g class="link" data-entity-1="ent0003" data-entity-2="ent0002" data-link-type="dependency" data-source-line="4" id="lnk5"><path d="M147.56,229.77 C159.63,216.65 169.56,199.74 163.5,183 C159.51,171.98 156.1554,166.1428 148.5554,157.5128" fill="none" id="OPEN-to-CLOSED" style="stroke:#181818;stroke-width:1;"/><polygon fill="#181818" points="144.59,153.01,147.5362,162.4079,147.8945,156.7624,153.54,157.1206,144.59,153.01" style="stroke:#181818;stroke-width:1;"/><text fill="#000000" font-family="sans-serif" font-size="13" lengthAdjust="spacing" textLength="131.7456" x="165.5" y="196.0669">[1] !RouteMonitored</text></g><?plantuml-src YzQALT3LjLDmzl4FTdMnKeWsZEM2iC72_W6kVc11XQ3yqf9Kt_oyp9ByejGKBf04kaO5HJH5N339u9B4abG5MmN_WjGyvvpyubImW9KLH9uBOWikHI1PBW00?></g></svg>