<?plantuml 1.2026.1?><svg xmlns="http://www.w3.org/2000/svg" xmlns:xlink="http://www.w3.org/1999/xlink" contentStyleType="text/css" data-diagram-type="STATE" height="459px" preserveAspectRatio="none" style="width:523px;height:459px;background:#FFFFFF;" version="1.1" viewBox="0 0 523 459" width="523px" zoomAndPan="magnify"><defs/><g><g class="entity" data-qualified-name="c" id="ent0002"><polygon fill="#F1F1F1" points="295,6,307,18,295,30,283,18,295,6" style="stroke:#181818;stroke-width:0.5;"/></g><g><rect fill="#F1F1F1" height="64.2344" rx="12.5" ry="12.5" style="stroke:#181818;stroke-width:0.5;" width="218.2461" x="298" y="389"/><line style="stroke:#181818;stroke-width:0.5;" x1="298" x2="516.2461" y1="415.2969" y2="415.2969"/><text fill="#000000" font-family="sans-serif" font-size="14" lengthAdjust="spacing" textLength="65.0576" x="374.5942" y="406.9951">INACTIVE</text><text fill="#000000" font-family="sans-serif" font-size="12" lengthAdjust="spacing" textLength="176.2559" x="303" y="431.4355">Top = ActiveInactive::ACTIVE</text><text fill="#000000" font-family="sans-serif" font-size="12" lengthAdjust="spacing" textLength="198.2461" x="303" y="445.4043">State = ActiveInactive::INACTIVE</text></g><g><rect fill="#F1F1F1" height="64.2344" rx="12.5" ry="12.5" style="stroke:#181818;stroke-width:0.5;" width="218.2461" x="7" y="107"/><line style="stroke:#181818;stroke-width:0.5;" x1="7" x2="225.2461" y1="133.2969" y2="133.2969"/><text fill="#000000" font-family="sans-serif" font-size="14" lengthAdjust="spacing" textLength="61.5508" x="85.3477" y="124.9951">WAITING</text><text fill="#000000" font-family="sans-serif" font-size="12" lengthAdjust="spacing" textLength="176.2559" x="12" y="149.4355">Top = ActiveInactive::ACTIVE</text><text fill="#000000" font-family="sans-serif" font-size="12" lengthAdjust="spacing" textLength="198.2461" x="12" y="163.4043">State = ActiveInactive::INACTIVE</text></g><g><rect fill="#F1F1F1" height="64.2344" rx="12.5" ry="12.5" style="stroke:#181818;stroke-width:0.5;" width="208.7715" x="144.5" y="248"/><line style="stroke:#181818;stroke-width:0.5;" x1="144.5" x2="353.2715" y1="274.2969" y2="274.2969"/><text fill="#000000" font-family="sans-serif" font-size="14" lengthAdjust="spacing" textLength="73.5547" x="212.1084" y="265.9951">CHECKING</text><text fill="#000000" font-family="sans-serif" font-size="12" lengthAdjust="spacing" textLength="188.7715" x="149.5" y="290.4355">Top = ActiveInactive::INACTIVE</text><text fill="#000000" font-family="sans-serif" font-size="12" lengthAdjust="spacing" textLength="185.7305" x="149.5" y="304.4043">State = ActiveInactive::ACTIVE</text></g><ellipse cx="470" cy="280" fill="#222222" rx="10" ry="10" style="stroke:#222222;stroke-width:1;"/><!--link *start* to INACTIVE--><g class="link" data-entity-1="ent0002" data-entity-2="ent0003" data-link-type="dependency" data-source-line="4" id="lnk3"><path d="M466.25,289.28 C457.56,308.45 438.1677,351.2455 423.5677,383.4455" fill="none" id="*start*-to-INACTIVE" style="stroke:#181818;stroke-width:1;"/><polygon fill="#181818" points="421.09,388.91,428.4496,382.365,423.1548,384.3562,421.1635,379.0614,421.09,388.91" style="stroke:#181818;stroke-width:1;"/><text fill="#000000" font-family="sans-serif" font-size="13" lengthAdjust="spacing" textLength="18.4146" x="443" y="355.0669">[1]</text></g><!--link INACTIVE to c--><g class="link" data-entity-1="ent0003" data-entity-2="ent0002" data-link-type="dependency" data-source-line="6" id="lnk4"><path d="M404.38,388.86 C398.81,331.51 383.14,206.01 346,107 C333.72,74.26 313.4419,44.3848 303.2919,30.3248" fill="none" id="INACTIVE-to-c" style="stroke:#181818;stroke-width:1;"/><polygon fill="#181818" points="299.78,25.46,301.8047,35.0985,302.7066,29.514,308.2911,30.4159,299.78,25.46" style="stroke:#181818;stroke-width:1;"/><text fill="#000000" font-family="sans-serif" font-size="13" lengthAdjust="spacing" textLength="130.5078" x="378" y="214.0669">[1] RouteRequested</text></g><!--link c to CHECKING--><g class="link" data-entity-1="ent0002" data-entity-2="ent0005" data-link-type="dependency" data-source-line="7" id="lnk5"><path d="M293.31,28.56 C287.04,64.02 265.9754,183.0518 255.5554,241.9418" fill="none" id="c-to-CHECKING" style="stroke:#181818;stroke-width:1;"/><polygon fill="#181818" points="254.51,247.85,260.0169,239.6846,255.3812,242.9265,252.1393,238.2907,254.51,247.85" style="stroke:#181818;stroke-width:1;"/><text fill="#000000" font-family="sans-serif" font-size="13" lengthAdjust="spacing" textLength="57.3003" x="280" y="143.5669">[1] IsTop</text></g><!--link c to WAITING--><g class="link" data-entity-1="ent0002" data-entity-2="ent0004" data-link-type="dependency" data-source-line="8" id="lnk6"><path d="M288.2,23.52 C267.89,37.02 211.3763,74.5879 167.6863,103.6379" fill="none" id="c-to-WAITING" style="stroke:#181818;stroke-width:1;"/><polygon fill="#181818" points="162.69,106.96,172.3993,105.3077,166.8536,104.1916,167.9698,98.6459,162.69,106.96" style="stroke:#181818;stroke-width:1;"/><text fill="#000000" font-family="sans-serif" font-size="13" lengthAdjust="spacing" textLength="18.4146" x="233" y="73.0669">[2]</text></g><!--link WAITING to CHECKING--><g class="link" data-entity-1="ent0004" data-entity-2="ent0005" data-link-type="dependency" data-source-line="10" id="lnk7"><path d="M145.85,171.19 C167.75,194.09 193.2222,220.7046 215.1022,243.5746" fill="none" id="WAITING-to-CHECKING" style="stroke:#181818;stroke-width:1;"/><polygon fill="#181818" points="219.25,247.91,215.9186,238.6417,215.7935,244.2971,210.1381,244.172,219.25,247.91" style="stroke:#181818;stroke-width:1;"/><text fill="#000000" font-family="sans-serif" font-size="13" lengthAdjust="spacing" textLength="57.3003" x="192" y="214.0669">[1] IsTop</text></g><!--link CHECKING to INACTIVE--><g class="link" data-entity-1="ent0005" data-entity-2="ent0003" data-link-type="dependency" data-source-line="12" id="lnk8"><path d="M284.46,312.19 C310.48,335.09 341.1656,362.0763 367.1556,384.9463" fill="none" id="CHECKING-to-INACTIVE" style="stroke:#181818;stroke-width:1;"/><polygon fill="#181818" points="371.66,388.91,367.5459,379.9616,367.9063,385.607,362.261,385.9674,371.66,388.91" style="stroke:#181818;stroke-width:1;"/><text fill="#000000" font-family="sans-serif" font-size="13" lengthAdjust="spacing" textLength="18.4146" x="338" y="355.0669">[1]</text></g><?plantuml-src Aov9B4bLI5QmiKdEoCzCJhMpu-AArefLqDMrK_3qStGEyGnpjLA8Depbue9nmNB9O465eFpIajIWrCBIrEAIr1IkPB2SiuUhixUddpj4YMTnI7u1L2RSqJC48c44D13Amwc72oQ8ppLM2a2b2hOAZiabcMMfddc9ODhA2YABf2mOx5DCXJ0LSFSGC16kYh2124zXDn6k4g4Gbw5GXG00?></g></svg>