<?plantuml 1.2026.1?><svg xmlns="http://www.w3.org/2000/svg" xmlns:xlink="http://www.w3.org/1999/xlink" contentStyleType="text/css" data-diagram-type="STATE" height="286px" preserveAspectRatio="none" style="width:289px;height:286px;background:#FFFFFF;" version="1.1" viewBox="0 0 289 286" width="289px" zoomAndPan="magnify"><defs/><g><g><rect fill="#F1F1F1" height="50.2656" rx="12.5" ry="12.5" style="stroke:#181818;stroke-width:0.5;" width="222.9863" x="7" y="103"/><line style="stroke:#181818;stroke-width:0.5;" x1="7" x2="229.9863" y1="129.2969" y2="129.2969"/><text fill="#000000" font-family="sans-serif" font-size="14" lengthAdjust="spacing" textLength="57.1074" x="89.9395" y="120.9951">CLOSED</text><text fill="#000000" font-family="sans-serif" font-size="12" lengthAdjust="spacing" textLength="202.9863" x="12" y="145.4355">State = OpenCloseState::CLOSED</text></g><g><rect fill="#F1F1F1" height="50.2656" rx="12.5" ry="12.5" style="stroke:#181818;stroke-width:0.5;" width="207.2773" x="15" y="230"/><line style="stroke:#181818;stroke-width:0.5;" x1="15" x2="222.2773" y1="256.2969" y2="256.2969"/><text fill="#000000" font-family="sans-serif" font-size="14" lengthAdjust="spacing" textLength="38.7803" x="99.2485" y="247.9951">OPEN</text><text fill="#000000" font-family="sans-serif" font-size="12" lengthAdjust="spacing" textLength="187.2773" x="20" y="272.4355">State = OpenCloseState::OPEN</text></g><ellipse cx="118.5" cy="16" fill="#222222" rx="10" ry="10" style="stroke:#222222;stroke-width:1;"/><!--link *start* to CLOSED--><g class="link" data-entity-1="ent0002" data-entity-2="ent0002" data-link-type="dependency" data-source-line="2" id="lnk3"><path d="M118.5,26 C118.5,42.63 118.5,72.66 118.5,96.87" fill="none" id="*start*-to-CLOSED" style="stroke:#181818;stroke-width:1;"/><polygon fill="#181818" points="118.5,102.87,122.5,93.87,118.5,97.87,114.5,93.87,118.5,102.87" style="stroke:#181818;stroke-width:1;"/><text fill="#000000" font-family="sans-serif" font-size="13" lengthAdjust="spacing" textLength="18.4146" x="119.5" y="69.0669">[1]</text></g><!--link CLOSED to OPEN--><g class="link" data-entity-1="ent0002" data-entity-2="ent0003" data-link-type="dependency" data-source-line="3" id="lnk4"><path d="M65.75,153.28 C54.44,161.09 43.96,170.93 37.5,183 C27.48,201.71 37.1667,214.6347 56.7367,226.7347" fill="none" id="CLOSED-to-OPEN" style="stroke:#181818;stroke-width:1;"/><polygon fill="#181818" points="61.84,229.89,56.2886,221.7548,57.5872,227.2605,52.0815,228.5592,61.84,229.89" style="stroke:#181818;stroke-width:1;"/><text fill="#000000" font-family="sans-serif" font-size="13" lengthAdjust="spacing" textLength="115.6924" x="38.5" y="196.0669">[1] RouteOpening</text></g><!--link OPEN to CLOSED--><g class="link" data-entity-1="ent0003" data-entity-2="ent0002" data-link-type="dependency" data-source-line="4" id="lnk5"><path d="M144.09,229.8 C154.93,216.56 163.95,199.53 158.5,183 C154.95,172.25 152.0497,166.6235 145.2197,157.9035" fill="none" id="OPEN-to-CLOSED" style="stroke:#181818;stroke-width:1;"/><polygon fill="#181818" points="141.52,153.18,143.9206,162.7318,144.6031,157.1163,150.2187,157.7988,141.52,153.18" style="stroke:#181818;stroke-width:1;"/><text fill="#000000" font-family="sans-serif" font-size="13" lengthAdjust="spacing" textLength="120.9038" x="160.5" y="196.0669">[1] !RouteOpening</text></g><?plantuml-src YzQALT3LjLDmzl4FTdMnKeWsZEM2iC72_W6kVWfWKOMW_DAILF-2rBpCl7Gki3X27rI98eeQBfYPmIM99QaAjWeW2UUS_E9Ki82L5KGUR1PkHI1PBW00?></g></svg>