<?plantuml 1.2026.1?><svg xmlns="http://www.w3.org/2000/svg" xmlns:xlink="http://www.w3.org/1999/xlink" contentStyleType="text/css" data-diagram-type="STATE" height="286px" preserveAspectRatio="none" style="width:252px;height:286px;background:#FFFFFF;" version="1.1" viewBox="0 0 252 286" width="252px" zoomAndPan="magnify"><defs/><g><g><rect fill="#F1F1F1" height="50.2656" rx="12.5" ry="12.5" style="stroke:#181818;stroke-width:0.5;" width="218.2461" x="7" y="103"/><line style="stroke:#181818;stroke-width:0.5;" x1="7" x2="225.2461" y1="129.2969" y2="129.2969"/><text fill="#000000" font-family="sans-serif" font-size="14" lengthAdjust="spacing" textLength="141.0527" x="45.5967" y="120.9951">SIGNAL_NOT_START</text><text fill="#000000" font-family="sans-serif" font-size="12" lengthAdjust="spacing" textLength="198.2461" x="12" y="145.4355">State = ActiveInactive::INACTIVE</text></g><g><rect fill="#F1F1F1" height="50.2656" rx="12.5" ry="12.5" style="stroke:#181818;stroke-width:0.5;" width="205.7305" x="13" y="230"/><line style="stroke:#181818;stroke-width:0.5;" x1="13" x2="218.7305" y1="256.2969" y2="256.2969"/><text fill="#000000" font-family="sans-serif" font-size="14" lengthAdjust="spacing" textLength="124.0244" x="53.853" y="247.9951">SIGNAL_IS_START</text><text fill="#000000" font-family="sans-serif" font-size="12" lengthAdjust="spacing" textLength="185.7305" x="18" y="272.4355">State = ActiveInactive::ACTIVE</text></g><ellipse cx="116" cy="16" fill="#222222" rx="10" ry="10" style="stroke:#222222;stroke-width:1;"/><!--link *start* to SIGNAL_NOT_START--><g class="link" data-entity-1="ent0002" data-entity-2="ent0002" data-link-type="dependency" data-source-line="2" id="lnk3"><path d="M116,26 C116,42.63 116,72.66 116,96.87" fill="none" id="*start*-to-SIGNAL_NOT_START" style="stroke:#181818;stroke-width:1;"/><polygon fill="#181818" points="116,102.87,120,93.87,116,97.87,112,93.87,116,102.87" style="stroke:#181818;stroke-width:1;"/><text fill="#000000" font-family="sans-serif" font-size="13" lengthAdjust="spacing" textLength="18.4146" x="117" y="69.0669">[1]</text></g><!--link SIGNAL_NOT_START to SIGNAL_IS_START--><g class="link" data-entity-1="ent0002" data-entity-2="ent0003" data-link-type="dependency" data-source-line="3" id="lnk4"><path d="M72.09,153.14 C61.63,161.17 51.82,171.15 46,183 C37.14,201.02 45.7872,213.8172 63.2572,226.2172" fill="none" id="SIGNAL_NOT_START-to-SIGNAL_IS_START" style="stroke:#181818;stroke-width:1;"/><polygon fill="#181818" points="68.15,229.69,63.126,221.2189,64.0727,226.796,58.4956,227.7426,68.15,229.69" style="stroke:#181818;stroke-width:1;"/><text fill="#000000" font-family="sans-serif" font-size="13" lengthAdjust="spacing" textLength="92.8218" x="47" y="196.0669">[1] RouteIsSet</text></g><!--link SIGNAL_IS_START to SIGNAL_NOT_START--><g class="link" data-entity-1="ent0003" data-entity-2="ent0002" data-link-type="dependency" data-source-line="4" id="lnk5"><path d="M133.57,229.89 C141.34,216.4 147.92,199.09 144,183 C141.47,172.64 139.482,167.3015 134.492,158.2715" fill="none" id="SIGNAL_IS_START-to-SIGNAL_NOT_START" style="stroke:#181818;stroke-width:1;"/><polygon fill="#181818" points="131.59,153.02,132.442,162.8319,134.0083,157.3963,139.444,158.9626,131.59,153.02" style="stroke:#181818;stroke-width:1;"/><text fill="#000000" font-family="sans-serif" font-size="13" lengthAdjust="spacing" textLength="98.0332" x="146" y="196.0669">[1] !RouteIsSet</text></g><?plantuml-src YzQALT3LjLC8zdJtS_I9z_CFYGyESGmAiLA8DepbGXT5LkeP31K3ArK8oYyjIVKi3aujuK9NWCryg2v596rSc6u8BaaiILMmLN1CBiaiI_NCImJJLbQUVexE8PvXhkXMuTO1LGy0?></g></svg>