<?plantuml 1.2026.1?><svg xmlns="http://www.w3.org/2000/svg" xmlns:xlink="http://www.w3.org/1999/xlink" contentStyleType="text/css" data-diagram-type="STATE" height="286px" preserveAspectRatio="none" style="width:299px;height:286px;background:#FFFFFF;" version="1.1" viewBox="0 0 299 286" width="299px" zoomAndPan="magnify"><defs/><g><g><rect fill="#F1F1F1" height="50.2656" rx="12.5" ry="12.5" style="stroke:#181818;stroke-width:0.5;" width="244.877" x="7" y="103"/><line style="stroke:#181818;stroke-width:0.5;" x1="7" x2="251.877" y1="129.2969" y2="129.2969"/><text fill="#000000" font-family="sans-serif" font-size="14" lengthAdjust="spacing" textLength="73.0146" x="92.9312" y="120.9951">OCCUPIED</text><text fill="#000000" font-family="sans-serif" font-size="12" lengthAdjust="spacing" textLength="224.877" x="12" y="145.4355">State = OccupancyStatus::OCCUPIED</text></g><g><rect fill="#F1F1F1" height="50.2656" rx="12.5" ry="12.5" style="stroke:#181818;stroke-width:0.5;" width="231.6055" x="13.5" y="230"/><line style="stroke:#181818;stroke-width:0.5;" x1="13.5" x2="245.1055" y1="256.2969" y2="256.2969"/><text fill="#000000" font-family="sans-serif" font-size="14" lengthAdjust="spacing" textLength="57.5313" x="100.5371" y="247.9951">VACANT</text><text fill="#000000" font-family="sans-serif" font-size="12" lengthAdjust="spacing" textLength="211.6055" x="18.5" y="272.4355">State = OccupancyStatus::VACANT</text></g><ellipse cx="129.5" cy="16" fill="#222222" rx="10" ry="10" style="stroke:#222222;stroke-width:1;"/><!--link *start* to OCCUPIED--><g class="link" data-entity-1="ent0002" data-entity-2="ent0002" data-link-type="dependency" data-source-line="2" id="lnk3"><path d="M129.5,26 C129.5,42.63 129.5,72.66 129.5,96.87" fill="none" id="*start*-to-OCCUPIED" style="stroke:#181818;stroke-width:1;"/><polygon fill="#181818" points="129.5,102.87,133.5,93.87,129.5,97.87,125.5,93.87,129.5,102.87" style="stroke:#181818;stroke-width:1;"/><text fill="#000000" font-family="sans-serif" font-size="13" lengthAdjust="spacing" textLength="18.4146" x="130.5" y="69.0669">[1]</text></g><!--link OCCUPIED to VACANT--><g class="link" data-entity-1="ent0002" data-entity-2="ent0003" data-link-type="dependency" data-source-line="3" id="lnk4"><path d="M74.41,153.21 C62.84,160.99 52.15,170.83 45.5,183 C35.21,201.85 45.0341,214.7645 65.0641,226.7745" fill="none" id="OCCUPIED-to-VACANT" style="stroke:#181818;stroke-width:1;"/><polygon fill="#181818" points="70.21,229.86,64.5482,221.8012,65.9218,227.2888,60.4342,228.6624,70.21,229.86" style="stroke:#181818;stroke-width:1;"/><text fill="#000000" font-family="sans-serif" font-size="13" lengthAdjust="spacing" textLength="121.7354" x="46.5" y="196.0669">[1] !ZoneOccupied</text></g><!--link VACANT to OCCUPIED--><g class="link" data-entity-1="ent0003" data-entity-2="ent0002" data-link-type="dependency" data-source-line="4" id="lnk5"><path d="M156.99,229.97 C168.65,216.78 178.35,199.73 172.5,183 C168.7,172.14 165.5699,166.4236 158.3099,157.7836" fill="none" id="VACANT-to-OCCUPIED" style="stroke:#181818;stroke-width:1;"/><polygon fill="#181818" points="154.45,153.19,157.1775,162.6537,157.6666,157.018,163.3023,157.5071,154.45,153.19" style="stroke:#181818;stroke-width:1;"/><text fill="#000000" font-family="sans-serif" font-size="13" lengthAdjust="spacing" textLength="116.5239" x="174.5" y="196.0669">[1] ZoneOccupied</text></g><?plantuml-src YzQALT3LjLFmTtOE3V1qTR5IY3QCvOBnm59XZiwEVY4AO1a5nQZyl5J_vEJIWipK52we5B81K7KeohWGfWUN99QaAjWgWEKIyv8hGGAbnLPMC2LGC_6eX2ZW0W00?></g></svg>