<?xml version="1.0" encoding="UTF-8" standalone="no"?>
<!DOCTYPE svg PUBLIC "-//W3C//DTD SVG 1.1//EN" "http://www.w3.org/Graphics/SVG/1.1/DTD/svg11.dtd">
<svg width="100%" height="100%" viewBox="0 0 653 283" version="1.1" xmlns="http://www.w3.org/2000/svg" xmlns:xlink="http://www.w3.org/1999/xlink" xml:space="preserve" xmlns:serif="http://www.serif.com/" style="fill-rule:evenodd;clip-rule:evenodd;stroke-linejoin:round;stroke-miterlimit:2;">
    <g transform="matrix(1,0,0,1,-19,-83)">
        <g>
            <g transform="matrix(1.684,0,0,0.535306,-134.469,107.362)">
                <rect x="91.473" y="388.763" width="149.407" height="37.362" style="fill:rgb(61,197,78);"/>
            </g>
            <g transform="matrix(2.32784,0,0,0.535306,108.239,107.362)">
                <rect x="91.473" y="388.763" width="149.407" height="37.362" style="fill:rgb(61,197,78);"/>
            </g>
            <g transform="matrix(0.946548,-0.946548,0.378519,0.378519,58.4018,225.461)">
                <rect x="91.473" y="388.763" width="149.407" height="37.362" style="fill:rgb(61,197,78);"/>
            </g>
            <g transform="matrix(0.334655,0,0,0.535306,240.562,107.362)">
                <rect x="91.473" y="388.763" width="149.407" height="37.362" style="fill:rgb(61,118,197);"/>
            </g>
            <g transform="matrix(2.67322,0,0,0.535306,-224.956,-98.8697)">
                <rect x="91.473" y="388.763" width="149.407" height="37.362" style="fill:rgb(61,197,78);"/>
            </g>
            <g transform="matrix(1.33862,0,0,0.535306,346.523,-98.8697)">
                <rect x="91.473" y="388.763" width="149.407" height="37.362" style="fill:rgb(61,197,78);"/>
            </g>
            <g transform="matrix(0.334655,0,0,0.535306,388.359,-98.8697)">
                <rect x="91.473" y="388.763" width="149.407" height="37.362" style="fill:rgb(61,118,197);"/>
            </g>
            <g transform="matrix(0.236637,-0.236637,0.378519,0.378519,87.9765,195.819)">
                <rect x="91.473" y="388.763" width="149.407" height="37.362" style="fill:rgb(61,118,197);"/>
            </g>
            <g transform="matrix(0.236637,-0.236637,0.378519,0.378519,264.716,19.0848)">
                <rect x="91.473" y="388.763" width="149.407" height="37.362" style="fill:rgb(61,118,197);"/>
            </g>
            <g id="A" transform="matrix(1,0,0,1,20.5878,67.1524)">
                <g transform="matrix(0.986792,0,0,0.779456,0.892597,61.4359)">
                    <rect x="67.579" y="278.566" width="10.134" height="25.659" style="fill:rgb(61,118,197);"/>
                </g>
                <g transform="matrix(1.97358,0,0,0.779456,-35.7941,61.4359)">
                    <rect x="67.579" y="278.566" width="10.134" height="25.659" style="fill:rgb(61,118,197);"/>
                </g>
                <g transform="matrix(0.567835,0,0,0.567835,33.6977,117.547)">
                    <circle cx="147.722" cy="301.177" r="17.611" style="fill:rgb(61,118,197);"/>
                </g>
                <g transform="matrix(1.97358,0,0,0.389728,-55.7941,175.001)">
                    <rect x="67.579" y="278.566" width="10.134" height="25.659" style="fill:rgb(61,118,197);"/>
                </g>
            </g>
            <g id="N2" transform="matrix(1,0,0,1,517.034,67.1524)">
                <g transform="matrix(0.986792,0,0,0.779456,0.892597,61.4359)">
                    <rect x="67.579" y="278.566" width="10.134" height="25.659" style="fill:rgb(61,118,197);"/>
                </g>
                <g transform="matrix(1.97358,0,0,0.779456,-35.7941,61.4359)">
                    <rect x="67.579" y="278.566" width="10.134" height="25.659" style="fill:rgb(61,118,197);"/>
                </g>
                <g transform="matrix(0.567835,0,0,0.567835,33.6977,117.547)">
                    <circle cx="147.722" cy="301.177" r="17.611" style="fill:rgb(61,118,197);"/>
                </g>
                <g transform="matrix(1.97358,0,0,0.389728,-55.7941,175.001)">
                    <rect x="67.579" y="278.566" width="10.134" height="25.659" style="fill:rgb(61,118,197);"/>
                </g>
            </g>
            <g id="N1" transform="matrix(1,0,0,1,517.034,-140.367)">
                <g transform="matrix(0.986792,0,0,0.779456,0.892597,61.4359)">
                    <rect x="67.579" y="278.566" width="10.134" height="25.659" style="fill:rgb(61,118,197);"/>
                </g>
                <g transform="matrix(1.97358,0,0,0.779456,-35.7941,61.4359)">
                    <rect x="67.579" y="278.566" width="10.134" height="25.659" style="fill:rgb(61,118,197);"/>
                </g>
                <g transform="matrix(0.567835,0,0,0.567835,33.6977,117.547)">
                    <circle cx="147.722" cy="301.177" r="17.611" style="fill:rgb(61,118,197);"/>
                </g>
                <g transform="matrix(1.97358,0,0,0.389728,-55.7941,175.001)">
                    <rect x="67.579" y="278.566" width="10.134" height="25.659" style="fill:rgb(61,118,197);"/>
                </g>
            </g>
            <g transform="matrix(1,0,0,1,-54.9013,58.0328)">
                <g transform="matrix(12,0,0,12,222.552,301.98)">
                </g>
                <text x="214.548px" y="301.98px" style="font-family:'ArialMT', 'Arial', sans-serif;font-size:12px;">A</text>
            </g>
            <g transform="matrix(1,0,0,1,443.038,58.0679)">
                <g transform="matrix(12,0,0,12,229.888,301.98)">
                </g>
                <text x="214.548px" y="301.98px" style="font-family:'ArialMT', 'Arial', sans-serif;font-size:12px;">N1</text>
            </g>
            <g transform="matrix(1,0,0,1,64.8995,58.0679)">
                <g transform="matrix(12,0,0,12,232.548,301.98)">
                </g>
                <text x="214.548px" y="301.98px" style="font-family:'ArialMT', 'Arial', sans-serif;font-size:12px;">W1</text>
            </g>
            <g transform="matrix(1,0,0,1,239.882,-209.893)">
                <g transform="matrix(12,0,0,12,232.548,301.98)">
                </g>
                <text x="214.548px" y="301.98px" style="font-family:'ArialMT', 'Arial', sans-serif;font-size:12px;">W2</text>
            </g>
            <g transform="matrix(1,0,0,1,442.253,-149.469)">
                <g transform="matrix(12,0,0,12,229.888,301.98)">
                </g>
                <text x="214.548px" y="301.98px" style="font-family:'ArialMT', 'Arial', sans-serif;font-size:12px;">N2</text>
            </g>
            <g>
                <g transform="matrix(0.650136,0,0,0.508144,26.386,196.982)">
                    <rect x="145.373" y="233.176" width="46.144" height="39.359" style="fill:white;"/>
                </g>
                <g transform="matrix(1,0,0,1,-88.7635,27.7835)">
                    <g transform="matrix(12,0,0,12,236.339,301.98)">
                    </g>
                    <text x="214.548px" y="301.98px" style="font-family:'ArialMT', 'Arial', sans-serif;font-size:12px;">G1<tspan x="229.665px " y="301.98px ">1</tspan></text>
                </g>
            </g>
            <g transform="matrix(1,0,0,1,0,-206.231)">
                <g transform="matrix(0.650136,0,0,0.508144,506.959,196.982)">
                    <rect x="145.373" y="233.176" width="46.144" height="39.359" style="fill:white;"/>
                </g>
                <g transform="matrix(1,0,0,1,391.809,27.7835)">
                    <g transform="matrix(12,0,0,12,237.23,301.98)">
                    </g>
                    <text x="214.548px" y="301.98px" style="font-family:'ArialMT', 'Arial', sans-serif;font-size:12px;">G21</text>
                </g>
                <g transform="matrix(0.650136,0,0,0.508144,506.959,403.213)">
                    <rect x="145.373" y="233.176" width="46.144" height="39.359" style="fill:white;"/>
                </g>
                <g transform="matrix(1,0,0,1,391.809,234.015)">
                    <g transform="matrix(12,0,0,12,237.23,301.98)">
                    </g>
                    <text x="214.548px" y="301.98px" style="font-family:'ArialMT', 'Arial', sans-serif;font-size:12px;">G12</text>
                </g>
            </g>
        </g>
    </g>
</svg>
